<svg width="131" height="61" viewBox="0 0 131 61" fill="none" xmlns="http://www.w3.org/2000/svg">
<path d="M34.9539 7.42328C34.8815 6.54449 34.9234 6.49362 35.8327 6.23418C37.1032 5.61992 38.4767 5.32614 39.854 5.27782C44.7084 5.1074 49.5652 5.19134 54.464 5.20787C54.7247 6.0485 54.7031 6.9133 54.8163 7.75648C54.8265 7.8277 54.6993 7.91799 54.6357 7.99939C54.7057 8.6696 54.7629 9.34237 54.8532 10.01C54.8888 10.2669 54.8468 10.4374 54.6408 10.6141C53.9184 11.2335 53.2114 11.8694 52.5081 12.5116C52.3402 12.6655 52.1711 12.7316 51.9434 12.7316C46.4596 12.7253 40.9745 12.7253 35.4906 12.7227C35.4512 12.7227 35.413 12.696 35.3495 12.6731C35.1066 11.573 35.1422 10.4272 34.9425 9.31057C34.926 9.22155 34.9934 9.15669 35.0722 9.11345C35.0786 8.9265 35.0862 8.73828 35.0926 8.55006C35.0455 8.17489 34.9857 7.80099 34.9539 7.42328Z" fill="#FEFEFE"/>
<path d="M124.94 52.8977C126.002 56.76 123.38 60.0653 119.994 60.3349C117.248 60.5537 114.491 60.4163 111.74 60.4188C86.8585 60.4341 61.9765 60.4341 37.0957 60.4341C29.0277 60.4341 20.9596 60.4099 12.8916 60.4188C10.9636 60.4214 9.30137 59.8364 8.06776 58.337C6.61414 56.5705 6.28094 54.5598 7.10631 52.4157C7.91515 50.3147 9.4756 49.1154 11.7025 48.7517C12.1667 48.6767 12.6245 48.6487 13.0887 48.6487H119.18C121.923 48.65 124.218 50.2689 124.94 52.8977Z" fill="#FEFEFE"/>
<path d="M117.49 8.44451C117.766 7.96124 118.043 7.47415 118.321 6.98834C118.249 6.88533 118.183 6.77723 118.104 6.68057C117.429 5.86029 117.431 5.86283 117.982 4.89884C119.069 2.99501 120.476 1.37097 122.235 1.14441e-05C122.824 0.422236 123.492 0.688034 124.018 1.18021C125.189 1.96743 126.215 2.90853 127.067 4.03658C127.085 4.04676 127.108 4.05311 127.122 4.0671C127.993 5.05908 127.935 4.76912 127.337 5.83994C127.235 6.0218 127.137 6.20494 127.037 6.3868C127.902 7.49577 127.904 7.49704 127.187 8.72938C126.283 10.2809 125.099 11.5794 123.669 12.6642C123.417 12.855 123.233 12.8855 122.935 12.7481C120.793 11.7524 119.002 10.3204 117.49 8.44451Z" fill="#FEFEFE"/>
<path d="M130.977 41.509C130.819 42.253 130.917 43.0262 130.688 43.8198H114.908C114.887 43.7575 114.865 43.7015 114.848 43.6443C114.548 42.6015 114.62 41.7151 115.837 41.3119C115.501 41.317 115.164 41.3373 114.845 41.256C114.815 41.2038 114.781 41.1695 114.776 41.1313C114.519 39.3992 114.515 39.3877 116.13 38.6692C116.863 38.3436 117.615 38.06 118.367 37.7879C118.659 37.6823 118.861 37.5615 118.829 37.2194C118.823 32.9539 118.818 28.6884 118.813 24.4229C118.811 23.6204 118.809 22.818 118.807 22.0155C118.806 21.8056 118.844 21.5487 118.533 21.5551C118.256 21.5615 118.327 21.8171 118.295 21.99C118.114 22.9706 118.102 23.988 117.676 24.9164C117.616 26.0393 117.181 27.0656 116.824 28.1085C116.502 29.0509 116.597 28.8932 115.671 28.8982C114.74 28.9021 113.807 28.8639 112.879 28.9148C112.385 28.9415 112.262 28.691 112.197 28.3145C111.885 26.4781 111.575 24.6417 111.256 22.7493C110.652 23.0609 110.193 23.4933 109.719 23.8939C108.378 25.0296 107.162 26.2924 106.001 27.6125C105.739 27.9114 105.682 28.228 105.682 28.5981C105.678 31.2612 105.666 33.9243 105.657 36.5873C106.025 36.8747 106.485 36.8646 106.91 36.9612C108.268 37.2664 109.577 37.7192 110.875 38.2177C111.44 38.4352 111.687 38.7646 111.537 39.3534C111.457 39.6663 111.569 40.0262 111.31 40.2958C111.313 40.3301 111.307 40.3619 111.291 40.3924C111.307 40.6328 111.323 40.8719 111.34 41.1122C111.584 41.1097 111.598 41.2661 111.584 41.4543C111.522 42.2289 111.463 43.0034 111.406 43.755C111.15 43.9177 110.911 43.8542 110.686 43.8554C107.004 43.8643 103.322 43.8682 99.6407 43.8694C95.2608 43.872 90.8809 43.8592 86.5022 43.8872C85.9006 43.891 85.5585 43.6888 85.219 43.2094C81.6809 38.2164 78.12 33.24 74.5641 28.2598C74.5273 28.209 74.4777 28.1683 74.5069 28.2001C73.7515 28.8906 72.9961 29.5786 72.2445 30.2718C72.2 30.3137 72.1732 30.3608 72.1593 30.4116C72.1516 30.5999 72.1465 30.7881 72.1427 30.9763C72.1414 30.9852 72.1414 30.9928 72.1427 31.0017C72.1364 33.118 72.1338 35.2329 72.1287 37.3491C72.1287 37.5195 72.1427 37.6861 72.2267 37.84C73.5747 38.0257 74.9215 38.2164 76.2709 38.3932C77.0085 38.4899 76.6498 39.0367 76.7083 39.4132C76.7529 40.8655 76.7846 42.3191 76.7147 43.7995C76.4095 43.9088 76.1132 43.8643 75.8257 43.8643C70.5772 43.8682 65.3274 43.8567 60.0788 43.8796C59.4963 43.8821 59.1415 43.7906 59.1619 43.1305C59.1657 43.0339 59.097 42.936 59.0423 42.7833C58.0491 43.2997 57.0495 43.7473 56.1262 44.3184C55.2703 44.8474 54.4881 44.7266 53.6945 44.2916C52.2053 43.4764 51.104 42.2797 50.3282 40.7778C50.2315 40.5921 50.14 40.4039 50.0281 40.1788C48.4167 41.2547 46.7978 42.2632 45.0656 43.0835C43.9796 43.5985 42.8617 44.022 41.7349 44.4341C40.8459 44.7584 39.9824 44.7508 39.0795 44.4811C37.0803 43.8834 35.4041 42.8279 34.1107 41.1746C33.6669 40.6086 33.4163 39.9651 33.3095 39.2784C33.1111 38.0053 32.9839 36.7234 33.0437 35.43C32.8809 31.3324 32.9814 27.2335 32.9598 23.1359C32.9572 22.6285 32.9369 22.1223 32.9254 21.6149C31.6537 21.4457 30.3819 21.2766 29.1089 21.1087C28.9143 21.082 28.749 21.1036 28.6052 21.2779C26.5666 23.7502 24.5216 26.2161 22.4804 28.6859C22.441 28.7329 22.4219 28.7978 22.394 28.8537C23.8616 31.0017 25.2999 33.1688 26.8057 35.2889C27.7799 36.6636 29.1635 37.2982 30.8664 37.1978C31.0496 37.1876 31.2391 37.1049 31.4807 37.2461C31.613 38.0549 31.7554 38.9045 31.8902 39.754C31.9195 39.941 31.9627 40.1508 31.6715 40.18C31.6435 41.0067 31.9093 41.7952 31.9907 42.6587C31.1691 42.9296 30.2865 43.0084 29.4281 43.1776C27.467 43.5629 25.4958 43.8872 23.536 44.2713C23.1163 44.3527 22.8035 44.2802 22.4855 44.0246C21.3855 43.1369 20.5614 42.0139 19.8212 40.8337C18.3091 38.425 16.8236 35.9998 15.3471 33.5707C15.1462 33.24 14.9465 33.0976 14.5472 33.1408C13.8871 33.2121 13.2106 33.1459 12.5887 33.4524C12.5925 34.55 12.6103 35.6475 12.5938 36.745C12.5887 37.0986 12.7082 37.2792 13.0427 37.3898C13.7854 37.6365 14.4925 37.971 15.1894 38.3258C15.5074 38.4873 15.6435 38.6934 15.5786 39.0812C15.4794 39.6828 15.4565 40.2983 15.4005 40.9075C15.5595 41.0588 15.6536 41.2267 15.632 41.4645C15.571 42.1373 15.5226 42.81 15.4807 43.4854C15.4552 43.8885 15.1818 43.8669 14.8944 43.8669C13.1597 43.8669 11.425 43.8745 9.68906 43.8745C6.89628 43.8758 4.10349 43.872 1.3107 43.8707H0.66083C0.641754 43.7117 0.645569 43.6062 0.615047 43.5121C0.274215 42.4603 0.52348 41.6871 1.64263 41.3208H0.58834C0.527296 40.7256 0.466251 40.1889 0.419196 39.6497C0.395032 39.3725 0.645569 39.3241 0.818529 39.2249C1.80923 38.6603 2.87242 38.2622 3.93943 37.8705C4.13147 37.8006 4.3553 37.7879 4.48502 37.592C4.4812 31.9454 4.47739 26.2988 4.47484 20.6521C4.4723 16.6766 4.46085 12.6998 4.47866 8.7243C4.47866 8.62256 4.47357 8.5348 4.46085 8.45977C4.40744 8.14692 4.22431 8.04518 3.80335 8.01847C2.68929 7.94852 1.58031 7.78447 0.401391 7.65093C0.36451 6.5941 -0.206511 5.57287 0.280574 4.48806C0.191551 3.94756 0.107614 3.40579 0.0135039 2.86656C-0.0360947 2.57533 0.045298 2.41382 0.351792 2.30699C2.74652 1.47144 5.20483 0.97927 7.71783 0.624449C9.28973 0.403162 10.4521 0.752897 11.4326 1.94835C11.7239 2.30317 12.1067 2.58169 12.4475 2.89454C12.6701 3.05097 12.5696 3.2837 12.5696 3.47955C12.5823 11.2589 12.59 19.0383 12.5989 26.8164C12.5989 27.1127 12.6103 27.409 12.6179 27.7041C13.4458 27.3238 14.2483 26.8736 14.8321 26.1754C16.1852 24.5552 17.4811 22.8879 18.8012 21.2397C18.2417 21.1278 17.6745 21.0922 17.0526 21.11C16.83 20.2821 16.7461 19.4541 16.6405 18.63C16.6189 18.4647 16.7295 18.4126 16.8669 18.3922C16.8745 17.5681 16.624 16.7733 16.5871 15.897C17.5842 15.5079 18.6384 15.2357 19.7016 14.9839C22.0938 14.418 24.5165 14.0886 26.9723 13.9741C27.3653 13.9563 27.5904 14.0695 27.7799 14.4091C28.0355 14.8682 28.3483 15.2955 28.6612 15.7749C29.835 15.3883 30.986 14.9903 32.1738 14.713C34.0535 14.2743 35.9535 14.0225 37.8827 13.9729C38.2032 13.964 38.4372 14.0403 38.6738 14.2628C39.3529 14.8974 40.0422 15.5231 40.7607 16.1132C41.0456 16.346 41.0253 16.6105 41.0265 16.9017C41.0405 21.6785 41.0532 26.4565 41.0723 31.2332C41.0749 32.0993 41.0571 32.9679 41.2885 33.8149C41.7565 35.5229 42.849 36.3609 44.6142 36.3495C46.1975 36.3381 47.6295 35.7696 49.0437 35.1311C49.3947 34.9735 49.3121 34.6898 49.3121 34.4317C49.3172 31.4087 49.3159 28.3857 49.3133 25.3628C49.3121 24.0948 49.3032 22.8256 49.2981 21.5576C48.1662 21.3567 47.0356 21.1558 45.8974 20.9536C45.7702 20.1612 45.6481 19.3969 45.5222 18.6326C45.493 18.4545 45.4561 18.2854 45.7232 18.2867C45.7257 17.998 45.727 17.7093 45.7295 17.4206C45.6011 17.2146 45.6227 16.9793 45.5909 16.7529C45.4281 15.6185 45.4599 15.5765 46.6388 15.4074C48.5248 14.6253 50.5419 14.446 52.5233 14.0771C54.0735 13.7885 55.2626 14.1522 56.2533 15.3527C56.5573 15.7215 56.9999 15.9682 57.2975 16.3561C57.4819 16.6258 57.3979 16.931 57.3979 17.2184C57.4183 23.0723 57.431 28.925 57.4424 34.7789C57.4437 35.1808 57.4284 35.5826 57.595 35.9616C57.9969 36.4169 58.5031 36.5326 59.0881 36.4487C59.7367 36.3546 60.3916 36.3088 61.039 36.2071C61.4078 36.1486 61.5807 36.2376 61.6329 36.6306C61.6901 37.0642 61.8173 37.489 61.9241 37.9621C62.4341 37.7548 62.897 37.5513 63.3701 37.3784C63.7033 37.2563 63.6448 36.9943 63.6448 36.7488C63.6435 34.9302 63.6397 33.1129 63.6397 31.2955C63.6385 24.4903 63.6385 17.6851 63.6372 10.8799C62.2332 10.5505 60.7808 10.4997 59.3679 10.2034V7.64966C59.2483 6.74798 59.3717 5.84884 59.3424 4.9815C59.5485 4.80091 59.7481 4.85941 59.9287 4.85941C65.1938 4.85178 70.4576 4.8556 75.7215 4.83271C76.2391 4.83144 76.5112 4.92809 76.5227 5.50038C76.5303 5.85012 76.6549 6.19858 76.735 6.58901C76.3014 6.85608 75.8613 7.12824 75.42 7.40039H76.4476C76.468 7.5174 76.482 7.59497 76.4934 7.67382C76.5634 8.17108 76.9029 8.73829 76.6905 9.14016C76.4553 9.58528 75.8028 9.71754 75.3259 9.97444C74.4739 10.4335 73.6065 10.871 72.6921 11.189C72.3309 11.3149 72.1745 11.4827 72.1351 11.8058C72.1325 11.8325 72.13 11.8579 72.1275 11.8846C72.1262 11.9215 72.1249 11.9609 72.1249 12.0029C72.144 15.0271 72.13 18.0514 72.1262 21.0769C72.4746 21.0159 72.612 20.6992 72.818 20.4805C75.9466 17.1484 79.0662 13.8063 82.1884 10.4666C81.9849 10.4208 81.7839 10.3598 81.5792 10.3305C80.6737 10.2008 80.6762 10.2034 80.7296 9.27115C80.7627 8.6925 80.8645 8.11258 80.6991 7.53774V4.89502H94.438C94.4647 4.92809 94.5054 4.95734 94.5092 4.99168C94.569 5.5131 94.8983 6.04342 94.7483 6.52924C94.5893 7.04557 93.8771 7.03285 93.4981 7.38895H94.4965C94.555 7.64711 94.6198 7.88493 94.6618 8.1253C94.864 9.27624 94.8678 9.28896 93.7995 9.77223C92.9182 10.1703 92.042 10.6014 91.1238 10.8876C90.4128 11.1101 89.9308 11.5514 89.4527 12.0576C86.6217 15.0539 83.787 18.0438 80.9535 21.0362C81.48 21.901 82.1248 22.6793 82.7276 23.4894C86.1677 28.1136 89.618 32.7313 93.053 37.3605C93.3264 37.7294 93.6342 37.9367 94.092 37.9684C94.4494 37.9939 94.8144 38.0371 95.154 38.144C95.9425 38.3919 96.5885 37.9735 97.2842 37.7599C97.5601 37.6747 97.5016 37.4318 97.5729 37.2486C97.5639 35.3741 97.5474 33.4995 97.5474 31.6262C97.5462 28.3806 97.5551 25.1364 97.5601 21.8921C97.5322 21.7942 97.5042 21.6963 97.4762 21.5996C96.1472 21.4267 94.8182 21.2537 93.4435 21.0756C93.3175 20.2783 93.2056 19.4745 93.0568 18.6784C93.0034 18.391 93.2133 18.3808 93.3557 18.2829C93.2501 17.6406 93.1624 16.9946 93.0339 16.3561C92.9602 15.9886 93.0975 15.8284 93.4307 15.7063C95.6194 14.9025 97.8654 14.3569 100.185 14.1267C100.794 14.067 101.414 14.081 102.014 13.9767C102.787 13.8431 103.302 14.1725 103.728 14.7512C104.27 15.2205 104.805 15.6986 105.356 16.1577C105.586 16.3485 105.588 16.5838 105.591 16.842C105.604 17.8772 105.623 18.9124 105.642 19.9476C105.647 20.1778 105.631 20.4131 105.757 20.7056C106.591 19.7721 107.402 18.8666 108.212 17.9598C108.987 17.0925 109.805 16.2582 110.521 15.3464C111.12 14.5833 111.925 14.362 112.788 14.2704C114.232 14.1178 115.661 14.17 117.008 14.8148C117.232 14.9216 117.444 14.8682 117.679 14.8084C119.653 14.3111 121.657 14.0263 123.695 13.969C124.034 13.9601 124.293 14.0275 124.547 14.2692C125.129 14.8224 125.726 15.3642 126.354 15.8652C126.776 16.2023 126.911 16.5914 126.91 17.1179C126.902 21.6009 126.917 26.0826 126.924 30.5655C126.928 32.4897 126.94 34.4139 126.919 36.3381C126.914 36.7984 127.064 36.9981 127.51 37.1304C128.44 37.4038 129.338 37.7802 130.209 38.2139C130.934 38.5751 131.043 38.7811 130.836 39.5543C130.702 40.0491 130.759 40.5527 130.714 41.0512C131.035 41.0677 131.02 41.3017 130.977 41.509Z" fill="#FEFEFE"/>
<path d="M130.836 39.5543C130.702 40.049 130.759 40.5527 130.714 41.0512C130.731 41.378 130.481 41.4124 130.256 41.4594C130.049 41.5039 129.835 41.4925 129.622 41.4925C125.352 41.4938 121.081 41.495 116.811 41.49C116.479 41.49 116.128 41.551 115.837 41.3119C115.501 41.317 115.164 41.3373 114.845 41.2559C114.815 41.2038 114.781 41.1695 114.776 41.1313C114.519 39.3992 114.515 39.3877 116.13 38.6692C116.863 38.3436 117.615 38.06 118.367 37.7879C118.659 37.6823 118.861 37.5615 118.829 37.2194C118.9 36.9917 118.865 36.7577 118.865 36.5275C118.867 32.0675 118.853 27.6061 118.877 23.1461C118.882 22.1096 118.704 21.0896 118.708 20.0557C118.708 19.8319 118.692 19.5877 118.481 19.3791C118.281 19.636 118.309 19.9425 118.259 20.2172C117.946 21.9735 117.593 23.7196 116.996 25.4047C116.937 25.5777 116.873 25.7506 116.807 25.9223C116.761 26.0419 116.708 26.1551 116.628 26.2555C116.621 26.2619 116.615 26.2682 116.609 26.2746C116.591 26.2937 116.572 26.3102 116.553 26.3255C116.545 26.3318 116.536 26.3382 116.528 26.3433H116.527C116.333 26.4794 116.095 26.4717 115.862 26.473C115.023 26.4781 114.183 26.4806 113.344 26.4768C113.232 26.4755 113.12 26.4755 113.008 26.4743C112.276 26.4679 112.132 26.3306 112.021 25.6095C111.794 24.1266 111.491 22.6577 111.206 21.1863C111.168 20.9879 111.179 20.7577 110.897 20.5631C109.029 22.1083 107.243 23.7616 105.725 25.6896C105.678 25.949 105.633 26.2085 105.593 26.4679C105.432 27.5082 105.351 28.5485 105.497 29.6206C105.706 31.1429 105.467 32.6817 105.481 34.2155C105.484 34.6339 105.546 35.0472 105.584 35.4618V35.4631C105.612 35.7772 105.627 36.0913 105.594 36.408C105.601 36.4678 105.615 36.5263 105.635 36.5835C105.635 36.586 105.636 36.5886 105.637 36.5911C105.638 36.5962 105.641 36.6013 105.642 36.6064C105.918 36.9421 106.345 36.9752 106.712 37.0464C108.145 37.3249 109.478 37.8972 110.841 38.3805C111.477 38.6056 111.593 38.8409 111.424 39.492C111.354 39.7616 111.434 40.0414 111.31 40.2958C111.313 40.3301 111.307 40.3619 111.291 40.3924C111.127 40.9596 111.056 41.186 110.799 41.2763C110.797 41.2776 110.794 41.2788 110.792 41.2788C110.63 41.3335 110.395 41.3361 110.021 41.3361C104.292 41.3386 98.5623 41.359 92.833 41.317C91.8665 41.3106 90.8999 41.3106 89.9359 41.3462C89.4094 41.3653 88.888 41.3323 88.3653 41.2916C88.2 41.2788 88.0346 41.2661 87.8693 41.2521C87.442 41.2191 87.0147 41.1898 86.5848 41.1885C86.0799 41.1873 85.6272 41.0334 85.2775 40.7027C85.1528 40.5845 85.0422 40.4446 84.9455 40.2792C84.9226 40.2513 84.901 40.222 84.8781 40.1928C84.859 40.1699 84.8412 40.1457 84.8234 40.1215C83.8912 38.9235 83.0417 37.6645 82.1655 36.4258C81.5601 35.5686 80.9624 34.7051 80.3608 33.8454C80.3443 33.8238 80.329 33.8022 80.3138 33.7793C80.0404 33.3914 79.7669 33.0048 79.4909 32.6194C79.1399 32.1298 78.7851 31.6427 78.4239 31.1607C77.1954 29.5214 76.0763 27.8033 74.807 26.1945C74.6799 26.0342 74.5641 25.8575 74.3759 25.7239C74.3543 25.7074 74.3327 25.6921 74.3085 25.6781C74.2907 25.6883 74.2742 25.6985 74.2577 25.7087C74.0402 25.8435 73.8659 26.0164 73.7235 26.2186C73.6269 26.3547 73.5442 26.5048 73.473 26.6638C72.5077 27.4942 72.2457 28.5294 72.1834 29.8025C72.1732 30.0059 72.1656 30.2082 72.1592 30.4116C72.1516 30.5999 72.1465 30.7881 72.1427 30.9763C72.1414 30.9852 72.1414 30.9928 72.1427 31.0017C72.0893 33.221 72.1656 35.4376 72.1058 37.6543C72.1058 37.7001 72.1096 37.7408 72.1274 37.7726C72.1274 37.7739 72.1274 37.7739 72.1287 37.7751C72.1465 37.8069 72.177 37.8286 72.2266 37.84C73.5747 38.0257 74.9215 38.2164 76.2708 38.3932C77.0085 38.4899 76.6498 39.0367 76.7083 39.4132C76.6435 39.9181 76.674 40.4268 76.6867 40.9329C76.6969 41.2954 76.5328 41.4289 76.206 41.4493C75.9949 41.4632 75.7838 41.462 75.5714 41.462C70.511 41.4632 65.4507 41.462 60.3916 41.4645C59.813 41.4645 59.2636 41.4976 58.9317 40.8426C58.7562 40.498 58.395 40.7015 58.1419 40.8414C57.4017 41.2521 56.6272 41.6006 55.9023 42.0368C55.2563 42.4272 54.6204 42.4018 53.9654 42.0902C52.3834 41.3373 51.2222 40.1304 50.3167 38.6666C49.9403 38.0575 49.8386 37.9773 49.2332 38.3551C47.7427 39.2847 46.2509 40.2093 44.6282 40.9011C43.4581 41.3997 42.2792 41.8651 41.0647 42.2416C40.0536 42.5544 39.138 42.1614 38.2287 41.8321C36.7776 41.3068 35.5058 40.5056 34.4503 39.3483C33.5855 38.3996 33.0513 37.3567 33.0984 36.0506C33.1047 35.8446 33.1556 35.6284 33.0437 35.43C32.8809 31.3324 32.9814 27.2335 32.9598 23.1359C32.9572 22.6285 32.9369 22.1223 32.9254 21.6149C32.5795 21.1367 32.7766 20.5924 32.7563 20.0811C32.7194 19.1807 32.7423 19.1985 31.8546 19.093C31.0572 18.9976 30.2573 18.92 29.4688 18.7674C28.9779 18.672 28.6358 18.8246 28.3204 19.2252C26.3746 21.6988 24.308 24.0719 22.3215 26.5124C22.2019 26.6599 22.0824 26.8075 21.9577 26.9524C21.6869 27.2691 21.6373 27.5794 21.9298 27.9126C22.1663 28.1835 22.2846 28.518 22.394 28.8537C23.8616 31.0017 25.2999 33.1688 26.8057 35.2888C27.7799 36.6636 29.1635 37.2982 30.8664 37.1978C31.0496 37.1876 31.2391 37.1049 31.4807 37.2461C31.613 38.0549 31.7554 38.9045 31.8902 39.754C31.9194 39.9409 31.9627 40.1508 31.6715 40.18C31.4362 40.4217 31.1271 40.4891 30.813 40.5412C28.4552 40.9355 26.1011 41.3564 23.7636 41.86C23.1735 41.9872 22.7081 41.8689 22.2375 41.4912C20.8526 40.3797 19.9522 38.8943 19.0467 37.4203C17.7851 35.3677 16.5121 33.3214 15.239 31.2764C14.9211 30.7665 13.3708 30.5986 12.9104 30.9877C12.7209 31.1493 12.7667 31.3693 12.7502 31.5766C12.6993 32.201 12.8812 32.8471 12.5887 33.4524C12.5925 34.55 12.6103 35.6475 12.5938 36.745C12.5887 37.0986 12.7082 37.2792 13.0427 37.3898C13.7854 37.6365 14.4925 37.971 15.1894 38.3258C15.5074 38.4873 15.6434 38.6933 15.5786 39.0812C15.4794 39.6828 15.4565 40.2983 15.4005 40.9075C15.4934 41.247 15.2683 41.3615 15.0114 41.4378C14.8079 41.4976 14.593 41.4912 14.3831 41.4912C10.4191 41.495 6.45497 41.495 2.49217 41.49C2.20093 41.49 1.89571 41.5243 1.64263 41.3208H0.58834C0.527295 40.7256 0.466251 40.1889 0.419196 39.6497C0.395032 39.3725 0.645569 39.3241 0.818529 39.2249C1.80923 38.6603 2.87242 38.2622 3.93943 37.8705C4.13147 37.8006 4.3553 37.7879 4.48502 37.592C4.54225 37.3415 4.513 37.0871 4.513 36.834C4.51427 27.6417 4.50536 18.4482 4.52444 9.25589C4.52571 8.98755 4.49901 8.72302 4.46085 8.45977C4.35021 7.68272 4.1391 6.92094 4.21413 6.12609C4.24465 5.80306 3.97758 5.71404 3.71179 5.66571C3.02376 5.53981 2.32048 5.56015 1.63118 5.44697C1.4862 5.42408 1.33614 5.42535 1.18988 5.40373C0.41538 5.29436 0.363238 5.24094 0.280574 4.48806C0.191551 3.94756 0.107614 3.40579 0.0135039 2.86656C-0.0360947 2.57533 0.0452979 2.41382 0.351792 2.30699C2.74652 1.47144 5.20483 0.97927 7.71783 0.624449C9.28973 0.403162 10.4521 0.752897 11.4326 1.94835C11.7239 2.30317 12.1067 2.58169 12.4475 2.89454C12.5721 3.13491 12.5111 3.39434 12.5124 3.64361C12.5149 11.4446 12.5136 19.2469 12.5213 27.0491C12.5213 27.2653 12.4081 27.5133 12.6179 27.7041C13.4458 27.3238 14.2483 26.8736 14.8321 26.1754C16.1852 24.5552 17.4811 22.8879 18.8012 21.2397C18.9424 20.5924 19.4956 20.2147 19.8225 19.6894C19.9624 19.463 20.2116 19.3041 20.2447 19.0027C20.0895 18.7954 19.8619 18.8564 19.6686 18.8679C18.9093 18.9124 18.1666 18.728 17.4112 18.7178C17.1836 18.7153 16.9406 18.6796 16.8669 18.3922C16.8745 17.5681 16.624 16.7733 16.5871 15.897C17.5842 15.5079 18.6384 15.2357 19.7016 14.9839C22.0938 14.418 24.5165 14.0886 26.9723 13.9741C27.3653 13.9563 27.5904 14.0695 27.7799 14.4091C28.0355 14.8682 28.3483 15.2955 28.6612 15.7749C29.835 15.3883 30.986 14.9903 32.1738 14.713C34.0535 14.2743 35.9535 14.0225 37.8827 13.9729C38.2032 13.964 38.4372 14.0403 38.6738 14.2628C39.3529 14.8974 40.0422 15.5231 40.7607 16.1132C41.0456 16.346 41.0253 16.6105 41.0265 16.9017C41.0405 21.6785 41.0532 26.4565 41.0723 31.2332C41.0749 32.0993 41.0571 32.9679 41.2885 33.8149C41.7565 35.5228 42.849 36.3609 44.6142 36.3495C46.1975 36.338 47.6295 35.7696 49.0437 35.1311C49.3947 34.9734 49.3121 34.6898 49.3121 34.4317C49.3171 31.4087 49.3159 28.3857 49.3133 25.3627C49.3121 24.0948 49.3032 22.8256 49.2981 21.5576C48.9865 21.0515 49.1391 20.4906 49.1187 19.9539C49.0895 19.1909 49.0628 19.1477 48.3264 19.0116C47.8101 18.9162 47.2772 18.9098 46.7774 18.7242C46.5523 18.7 46.373 18.6415 46.2318 18.5525C46.1708 18.513 46.1174 18.4685 46.0703 18.4189C45.8592 18.1951 45.7867 17.8657 45.8071 17.4664C45.8071 17.4651 45.8071 17.4651 45.8071 17.4638C45.8058 17.4499 45.8045 17.4359 45.8007 17.4219C45.7931 17.3761 45.7778 17.3303 45.7715 17.2845C45.5464 15.9263 45.4891 15.911 46.6388 15.4074C48.5248 14.6253 50.5418 14.4459 52.5233 14.0771C54.0735 13.7884 55.2626 14.1522 56.2533 15.3527C56.5573 15.7215 56.9999 15.9682 57.2974 16.3561C57.4284 16.594 57.3636 16.8534 57.3636 17.1014C57.3674 23.0952 57.3661 29.0877 57.3674 35.0815C57.3674 35.3931 57.3038 35.7238 57.595 35.9616C57.9969 36.4169 58.5031 36.5326 59.0881 36.4487C59.7367 36.3546 60.3916 36.3088 61.039 36.2071C61.4078 36.1486 61.5807 36.2376 61.6329 36.6306C61.6901 37.0642 61.8173 37.489 61.9241 37.9621C62.4341 37.7548 62.897 37.5513 63.3701 37.3783C63.7033 37.2563 63.6448 36.9943 63.6448 36.7488C63.6435 34.9302 63.6397 33.1129 63.6397 31.2955C63.6384 24.4903 63.6384 17.6851 63.6372 10.8799C63.3828 10.4526 63.482 9.9808 63.4757 9.52551C63.4604 8.48775 63.4642 8.48266 62.4659 8.31988C61.699 8.19397 60.9245 8.1253 60.1576 7.99685C59.86 7.94598 59.5853 7.86967 59.3679 7.64966C59.2483 6.74798 59.3717 5.84884 59.3424 4.9815C59.5485 4.80091 59.7481 4.85941 59.9287 4.85941C65.1938 4.85178 70.4576 4.8556 75.7214 4.83271C76.2391 4.83143 76.5112 4.92809 76.5227 5.50038C76.5303 5.85012 76.6549 6.19858 76.735 6.58901C76.3014 6.85608 75.8613 7.12824 75.42 7.40039C74.8172 8.03627 73.9944 8.283 73.2237 8.60475C72.2508 9.00917 72.2381 8.98119 72.3309 10.0279C72.3462 10.197 72.3704 10.3687 72.3335 10.5327C72.2381 10.9562 72.1745 11.3797 72.1351 11.8058C72.1325 11.8325 72.13 11.8579 72.1274 11.8846C71.985 13.5087 72.1643 15.1454 72.116 16.772C72.074 18.2053 72.0766 19.6411 72.1262 21.0769C72.4746 21.0159 72.612 20.6992 72.818 20.4805C75.9465 17.1484 79.0662 13.8063 82.1884 10.4666C82.2023 10.0584 82.5343 9.85998 82.7619 9.59291C83.0837 9.2152 83.5453 8.95321 83.7628 8.39364C83.1867 8.10622 82.5661 8.16726 81.9849 8.05916C81.5219 7.97141 80.9891 8.05281 80.6991 7.53774V4.89502H94.438C94.4647 4.92809 94.5054 4.95734 94.5092 4.99168C94.5689 5.5131 94.8983 6.04342 94.7483 6.52924C94.5893 7.04557 93.8771 7.03285 93.4981 7.38895C92.8432 7.95488 91.9949 8.12275 91.228 8.44451C90.6697 8.67978 90.1839 8.95448 89.7604 9.38815C87.8172 11.381 85.9553 13.4489 84.0337 15.4608C82.884 16.6639 81.7153 17.8466 80.6292 19.1095C80.2413 19.561 80.2451 19.898 80.5961 20.3189C80.7703 20.525 80.9687 20.731 80.9535 21.0362C81.48 21.901 82.1248 22.6793 82.7276 23.4894C86.1677 28.1136 89.618 32.7313 93.053 37.3605C93.3264 37.7294 93.6342 37.9366 94.092 37.9684C94.4494 37.9939 94.8144 38.0371 95.154 38.1439C95.9425 38.3919 96.5885 37.9735 97.2842 37.7599C97.5601 37.6747 97.5016 37.4318 97.5728 37.2486C97.7191 37.0362 97.6428 36.7959 97.6441 36.5708C97.6504 33.7398 97.639 30.9076 97.6504 28.0754C97.6581 26.197 97.6364 24.3199 97.6466 22.4415C97.6479 22.2393 97.6695 22.0333 97.6224 21.8336C97.6174 21.8056 97.6097 21.7777 97.6008 21.7509V21.7471C97.5728 21.6149 97.555 21.4826 97.5449 21.3491C97.5143 20.9586 97.5436 20.5644 97.5385 20.1727C97.536 19.9679 97.5182 19.7848 97.4813 19.6258C97.4813 19.6246 97.4813 19.6246 97.4813 19.6246C97.4177 19.3511 97.302 19.1464 97.1226 19.0065C97.1226 19.0065 97.1226 19.0052 97.1214 19.0052C97.0552 18.9531 96.9789 18.9098 96.8925 18.8755C96.6801 18.7903 96.4105 18.7623 96.0747 18.7903C96.0671 18.7916 96.0582 18.7916 96.0506 18.7916C95.6283 18.8234 95.2366 18.7445 94.8526 18.644C94.6427 18.5893 94.4341 18.527 94.2243 18.4723C93.5846 18.3083 93.2959 18.087 93.3086 17.3201C93.3264 16.3956 93.5833 15.8322 94.2294 15.6198C96.2718 14.9458 98.3448 14.404 100.502 14.2501C100.817 14.2285 101.13 14.1878 101.443 14.1395C102.294 14.0085 103.076 14.142 103.728 14.7512C104.27 15.2205 104.805 15.6986 105.356 16.1577C105.586 16.3485 105.587 16.5838 105.591 16.8419C105.604 17.8772 105.623 18.9124 105.642 19.9476C105.647 20.1778 105.631 20.4131 105.757 20.7056C106.591 19.7721 107.402 18.8666 108.212 17.9598C108.987 17.0925 109.805 16.2582 110.521 15.3464C111.12 14.5833 111.925 14.362 112.788 14.2704C114.232 14.1178 115.661 14.17 117.008 14.8148C117.232 14.9216 117.444 14.8682 117.679 14.8084C119.653 14.3111 121.657 14.0263 123.695 13.969C124.034 13.9601 124.293 14.0275 124.547 14.2692C125.129 14.8224 125.726 15.3642 126.354 15.8652C126.776 16.2023 126.911 16.5914 126.91 17.1179C126.902 21.6009 126.917 26.0826 126.924 30.5655C126.928 32.4897 126.94 34.4139 126.919 36.338C126.914 36.7984 127.064 36.9981 127.51 37.1304C128.44 37.4038 129.338 37.7802 130.209 38.2139C130.934 38.5751 131.043 38.7811 130.836 39.5543Z" fill="#FE1616"/>
<path d="M119.994 60.3349C117.248 60.5537 114.491 60.4163 111.74 60.4188C86.8585 60.4341 61.9765 60.4341 37.0957 60.4341C29.0277 60.4341 20.9596 60.4099 12.8916 60.4188C10.9636 60.4214 9.30137 59.8364 8.06776 58.337C6.61414 56.5705 6.28094 54.5598 7.10631 52.4157C7.91515 50.3147 9.4756 49.1154 11.7025 48.7517C12.1667 48.6767 12.6245 48.6487 13.0887 48.6487H119.18C121.923 48.65 124.218 50.2689 124.94 52.8977C126.002 56.76 123.38 60.0653 119.994 60.3349Z" fill="black"/>
<path d="M76.7147 43.7995C76.4094 43.9088 76.1131 43.8643 75.8257 43.8643C70.5771 43.8681 65.3273 43.8567 60.0788 43.8796C59.4963 43.8821 59.1415 43.7906 59.1618 43.1305C59.1656 43.0339 59.097 42.9359 59.0423 42.7833C58.049 43.2997 57.0494 43.7473 56.1261 44.3183C55.2702 44.8474 54.4881 44.7266 53.6945 44.2916C52.2053 43.4764 51.1039 42.2797 50.3282 40.7778C50.2315 40.5921 50.1399 40.4039 50.028 40.1788C48.4167 41.2547 46.7978 42.2632 45.0656 43.0835C43.9795 43.5985 42.8617 44.022 41.7349 44.4341C40.8459 44.7584 39.9824 44.7507 39.0794 44.4811C37.0802 43.8834 35.404 42.8278 34.1107 41.1746C33.6668 40.6086 33.4163 39.9651 33.3095 39.2784C33.1111 38.0053 32.9839 36.7234 33.0437 35.43C33.2001 35.6093 33.153 35.8319 33.1568 36.0366C33.1861 37.2334 33.6961 38.219 34.4617 39.1054C35.8568 40.7231 37.683 41.5879 39.7001 42.1182C40.1986 42.2492 40.7022 42.1869 41.1982 42.0254C43.5141 41.2712 45.7371 40.3098 47.8177 39.0367C48.3569 38.7073 48.8873 38.3652 49.4278 38.0371C49.9314 37.7319 50.0573 37.784 50.3472 38.322C51.1891 39.8875 52.3871 41.0995 53.9807 41.9045C54.6013 42.2187 55.1888 42.2797 55.8323 41.8664C56.5585 41.3997 57.3457 41.027 58.119 40.6391C58.8286 40.2843 59.0792 40.283 59.2407 41.0054C59.2839 41.2 59.4213 41.2827 59.6069 41.2941C59.7341 41.3017 59.8613 41.3017 59.9885 41.3017C65.1938 41.303 70.4004 41.3043 75.6057 41.3005C75.9185 41.3005 76.239 41.3424 76.5786 41.2076C76.7198 40.6226 76.5353 40.0007 76.7083 39.4132C76.7528 40.8655 76.7846 42.3191 76.7147 43.7995Z" fill="#575554"/>
<path d="M111.584 41.4543C111.522 42.2288 111.463 43.0033 111.406 43.755C111.15 43.9177 110.911 43.8542 110.686 43.8554C107.005 43.8643 103.323 43.8682 99.641 43.8694C95.2611 43.872 90.8811 43.8592 86.5024 43.8872C85.9009 43.891 85.5588 43.6888 85.2192 43.2094C81.6812 38.2164 78.1203 33.24 74.5644 28.2598C74.5275 28.209 74.4779 28.1683 74.5072 28.2C73.7518 28.8906 72.9963 29.5786 72.2447 30.2717C72.2002 30.3137 72.1735 30.3608 72.1595 30.4116C72.1265 30.5185 72.143 30.6406 72.143 30.7525V30.9763C72.1417 30.9852 72.1417 30.9928 72.143 31.0017C72.1366 33.1179 72.1341 35.2329 72.129 37.3491C72.129 37.5195 72.143 37.6861 72.2269 37.84C72.1862 37.8209 72.1544 37.798 72.129 37.7751C72.1277 37.7739 72.1277 37.7739 72.1277 37.7726C71.97 37.6251 72.0616 37.4025 72.0616 37.2219C72.054 34.5576 72.0819 31.892 72.0463 29.2276C72.0336 28.2827 72.1989 27.479 73.0129 26.899C73.1807 26.7795 73.3003 26.5925 73.4427 26.4361C73.8166 25.9668 74.043 25.7239 74.2579 25.7087C74.2973 25.7061 74.3368 25.7112 74.3762 25.7239C74.5682 25.785 74.7692 26.033 75.0795 26.4679C76.3385 28.2293 77.6459 29.9563 78.8757 31.7355C79.0792 32.0306 79.2852 32.3256 79.4912 32.6194C79.7634 33.0073 80.0381 33.3939 80.3141 33.7793C80.3293 33.8022 80.3446 33.8238 80.3611 33.8454C81.7677 35.8166 83.2022 37.7688 84.5732 39.7654C84.6533 39.8812 84.7321 39.9969 84.8263 40.1025C84.8441 40.1215 84.8606 40.1406 84.8797 40.1584C84.9102 40.1902 84.9433 40.2207 84.9789 40.25C85.0984 40.3873 85.1747 40.5539 85.2777 40.7027C85.2943 40.7282 85.3121 40.7523 85.3311 40.7752C85.6275 41.1288 86.0141 41.2318 86.4617 41.2369C86.931 41.242 87.4003 41.2483 87.8696 41.2521C89.5483 41.2687 91.2283 41.2788 92.907 41.2839C98.7559 41.3043 104.602 41.2712 110.45 41.2852C110.559 41.2865 110.671 41.2928 110.779 41.2788C110.785 41.2788 110.793 41.2776 110.799 41.2763C110.871 41.2661 110.942 41.247 111.009 41.2102C111.105 41.1275 111.211 41.0817 111.34 41.1122C111.584 41.1097 111.598 41.2661 111.584 41.4543Z" fill="#575554"/>
<path d="M54.8163 7.75648C54.8265 7.8277 54.6993 7.91799 54.6357 7.99939C54.0621 9.00408 53.1236 9.6247 52.213 10.2657C51.9866 10.4246 51.6814 10.3827 51.4054 10.3827C46.3298 10.3852 41.2542 10.3865 36.1786 10.3814C35.1689 10.3801 35.0175 10.1957 35.0722 9.11345C35.0786 8.9265 35.0862 8.73828 35.0926 8.55006C35.1447 8.42034 35.1574 8.28426 35.1511 8.15073C35.1472 8.07696 35.1383 8.0032 35.1269 7.93325C35.0086 7.21217 35.3189 6.68439 35.8327 6.23418C37.1032 5.61992 38.4767 5.32614 39.854 5.27782C44.7083 5.1074 49.5652 5.19134 54.464 5.20787C54.7247 6.0485 54.7031 6.9133 54.8163 7.75648Z" fill="#FD1516"/>
<path d="M126.93 6.39824C126.93 6.39824 126.93 6.39952 126.929 6.39952C126.822 6.5623 126.7 6.72127 126.566 6.88024C126.546 6.90313 126.527 6.9273 126.506 6.95019C126.154 7.35842 125.867 7.81753 125.541 8.24866C125.324 8.53989 125.088 8.81841 124.807 9.06258C124.639 9.20884 124.469 9.34746 124.294 9.47463C124.294 9.47591 124.292 9.47718 124.291 9.47718C124.061 9.64759 123.822 9.8002 123.569 9.9312C123.263 10.0889 122.967 10.122 122.673 10.0558C122.475 10.0126 122.277 9.92611 122.076 9.80275C121.182 9.25462 120.327 8.64036 119.524 7.98031C119.427 7.90019 119.329 7.8188 119.232 7.73614C119.102 7.62549 118.978 7.51358 118.862 7.39912C118.859 7.39785 118.858 7.39658 118.857 7.39403C118.73 7.2694 118.613 7.14095 118.508 7.00996C117.902 6.24309 117.735 5.34523 118.641 4.07728C119.503 2.86783 120.384 1.70926 121.55 0.782146C122.163 0.29379 122.553 0.259452 123.204 0.710927C123.464 0.891517 123.724 1.06321 124.018 1.18021C125.189 1.96743 126.215 2.90853 127.067 4.03658C127.581 4.93317 127.402 5.6886 126.93 6.39824Z" fill="#FE1616"/>
<path d="M54.6408 10.6141C53.9184 11.2335 53.2113 11.8694 52.508 12.5116C52.3402 12.6655 52.171 12.7316 51.9434 12.7316C46.4595 12.7253 40.9744 12.7253 35.4906 12.7227C35.4512 12.7227 35.413 12.696 35.3494 12.6731C35.1065 11.573 35.1421 10.4272 34.9425 9.31058C34.9259 9.22156 34.9933 9.1567 35.0722 9.11346C35.2922 10.1779 35.2922 10.1805 36.3694 10.1805C41.3979 10.1792 46.4252 10.1728 51.4525 10.1805C51.9154 10.1805 52.2931 10.1092 52.6492 9.75951C53.2787 9.14016 53.9705 8.58313 54.6357 7.99939C54.7056 8.66961 54.7629 9.34237 54.8532 10.01C54.8888 10.2669 54.8468 10.4374 54.6408 10.6141Z" fill="#565553"/>
<path d="M31.9907 42.6587C31.1691 42.9296 30.2865 43.0084 29.4281 43.1776C27.467 43.5629 25.4958 43.8872 23.536 44.2713C23.1163 44.3527 22.8035 44.2802 22.4855 44.0246C21.3854 43.1369 20.5613 42.0139 19.8212 40.8337C18.309 38.425 16.8236 35.9998 15.3471 33.5707C15.1462 33.24 14.9465 33.0976 14.5472 33.1408C13.8871 33.2121 13.2106 33.1459 12.5887 33.4524C12.5861 32.7339 12.595 32.0153 12.5772 31.2981C12.5696 30.9534 12.6357 30.7156 13.0452 30.7245C13.1482 30.727 13.25 30.6736 13.3543 30.6571C14.8575 30.4129 14.9961 30.5134 15.777 31.8182C16.7054 33.3698 17.7228 34.8666 18.6473 36.4194C19.4244 37.7255 20.2307 39.0049 21.1667 40.2042C21.5889 40.7447 22.118 41.158 22.6343 41.5917C22.8365 41.7596 23.0883 41.8308 23.3503 41.771C26.1062 41.1504 28.9028 40.7345 31.6714 40.18C31.6435 41.0067 31.9093 41.7952 31.9907 42.6587Z" fill="#565353"/>
<path d="M130.977 41.509C130.82 42.253 130.917 43.0262 130.689 43.8198H114.908C114.887 43.7575 114.865 43.7016 114.849 43.6443C114.549 42.6015 114.62 41.7151 115.837 41.3119C120.175 41.3106 124.513 41.3081 128.851 41.3056C129.295 41.3043 129.74 41.3017 130.184 41.2916C130.391 41.2865 130.622 41.3183 130.714 41.0512C131.036 41.0677 131.02 41.3017 130.977 41.509Z" fill="#585555"/>
<path d="M15.6321 41.4645C15.5711 42.1373 15.5227 42.81 15.4808 43.4853C15.4553 43.8885 15.1819 43.8669 14.8945 43.8669C13.1598 43.8669 11.4251 43.8745 9.68917 43.8745C6.89638 43.8758 4.10359 43.872 1.3108 43.8707H0.660932C0.641856 43.7117 0.645671 43.6062 0.615149 43.5121C0.274317 42.4603 0.523582 41.6871 1.64273 41.3208C4.90098 41.3145 8.15924 41.3094 11.4175 41.3017C12.5392 41.2992 13.6609 41.2941 14.7826 41.289C15.0662 41.2877 15.351 41.2865 15.4006 40.9075C15.5596 41.0588 15.6537 41.2267 15.6321 41.4645Z" fill="#585453"/>
<path d="M93.7995 9.77222C92.9182 10.1703 92.0419 10.6014 91.1237 10.8876C90.4128 11.1101 89.9308 11.5514 89.4526 12.0576C86.6217 15.0538 83.7869 18.0438 80.9534 21.0362C80.7029 20.6992 80.4473 20.3634 80.2018 20.0213C80.0009 19.7441 80.0429 19.5241 80.282 19.2456C81.8335 17.4371 83.5275 15.7609 85.1579 14.0263C86.7489 12.3361 88.3538 10.6599 89.9461 8.97228C90.1852 8.7192 90.4599 8.5615 90.7867 8.44196C91.6973 8.11003 92.5952 7.74249 93.4981 7.38894H94.4964C94.5549 7.64711 94.6198 7.88493 94.6618 8.12529C94.864 9.27623 94.8678 9.28895 93.7995 9.77222Z" fill="#545152"/>
<path d="M32.9253 21.6149C31.6536 21.4457 30.3818 21.2766 29.1088 21.1087C28.9142 21.082 28.7489 21.1036 28.6052 21.2778C26.5665 23.7502 24.5215 26.2161 22.4804 28.6859C22.4409 28.7329 22.4219 28.7978 22.3939 28.8537C22.1255 28.4786 21.8635 28.1008 21.5888 27.7295C21.3955 27.4675 21.5036 27.2691 21.6817 27.0542C22.647 25.8842 23.6033 24.7065 24.5673 23.534C25.7869 22.0524 27.032 20.5911 28.2198 19.0841C28.5543 18.6593 28.8811 18.4838 29.3975 18.5792C30.3742 18.7585 31.3572 18.8984 32.3492 18.9569C32.7587 18.981 32.9559 19.1426 32.9355 19.5864C32.905 20.2617 32.9266 20.9396 32.9253 21.6149Z" fill="#575352"/>
<path d="M117.676 24.9164C117.616 26.0393 117.181 27.0656 116.824 28.1085C116.502 29.0509 116.597 28.8932 115.671 28.8982C114.74 28.9021 113.807 28.8639 112.879 28.9148C112.385 28.9415 112.262 28.691 112.197 28.3145C111.885 26.4781 111.575 24.6417 111.256 22.7493C110.652 23.0609 110.193 23.4933 109.72 23.8939C108.378 25.0296 107.162 26.2924 106.001 27.6125C105.739 27.9114 105.682 28.228 105.682 28.5981C105.678 31.2612 105.666 33.9242 105.657 36.5873C105.651 36.5886 105.644 36.5899 105.637 36.5911C105.622 36.5937 105.607 36.5962 105.591 36.5975L105.582 36.581C105.408 34.7941 105.436 33.0035 105.491 31.2141C105.505 30.7716 105.53 30.3341 105.485 29.8902C105.336 28.4391 105.43 26.9919 105.594 25.5484C107.182 23.5619 109.035 21.8463 110.998 20.2554C111.251 20.3304 111.261 20.5326 111.294 20.7145C111.603 22.411 112.004 24.0923 112.203 25.8079C112.244 26.1563 112.397 26.3356 112.773 26.3306C114.019 26.3153 115.267 26.3687 116.513 26.2886C116.517 26.3026 116.52 26.3153 116.523 26.3293C116.525 26.3344 116.526 26.3382 116.527 26.3433H116.529C116.531 26.3573 116.535 26.37 116.539 26.384C116.371 26.6421 116.099 26.5964 115.854 26.6027C115.203 26.6167 114.551 26.6027 113.899 26.6091C113.536 26.6129 113.205 26.6752 113.19 27.1343C113.175 27.5438 113.175 27.9889 113.69 28.0894C114.37 28.2229 115.069 28.214 115.758 28.2382C116.09 28.2496 116.264 27.9711 116.329 27.6557C116.418 27.2246 116.548 26.7998 116.582 26.3585C116.582 26.3573 116.583 26.3547 116.583 26.3535C116.587 26.342 116.591 26.3318 116.595 26.3204C116.598 26.3051 116.604 26.2899 116.609 26.2746C116.709 25.963 116.816 25.6553 116.997 25.4047C117.152 25.1885 117.363 25.0143 117.676 24.9164Z" fill="#555250"/>
<path d="M127.187 8.72938C126.283 10.2809 125.099 11.5794 123.669 12.6642C123.417 12.855 123.233 12.8855 122.935 12.7481C120.793 11.7524 119.002 10.3204 117.49 8.4445C117.766 7.96124 118.043 7.47415 118.321 6.98834C118.386 6.98071 118.452 6.98707 118.508 7.00996C118.548 7.02649 118.583 7.0532 118.609 7.08881C118.685 7.19691 118.768 7.29865 118.857 7.39403C118.858 7.39657 118.859 7.39784 118.862 7.39912C119.062 7.61659 119.288 7.80354 119.525 7.98031C119.893 8.25628 120.284 8.50682 120.631 8.80696C121.196 9.29404 121.898 9.6336 122.555 9.99732C122.596 10.0189 122.635 10.0393 122.673 10.0558C123.336 10.3432 123.828 9.87905 124.291 9.47717C124.292 9.47717 124.294 9.4759 124.294 9.47463C124.361 9.4174 124.426 9.36144 124.492 9.3093C124.886 8.99518 125.226 8.634 125.541 8.24865C125.902 7.8099 126.231 7.34062 126.566 6.88024C126.646 6.76959 126.728 6.66022 126.809 6.55085C126.85 6.49617 126.877 6.43003 126.929 6.39951C126.93 6.39951 126.93 6.39824 126.93 6.39824C126.957 6.38298 126.991 6.37789 127.037 6.38679C127.902 7.49577 127.904 7.49704 127.187 8.72938Z" fill="#545352"/>
<path d="M4.48511 37.592C4.48129 31.9454 4.47748 26.2988 4.47493 20.6521C4.47239 16.6766 4.46094 12.6998 4.47875 8.72429C4.47875 8.62255 4.47366 8.5348 4.46094 8.45977C4.40753 8.14691 4.2244 8.04517 3.80344 8.01846C2.68938 7.94852 1.5804 7.78446 0.401482 7.65093C0.364601 6.59409 -0.20642 5.57287 0.280665 4.48806C0.330264 4.98277 0.612595 5.16972 1.09841 5.20406C2.04587 5.27019 2.98824 5.42534 3.93571 5.46858C4.47112 5.49275 4.47112 5.77381 4.48511 6.16424C4.61101 9.75569 4.54488 13.3471 4.54997 16.9373C4.5576 23.5746 4.55378 30.2107 4.55124 36.8468C4.55124 37.0947 4.61483 37.3542 4.48511 37.592Z" fill="#575353"/>
<path d="M76.6907 9.14016C76.4555 9.58528 75.803 9.71754 75.3261 9.97444C74.474 10.4335 73.6067 10.871 72.6923 11.189C72.3311 11.3149 72.1747 11.4827 72.1353 11.8058C72.1327 11.8312 72.1302 11.8566 72.1277 11.8846C72.1264 11.9215 72.1251 11.9609 72.1251 12.0029C72.1442 15.0271 72.1302 18.0514 72.1264 21.0769C71.9941 20.6852 72.073 20.2821 72.0704 19.8853C72.0564 17.2476 72.0564 14.6087 72.045 11.9711C72.0412 11.1088 72.2078 10.2517 72.0793 9.38434C72.0208 8.98501 72.2052 8.73192 72.6402 8.61492C73.6232 8.34912 74.4804 7.77683 75.4202 7.40039H76.4478C76.4682 7.51739 76.4822 7.59497 76.4936 7.67382C76.5636 8.17108 76.9031 8.73828 76.6907 9.14016Z" fill="#565252"/>
<path d="M63.6591 9.0575C63.6146 9.66286 63.6413 10.272 63.6375 10.8799C62.2334 10.5505 60.7811 10.4997 59.3682 10.2034V7.64966C60.4263 7.92055 61.5225 7.9587 62.5933 8.15201C62.7167 8.1749 62.8413 8.20033 62.966 8.20288C63.5459 8.21051 63.6985 8.52082 63.6591 9.0575Z" fill="#565452"/>
<path d="M97.5449 21.3491C97.5284 21.433 97.5055 21.5169 97.4762 21.5996C96.1472 21.4266 94.8182 21.2537 93.4435 21.0756C93.3176 20.2782 93.2056 19.4745 93.0569 18.6784C93.0034 18.391 93.2133 18.3808 93.3557 18.2829C93.8453 18.452 94.3464 18.5626 94.8526 18.644C95.2494 18.7076 95.65 18.7521 96.0506 18.7916C96.3126 18.8183 96.5758 18.8424 96.8378 18.8691C96.8569 18.8704 96.8747 18.8729 96.8925 18.8755C97.3961 18.9404 97.6072 19.1667 97.5767 19.6576C97.5424 20.221 97.6644 20.7908 97.5449 21.3491Z" fill="#585252"/>
<path d="M49.321 19.4885C49.293 20.1778 49.3032 20.8683 49.2981 21.5576C48.1662 21.3567 47.0356 21.1558 45.8974 20.9535C45.7702 20.1612 45.6481 19.3969 45.5222 18.6326C45.493 18.4545 45.4561 18.2854 45.7231 18.2867C45.8363 18.3414 45.9521 18.3846 46.0703 18.4189C46.2497 18.4749 46.4341 18.513 46.621 18.5448C46.6223 18.5461 46.6248 18.5461 46.6261 18.5461C46.6681 18.5563 46.7126 18.5639 46.7584 18.569C47.4375 18.6822 48.1128 18.8259 48.797 18.8984C49.1976 18.9416 49.3375 19.093 49.321 19.4885Z" fill="#575451"/>
<path d="M20.677 18.6784C20.1365 19.7301 19.4205 20.4512 18.8011 21.2397C18.2416 21.1278 17.6743 21.0922 17.0525 21.11C16.8299 20.2821 16.746 19.4541 16.6404 18.63C16.6188 18.4647 16.7294 18.4126 16.8668 18.3922C17.5599 18.6949 18.309 18.5741 19.03 18.6657C19.5209 18.728 20.0258 18.6784 20.677 18.6784Z" fill="#585352"/>
<path d="M127.337 5.83994C127.236 6.0218 127.138 6.20493 127.037 6.3868C126.12 7.89892 124.988 9.21646 123.522 10.2237C123.144 10.4819 122.784 10.258 122.46 10.0711C120.961 9.20502 119.498 8.28681 118.322 6.98834C118.249 6.88533 118.183 6.77723 118.104 6.68057C117.429 5.86029 117.432 5.86283 117.982 4.89884C119.07 2.99501 120.476 1.37097 122.235 1.14441e-05C122.824 0.422236 123.493 0.688034 124.018 1.18021C123.723 1.19674 123.498 1.05557 123.273 0.886429C122.646 0.415877 122.294 0.474378 121.651 0.906777C120.835 1.45745 120.106 2.12385 119.591 2.9187C119.087 3.69702 118.337 4.35834 118.213 5.3732C118.149 5.88699 118.201 6.29141 118.544 6.71364C119.412 7.78319 120.457 8.60983 121.679 9.22537C121.716 9.24444 121.748 9.27497 121.782 9.29913C122.97 10.1716 123.464 10.127 124.541 9.09056C125.15 8.50428 125.713 7.89383 126.125 7.13968C126.31 6.80012 126.643 6.54449 126.882 6.23037C127.225 5.77635 127.426 5.28927 127.128 4.72206C127.013 4.50586 127.07 4.26677 127.068 4.03658C127.086 4.04676 127.108 4.05311 127.122 4.0671C127.994 5.05908 127.935 4.76912 127.337 5.83994Z" fill="#D62022"/>
<path d="M118.829 37.2194C118.823 32.9539 118.818 28.6884 118.813 24.4229C118.811 23.6204 118.809 22.8179 118.807 22.0155C118.806 21.8056 118.844 21.5487 118.533 21.5551C118.256 21.5614 118.327 21.8171 118.295 21.99C118.114 22.9706 118.102 23.988 117.676 24.9164C117.279 25.3437 116.837 25.7379 116.644 26.3153C116.625 26.3369 116.605 26.3496 116.583 26.3534C116.565 26.356 116.548 26.3534 116.528 26.3433H116.527C116.521 26.3395 116.513 26.3356 116.507 26.3306L116.513 26.2886C117.299 24.035 117.882 21.7306 118.178 19.36C118.203 19.1527 118.253 18.9721 118.504 18.9785C118.746 18.9861 118.806 19.1578 118.82 19.3702C118.841 19.6856 118.905 19.9985 118.905 20.3126C118.91 25.7646 118.909 31.2154 118.907 36.6674C118.907 36.8531 118.952 37.049 118.829 37.2194Z" fill="#734847"/>
<path d="M83.4462 9.13508C83.0354 9.58655 82.6081 10.024 82.1885 10.4666C81.985 10.4208 81.784 10.3598 81.5793 10.3305C80.6738 10.2008 80.6763 10.2034 80.7297 9.27116C80.7628 8.6925 80.8645 8.11258 80.6992 7.53774C81.4127 7.98413 82.2482 7.86077 83.0227 8.02483C83.3572 8.09605 83.8252 7.9676 83.9664 8.34023C84.1037 8.70522 83.665 8.89471 83.4462 9.13508Z" fill="#575250"/>
<path d="M103.728 14.7512C103.524 14.7728 103.337 14.6901 103.203 14.5655C102.786 14.1725 102.234 14.1471 101.772 14.2272C100.386 14.4688 98.9478 14.4129 97.6022 14.7931C96.4386 15.1225 95.2457 15.3794 94.1112 15.8144C93.8938 15.897 93.7246 16.0789 93.6534 16.3129C93.5936 16.5138 93.5504 16.7199 93.5135 16.9259C93.3444 17.8772 93.4995 18.2065 94.4419 18.3604C95.0002 18.452 95.5127 18.7318 96.1537 18.6288C96.525 18.569 97.1355 18.6835 97.489 19.0078C97.7943 19.2875 97.7129 19.753 97.7103 20.1536C97.7078 20.6394 97.7103 21.1252 97.7103 21.6111C97.6366 21.6619 97.6582 21.7624 97.6226 21.8336C97.6111 21.8578 97.5921 21.8781 97.5603 21.8921C97.5323 21.7942 97.5043 21.6963 97.4763 21.5996C97.475 20.9447 97.4445 20.2897 97.4814 19.6373V19.6258C97.4814 19.6246 97.4814 19.6246 97.4814 19.6246C97.4992 19.2545 97.372 19.0828 97.1228 19.0065C97.1228 19.0065 97.1228 19.0052 97.1215 19.0052C97.0338 18.9772 96.932 18.962 96.815 18.9531C95.8917 18.8844 94.9671 18.8068 94.0515 18.6695C93.8175 18.6339 93.3622 18.8005 93.3558 18.2829C93.2503 17.6406 93.1625 16.9946 93.0341 16.3561C92.9603 15.9886 93.0976 15.8284 93.4308 15.7063C95.6195 14.9025 97.8655 14.3569 100.185 14.1267C100.794 14.067 101.414 14.081 102.014 13.9767C102.787 13.8431 103.302 14.1725 103.728 14.7512Z" fill="#D92325"/>
<path d="M111.34 41.1122C111.282 41.1682 111.225 41.2229 111.168 41.2788C110.952 41.4111 110.713 41.345 110.486 41.345C102.536 41.3488 94.5879 41.3412 86.6382 41.359C85.9858 41.3615 85.4834 41.1987 85.1171 40.6582C85.037 40.5298 84.9556 40.4013 84.8755 40.2729C84.8361 40.222 84.8157 40.1711 84.8234 40.1215C84.8234 40.1152 84.8246 40.1088 84.8259 40.1025C84.8348 40.0707 84.8539 40.0401 84.8857 40.0109C85.5419 41.0245 86.5555 41.0169 87.6123 41.0575C88.453 41.0906 89.2949 41.1567 90.1381 41.1567C96.7118 41.158 103.286 41.1466 109.858 41.1758C110.542 41.1784 111.039 41.069 111.291 40.3924C111.307 40.6328 111.323 40.8719 111.34 41.1122Z" fill="#DD2B2F"/>
<path d="M12.618 27.7041C12.3319 27.5006 12.4578 27.1979 12.4578 26.9435C12.4489 19.7098 12.4501 12.476 12.4489 5.24221C12.4489 4.46008 12.4489 3.67795 12.4476 2.89454C12.6701 3.05097 12.5697 3.2837 12.5697 3.47955C12.5824 11.2589 12.59 19.0383 12.5989 26.8164C12.5989 27.1127 12.6104 27.409 12.618 27.7041Z" fill="#A01F3B"/>
<path d="M57.595 35.9616C57.1689 35.7759 57.3037 35.388 57.3025 35.0739C57.2936 30.9916 57.2974 26.9105 57.2987 22.8281C57.2987 20.6699 57.2974 18.513 57.2974 16.3561C57.4818 16.6257 57.3979 16.931 57.3979 17.2184C57.4182 23.0723 57.4309 28.925 57.4424 34.7789C57.4436 35.1807 57.4284 35.5826 57.595 35.9616Z" fill="#993245"/>
<path d="M97.5729 37.2486C97.564 35.3741 97.5475 33.4995 97.5475 31.6262C97.5462 28.3806 97.5551 25.1364 97.5602 21.8921C97.5755 21.8438 97.5831 21.7929 97.6009 21.7471C97.6187 21.6924 97.648 21.6428 97.7103 21.6111C97.7115 23.0049 97.7128 24.3988 97.7128 25.7926C97.7115 29.393 97.7115 32.992 97.7065 36.5924C97.7065 36.8162 97.7802 37.063 97.5729 37.2486Z" fill="#CE141C"/>
<path d="M111.537 39.3534C111.457 39.6662 111.569 40.0262 111.31 40.2958C111.318 40.0236 111.296 39.7464 111.338 39.4793C111.44 38.8447 111.366 38.7213 110.715 38.4873C109.17 37.9328 107.641 37.3377 106.045 36.9345C105.876 36.8913 105.586 36.9154 105.591 36.5975C105.605 36.5886 105.619 36.5835 105.635 36.5835C105.642 36.5835 105.65 36.5848 105.658 36.5873C106.025 36.8747 106.485 36.8646 106.91 36.9612C108.268 37.2664 109.577 37.7192 110.876 38.2177C111.44 38.4352 111.687 38.7646 111.537 39.3534Z" fill="#DD2B2F"/>
<path d="M35.8327 6.23419C35.4143 6.81157 35.2579 7.47288 35.1511 8.15073C35.1307 8.283 35.1116 8.41653 35.0926 8.55007C35.0455 8.1749 34.9857 7.801 34.9539 7.42329C34.8815 6.5445 34.9234 6.49363 35.8327 6.23419Z" fill="#CE2026"/>
<path d="M46.6387 15.4074C46.5866 15.4723 46.5472 15.5727 46.4798 15.5969C45.5183 15.9555 45.6989 16.6906 45.8642 17.4231C45.8452 17.446 45.8261 17.46 45.807 17.4638C45.7803 17.4689 45.7549 17.4549 45.7294 17.4206C45.601 17.2146 45.6226 16.9793 45.5908 16.7529C45.428 15.6185 45.4598 15.5765 46.6387 15.4074Z" fill="#D02A32"/>
<path d="M46.7584 18.569C46.5765 18.5868 46.3997 18.5868 46.2318 18.5525C46.0487 18.5143 45.8758 18.4342 45.7231 18.2867C45.7257 17.998 45.727 17.7093 45.7295 17.4206C45.7524 17.4219 45.7766 17.4219 45.8007 17.4219C45.8211 17.4231 45.8427 17.4231 45.8643 17.4231C45.8961 17.9687 46.0538 18.4177 46.621 18.5448C46.6223 18.5461 46.6248 18.5461 46.6261 18.5461C46.6681 18.5563 46.7126 18.5639 46.7584 18.569Z" fill="#C62D31"/>
<path d="M84.8859 40.0109C84.8821 40.0986 84.8783 40.1864 84.8757 40.2742C84.2564 39.4551 83.6218 38.645 83.0189 37.8133C81.9952 36.4029 80.9701 34.9925 79.9845 33.5554C78.6517 31.6135 77.2909 29.6918 75.9034 27.788C75.5321 27.278 75.2002 26.7388 74.8148 26.2415C74.3697 25.668 74.2845 25.6807 73.7389 26.2072C73.6499 26.2937 73.543 26.3598 73.4438 26.4361C73.5748 25.9516 73.9856 25.7265 74.3913 25.3755C77.9573 30.2425 81.4521 35.1044 84.8859 40.0109Z" fill="#AD3535"/>
<path d="M105.594 25.5484C105.59 29.2264 105.586 32.9043 105.581 36.581C105.346 35.9082 105.318 35.1807 105.295 34.5016C105.27 33.7589 105.279 32.9908 105.335 32.2366C105.427 30.9814 105.411 29.7402 105.232 28.4849C105.09 27.5019 105.412 26.5213 105.594 25.5484Z" fill="#DD2B2F"/>
<path d="M72.551 57.3908C71.4763 57.3908 70.4004 57.3908 69.308 57.3908C69.1795 57.2623 69.224 57.1059 69.2787 56.905C69.4975 56.905 69.7188 56.905 70.038 56.905C69.458 56.1801 68.9379 55.5289 68.4025 54.86C67.3914 55.272 67.8098 56.1305 67.7157 56.8859C67.979 56.8859 68.2028 56.8859 68.3834 56.8859C68.5437 57.0588 68.4826 57.2051 68.475 57.3806C67.6572 57.3806 66.8395 57.3806 65.9976 57.3806C65.8819 57.2623 65.9251 57.1059 65.9607 56.9075C66.2341 56.9075 66.4999 56.9075 66.7988 56.9075C66.7988 55.3763 66.7988 53.8845 66.7988 52.3597C66.5584 52.2452 66.2774 52.3699 66.0128 52.2885C65.8539 52.1549 65.9632 51.9858 65.9289 51.7849C66.7784 51.706 67.5949 51.7747 68.4063 51.7785C68.5004 52.2796 68.5004 52.2796 67.7475 52.3559C67.7475 53.0859 67.7475 53.8184 67.7475 54.6501C68.5373 53.9163 69.219 53.1711 69.907 52.4029C69.6514 52.1804 68.9214 52.581 69.1833 51.7887C70.0189 51.7022 70.8608 51.7836 71.6951 51.7861C71.8464 51.94 71.7968 52.099 71.7447 52.277C71.6887 52.2897 71.6277 52.3228 71.5743 52.3126C71.105 52.2274 70.7883 52.4322 70.4882 52.7819C70.0367 53.3072 69.5344 53.7879 69.0282 54.3144C69.7149 55.1347 70.3839 55.9194 71.0338 56.718C71.2347 56.966 71.489 56.8833 71.7294 56.8973C72.0016 56.9139 72.2763 56.9113 72.5497 56.9164C72.701 57.0767 72.6769 57.2331 72.551 57.3908Z" fill="#FCFCFC"/>
<path d="M21.8789 56.8961C22.1689 56.8961 22.4181 56.8961 22.656 56.8961C22.7984 57.0601 22.7666 57.2127 22.7068 57.3933C21.842 57.3933 20.9836 57.3933 20.1303 57.3933C20.0463 57.2356 20.0667 57.0995 20.1124 56.9533C20.3668 56.8236 20.6529 56.9686 20.9365 56.8541C20.9365 56.1737 20.9365 55.487 20.9365 54.7633C20.1608 54.7633 19.3901 54.7633 18.5863 54.7633C18.5863 55.4513 18.5863 56.1381 18.5863 56.8223C18.7873 57.1212 19.5452 56.5184 19.4219 57.3806C18.5673 57.3806 17.7088 57.3806 16.8288 57.3806C16.7334 57.2458 16.7512 57.0957 16.8275 56.9164C17.0793 56.9164 17.3298 56.9164 17.6211 56.9164C17.6211 55.3827 17.6211 53.8756 17.6211 52.3393C17.3654 52.3393 17.1187 52.3393 16.8529 52.3393C16.7168 51.9985 16.6711 51.762 17.1594 51.7721C17.8958 51.7874 18.6334 51.776 19.3647 51.776C19.4295 52.2872 19.4295 52.2872 18.5876 52.3381C18.5876 52.9396 18.5876 53.5424 18.5876 54.1885C19.3468 54.1885 20.1175 54.1885 20.9264 54.1885C20.9264 53.5958 20.9264 52.9943 20.9264 52.3393C20.6682 52.3266 20.4037 52.3152 20.1646 52.3037C20.0171 52.1219 20.0921 51.9667 20.1048 51.7849C20.9798 51.7849 21.8204 51.7849 22.6585 51.7849C22.7717 52.2859 22.7717 52.2859 21.8802 52.3533C21.8789 53.8413 21.8789 55.3331 21.8789 56.8961Z" fill="#FDFDFD"/>
<path d="M65.6431 56.933C65.7512 57.0665 65.666 57.2127 65.713 57.4175C64.9182 57.4175 64.1615 57.4086 63.4048 57.4213C62.9838 57.4289 63.0449 57.2 63.1097 56.9177C63.3412 56.9062 63.5498 56.8961 63.8766 56.8795C63.3132 56.1724 62.7982 55.5264 62.264 54.8549C61.2301 55.2657 61.7133 56.1419 61.604 56.802C61.8545 57.0525 62.5273 56.6048 62.3543 57.4162C61.5963 57.4162 60.8206 57.415 60.0435 57.4175C59.709 57.4188 59.765 57.1848 59.7536 56.98C60.0359 56.8083 60.3513 56.9787 60.659 56.8465C60.659 55.3636 60.659 53.8705 60.659 52.3915C60.4518 52.2719 60.2572 52.3241 60.0728 52.3254C59.8604 52.3279 59.7599 52.244 59.751 52.0341C59.7408 51.8001 59.8807 51.7518 60.074 51.7531C60.8142 51.7543 61.5544 51.7531 62.2945 51.7531C62.6048 52.5555 61.9283 52.2109 61.6332 52.3584C61.6332 53.0821 61.6332 53.8248 61.6332 54.6349C62.4421 53.924 63.0779 53.1304 63.8321 52.3317C63.5332 52.3317 63.3297 52.3317 63.1428 52.3317C62.9546 52.1524 62.994 51.9782 63.0767 51.7785C63.9173 51.7785 64.7579 51.7785 65.5973 51.7785C65.7397 51.926 65.6978 52.0863 65.6291 52.3292C64.791 52.0634 64.4349 52.7387 63.9529 53.2118C63.593 53.5653 63.1975 53.8833 62.8007 54.2317C63.5523 55.1118 64.206 55.885 64.8686 56.6481C65.0848 56.8973 65.0975 56.8872 65.6431 56.933Z" fill="#FCFCFC"/>
<path d="M32.2666 52.3864C31.9855 52.1537 31.2886 52.656 31.4145 51.8052C32.2653 51.8052 33.1008 51.8052 33.9351 51.8052C34.0165 52.2732 34.0165 52.2732 33.2382 52.361C33.2382 53.0884 33.2382 53.8197 33.2382 54.6603C34.0826 53.9583 34.6625 53.11 35.4205 52.4233C35.2374 52.1346 34.4616 52.6141 34.7147 51.8014C35.4688 51.6984 36.2459 51.7836 37.0178 51.7607C37.2277 51.7543 37.3256 51.8535 37.3205 52.0672C37.3142 52.3152 37.1425 52.3381 36.9683 52.3101C36.5359 52.2402 36.265 52.4627 36.0004 52.7616C35.5401 53.2843 35.0517 53.7828 34.5392 54.3309C35.2107 55.1309 35.8885 55.9308 36.5562 56.7384C36.7673 56.9927 37.0687 56.8452 37.2887 56.9088C37.407 57.0779 37.3332 57.2178 37.3625 57.3857C36.4646 57.3857 35.6062 57.3857 34.7617 57.3857C34.6435 57.2331 34.7261 57.0957 34.6854 56.9151C34.9614 56.9037 35.1865 56.8935 35.5184 56.8783C34.9411 56.1635 34.4095 55.5035 33.8817 54.8498C32.8643 55.3204 33.3323 56.1635 33.214 56.8744C33.5065 56.8923 33.7354 56.9062 33.9834 56.9215C34.0686 57.2356 34.0419 57.4226 33.6617 57.4175C32.9253 57.406 32.1877 57.4137 31.4539 57.4137C31.4183 56.9202 31.4183 56.9202 32.2678 56.8681C32.2666 55.3827 32.2666 53.8922 32.2666 52.3864Z" fill="#FCFCFC"/>
<path d="M112.823 54.6768C113.312 54.8651 113.457 55.286 113.586 55.7095C113.652 55.9295 113.666 56.1648 113.735 56.3835C113.807 56.6137 113.84 56.9253 114.192 56.8846C114.508 56.849 114.479 56.5718 114.501 56.3454C114.514 56.2195 114.546 56.091 114.532 55.9677C114.487 55.5722 114.729 55.6421 114.964 55.651C115.103 56.0376 115.024 56.4014 114.972 56.7447C114.912 57.1364 114.664 57.4582 114.243 57.5205C113.822 57.5841 113.4 57.5765 113.113 57.153C112.891 56.8287 112.813 56.4586 112.729 56.0923C112.449 54.8752 112.389 54.8231 111.064 54.8829C110.981 55.52 111.035 56.1673 111.033 56.7842C111.231 57.0945 111.987 56.554 111.808 57.3793C110.976 57.3793 110.137 57.3793 109.294 57.3793C109.202 56.9291 109.202 56.9291 110.114 56.8681C110.114 55.3789 110.114 53.8871 110.114 52.3864C109.857 52.2312 109.571 52.3648 109.285 52.2834C109.149 51.9985 109.122 51.7721 109.566 51.7632C110.604 51.7416 111.644 51.7162 112.674 51.8408C113.857 51.9845 114.355 52.9778 113.944 53.8705C113.731 54.3373 113.255 54.4606 112.823 54.6768Z" fill="#FDFDFD"/>
<path d="M44.0533 52.3101C43.7353 52.3101 43.4848 52.3101 43.2076 52.3101C43.1249 51.9502 43.1478 51.7823 43.5942 51.7391C44.665 51.6386 45.4281 51.8383 45.9088 52.9803C46.3984 54.144 47.1564 55.1932 47.8622 56.4039C47.8622 54.9872 47.8622 53.6963 47.8622 52.3877C47.6231 52.2262 47.3357 52.3826 47.0496 52.2821C46.916 51.9693 46.9198 51.7518 47.3853 51.762C48.0377 51.7772 48.6914 51.7658 49.3387 51.7658C49.4316 52.2847 49.4316 52.2847 48.6354 52.3521C48.6354 54.0015 48.6354 55.6587 48.6354 57.3005C47.7134 57.5498 47.6193 57.504 47.192 56.7562C46.4734 55.4997 45.7435 54.2483 45.0185 52.9956C44.9689 52.9104 44.9524 52.7934 44.7845 52.7908C44.7845 54.1376 44.7845 55.4743 44.7845 56.8045C44.9664 57.1237 45.7524 56.54 45.5972 57.3857C44.8138 57.3857 44.038 57.3857 43.2597 57.3857C43.1745 56.9571 43.1745 56.9571 44.0507 56.8478C44.0533 55.3598 44.0533 53.8706 44.0533 52.3101Z" fill="#FDFDFD"/>
<path d="M90.6915 51.748C90.6915 52.5505 90.6915 53.2398 90.6915 53.9265C90.4791 53.9952 90.2947 53.9812 90.0747 53.9494C89.9081 53.4471 90.0849 52.9129 89.9666 52.3584C89.1463 52.3584 88.3133 52.3584 87.4409 52.3584C87.4409 52.9918 87.4409 53.6353 87.4409 54.3157C87.8517 54.406 88.2879 54.3386 88.6834 54.3475C89.042 54.13 88.4379 53.3529 89.3193 53.442C89.3193 54.1185 89.3269 54.7684 89.3155 55.4183C89.3104 55.7286 89.2938 55.7286 88.808 55.6892C88.808 55.4043 88.808 55.1156 88.808 54.7875C88.3375 54.7875 87.9064 54.7875 87.4371 54.7875C87.4371 55.473 87.4371 56.1559 87.4371 56.8694C88.2866 56.8694 89.1209 56.8694 90.0187 56.8694C90.0187 56.3492 90.0187 55.8507 90.0187 55.3789C90.2744 55.2364 90.4715 55.2695 90.6979 55.3191C90.6979 56.0033 90.6979 56.671 90.6979 57.3768C88.9924 57.3768 87.2934 57.3768 85.5689 57.3768C85.5193 56.5514 86.2098 57.1046 86.4845 56.7625C86.4845 55.3763 86.4845 53.8858 86.4845 52.3877C86.2238 52.2402 85.9377 52.3737 85.6528 52.2834C85.5561 52.0278 85.4264 51.7493 85.9097 51.748C87.4905 51.7454 89.0738 51.748 90.6915 51.748Z" fill="#FCFCFC"/>
<path d="M92.8089 52.7705C92.8089 54.1185 92.8089 55.4679 92.8089 56.8643C93.0684 56.8833 93.3113 56.9012 93.5694 56.9202C93.6966 57.0525 93.6521 57.2076 93.6025 57.3882C92.8178 57.3882 92.042 57.3882 91.2663 57.3882C91.1963 56.9507 91.1963 56.9508 92.0764 56.8452C92.0764 55.3598 92.0764 53.8693 92.0764 52.3393C91.8131 52.3254 91.5664 52.3114 91.2841 52.2961C91.1569 52.0011 91.0895 51.7442 91.5855 51.7645C91.6275 51.7658 91.6707 51.7645 91.7127 51.7645C93.1955 51.734 93.1917 51.7365 93.9268 53.0235C94.5474 54.1096 95.1782 55.1894 95.8866 56.2386C95.8866 54.9452 95.8866 53.6531 95.8866 52.3355C95.5903 52.3215 95.3219 52.3088 95.0498 52.2974C94.901 51.9616 94.9277 51.7581 95.3537 51.7632C96.029 51.7721 96.703 51.7658 97.3682 51.7658C97.5055 51.9286 97.4801 52.0863 97.4063 52.2897C97.1723 52.3037 96.9269 52.3177 96.6293 52.3355C96.6293 54.0092 96.6293 55.6688 96.6293 57.3488C96.2567 57.4582 95.926 57.4048 95.5915 57.401C94.6886 55.8392 93.7907 54.2851 92.8916 52.731C92.8636 52.745 92.8369 52.7578 92.8089 52.7705Z" fill="#FDFDFD"/>
<path d="M103.573 57.3806C103.495 56.5107 104.244 57.1339 104.509 56.732C104.509 55.3725 104.509 53.8833 104.509 52.3966C104.22 52.2274 103.907 52.3915 103.584 52.2567C103.596 52.0659 103.436 51.776 103.822 51.7734C105.445 51.7582 107.068 51.7671 108.72 51.7671C108.72 52.5212 108.72 53.2092 108.72 53.9011C108.506 54.0181 108.304 53.9825 108.08 53.9418C107.924 53.4305 108.099 52.8964 107.976 52.3495C107.144 52.3495 106.312 52.3495 105.446 52.3495C105.446 53.0108 105.446 53.6543 105.446 54.3284C105.889 54.3284 106.323 54.3284 106.756 54.3284C106.901 54.0575 106.766 53.7713 106.866 53.4814C107.17 53.3606 107.363 53.3771 107.349 53.807C107.33 54.3347 107.353 54.8638 107.344 55.3916C107.337 55.7146 107.326 55.7146 106.839 55.7133C106.839 55.4272 106.839 55.1398 106.839 54.8282C106.37 54.6908 105.936 54.7773 105.462 54.7493C105.367 55.4704 105.442 56.1546 105.425 56.8694C106.301 56.8694 107.135 56.8694 108.01 56.8694C108.01 56.3683 108.01 55.8888 108.01 55.4386C108.248 55.225 108.468 55.2682 108.722 55.3471C108.722 56.0147 108.722 56.6799 108.722 57.3832C107.004 57.3806 105.303 57.3806 103.573 57.3806Z" fill="#FCFCFB"/>
<path d="M39.3579 56.8795C40.2214 56.8795 41.0417 56.8795 41.9205 56.8795C41.9205 56.381 41.9205 55.8837 41.9205 55.417C42.1837 55.2301 42.3999 55.2606 42.6479 55.3458C42.6479 56.0173 42.6479 56.6837 42.6479 57.4162C41.2999 57.4162 39.9734 57.4162 38.6457 57.4162C38.371 57.4162 38.095 57.4048 37.8203 57.42C37.4668 57.4391 37.4502 57.2382 37.5087 56.966C37.7796 56.8172 38.0899 56.966 38.4219 56.8554C38.4219 55.3878 38.4219 53.8998 38.4219 52.3915C38.165 52.2211 37.8534 52.3902 37.5291 52.2732C37.4846 52.0328 37.3421 51.7556 37.8229 51.7556C39.4088 51.7569 40.9946 51.7556 42.6263 51.7556C42.6263 52.5098 42.6263 53.213 42.6263 53.91C42.4025 54.0155 42.2003 53.957 41.9434 53.9621C41.9434 53.4076 41.9434 52.8887 41.9434 52.3419C41.0531 52.3419 40.2176 52.3419 39.3592 52.3419C39.3592 53.0146 39.3592 53.6569 39.3592 54.3258C39.8246 54.3258 40.2583 54.3258 40.6564 54.3258C40.9361 54.0664 40.4287 53.3898 41.2554 53.4292C41.2554 54.1338 41.2617 54.8027 41.2515 55.4704C41.2477 55.6955 41.2274 55.6943 40.8191 55.7324C40.6805 55.445 40.8446 55.1105 40.7021 54.7875C40.2646 54.7875 39.8297 54.7875 39.3592 54.7875C39.3579 55.4704 39.3579 56.1419 39.3579 56.8795Z" fill="#FCFCFB"/>
<path d="M97.7736 57.4251C97.6833 57.2318 97.6948 57.0957 97.7584 56.9113C98.0115 56.9113 98.276 56.9113 98.5685 56.9113C98.5685 55.375 98.5685 53.8858 98.5685 52.3457C98.3141 52.3305 98.0522 52.3139 97.7927 52.2974C97.6261 52.1524 97.7279 51.9845 97.705 51.7645C98.9475 51.8116 100.158 51.6768 101.352 52.0545C102.66 52.4678 103.264 53.5933 103.167 54.8765C103.073 56.1203 102.235 57.0067 100.958 57.284C99.9127 57.5091 98.8559 57.3679 97.7736 57.4251Z" fill="#FDFDFD"/>
<path d="M116.091 56.6811C116.822 57.0194 117.48 57.1504 118.183 56.9113C118.594 56.7714 118.915 56.5743 118.926 56.091C118.936 55.604 118.61 55.3827 118.21 55.2453C117.814 55.1105 117.415 54.9859 117.01 54.8803C116.659 54.7888 116.331 54.6514 116.029 54.4594C115.175 53.9163 115.133 52.7298 115.939 52.113C116.742 51.5 118.496 51.528 119.284 52.1638C119.49 52.3292 119.639 52.5352 119.667 52.7946C119.704 53.1317 119.609 53.4509 119.266 53.5742C118.982 53.676 118.638 53.6658 118.479 53.358C118.305 53.0197 118.393 52.7018 118.845 52.4983C118.109 52.0952 117.416 52.0748 116.71 52.4042C116.418 52.5403 116.271 52.7946 116.261 53.1126C116.25 53.4496 116.457 53.6607 116.731 53.8057C117.14 54.0206 117.598 54.102 118.04 54.219C118.43 54.3233 118.807 54.4467 119.157 54.6438C119.661 54.9299 119.918 55.3839 119.902 55.9486C119.886 56.5641 119.583 57.0474 118.998 57.2827C117.967 57.6985 116.944 57.6337 115.943 57.1555C115.662 57.0207 115.459 56.8159 115.367 56.5196C115.244 56.1203 115.285 55.7413 115.688 55.5366C115.974 55.3916 116.273 55.4577 116.46 55.7604C116.706 56.1584 116.509 56.4242 116.091 56.6811Z" fill="#FDFDFD"/>
<path d="M51.4854 54.0588C51.4854 53.2766 51.4854 52.5454 51.4854 51.7747C53.1959 51.7747 54.881 51.7747 56.6411 51.7747C56.6411 52.4627 56.6754 53.1317 56.6296 53.7942C56.5966 54.2724 56.215 54.0372 55.92 54.0855C55.92 53.4878 55.92 52.9434 55.92 52.3584C55.452 52.3584 55.0208 52.3584 54.5465 52.3584C54.5465 53.8438 54.5465 55.3522 54.5465 56.8884C54.8123 56.8884 55.0603 56.8884 55.2701 56.8884C55.4889 57.0525 55.3528 57.2153 55.4075 57.3908C54.5083 57.3908 53.6664 57.3908 52.8232 57.3908C52.7113 56.9101 52.7113 56.9101 53.5698 56.891C53.5698 55.3878 53.5698 53.8833 53.5698 52.347C53.1348 52.347 52.7012 52.347 52.1721 52.347C52.1721 52.7374 52.1772 53.1304 52.1708 53.5234C52.1632 54.0702 52.1594 54.0702 51.4854 54.0588Z" fill="#FCFCFC"/>
<path d="M72.5508 57.3908C72.5508 57.2331 72.5508 57.0754 72.5508 56.9177C73.1879 55.7388 73.5237 54.4365 74.0604 53.2156C74.1952 52.9104 74.3274 52.6013 74.4241 52.2821C74.5258 51.9464 74.6645 51.7696 75.074 51.7607C75.4975 51.7518 75.6094 51.9756 75.7276 52.2796C76.2567 53.6442 76.7972 55.0037 77.3199 56.3696C77.4572 56.7269 77.5971 57.036 78.0601 56.8935C78.1732 57.0639 78.1605 57.2178 78.0969 57.3946C77.3263 57.3946 76.5695 57.3946 75.809 57.3946C75.6386 57.256 75.7747 57.097 75.7124 56.9088C76.0074 56.9088 76.2338 56.9088 76.5009 56.9088C76.4576 56.4471 76.2313 56.0936 76.1117 55.707C76.0418 55.4844 75.8714 55.5048 75.7035 55.5048C75.1121 55.5048 74.5195 55.5048 73.8989 55.5048C73.7106 55.9512 73.5199 56.381 73.4308 56.8795C73.7259 56.8935 73.9955 56.9075 74.2549 56.9202C74.3758 57.0639 74.3223 57.2089 74.3084 57.3832C73.7246 57.4391 73.1383 57.4264 72.5508 57.3908Z" fill="#FDFDFD"/>
<path d="M16.0783 55.5111C16.4777 55.5849 16.5959 55.7426 16.4204 56.1559C15.9295 57.317 14.6031 57.8715 13.297 57.3882C12.1193 56.9533 11.4847 55.8367 11.4771 54.4848C11.4695 53.1266 12.2198 52.1346 13.4165 51.7709C14.4467 51.458 15.5277 51.7798 16.0758 52.5683C16.3022 52.8951 16.423 53.2537 16.2653 53.6404C16.1445 53.9367 15.8914 54.1185 15.5747 54.0944C15.3293 54.0753 15.0686 53.9672 15.0075 53.6772C14.9427 53.372 14.9745 53.0846 15.3166 52.9333C15.4043 52.8951 15.4819 52.8341 15.5709 52.7806C14.5522 51.8078 13.2601 52.0329 12.726 53.2716C12.3266 54.1974 12.3788 55.1169 12.9129 55.9791C13.6595 57.1835 15.2059 57.1364 15.885 55.899C15.955 55.7731 16.0135 55.6421 16.0783 55.5111Z" fill="#FDFDFD"/>
<path d="M30.7048 55.506C31.08 55.6129 31.2275 55.7515 31.0431 56.1673C30.4556 57.4925 28.7984 57.9949 27.458 57.1568C26.3083 56.4382 26.0031 55.3127 26.1672 54.0257C26.3147 52.8659 26.948 52.1028 28.0685 51.7594C29.3389 51.3703 30.6565 52.01 30.9286 53.1215C31.0393 53.5755 30.8371 53.8502 30.467 54.0397C30.1491 54.2025 29.8744 54.0613 29.7001 53.8082C29.5157 53.5412 29.5386 53.2461 29.8184 53.0261C29.9341 52.9358 30.0651 52.8659 30.191 52.7857C29.1126 51.7518 27.7085 52.0901 27.2622 53.4928C27.0307 54.2203 27.032 54.9515 27.3461 55.6523C27.6602 56.3492 28.1689 56.835 28.9816 56.849C29.7396 56.8617 30.2406 56.4408 30.5776 55.7947C30.626 55.7006 30.6603 55.6052 30.7048 55.506Z" fill="#FDFDFD"/>
<path d="M81.4635 57.4149C81.4571 56.9635 81.4571 56.9635 82.2698 56.8376C82.2698 55.3496 82.2698 53.8604 82.2698 52.3432C81.7928 52.3432 81.3541 52.3432 80.8861 52.3432C80.7373 52.8875 80.8937 53.4623 80.7869 54.041C80.5872 54.041 80.4104 54.041 80.1968 54.041C80.1968 53.2855 80.1968 52.5581 80.1968 51.7849C81.873 51.7849 83.5313 51.7849 85.2368 51.7849C85.2368 52.5428 85.2368 53.2868 85.2368 54.041C85.0435 54.1211 84.8641 54.1033 84.6187 54.055C84.6187 53.5005 84.6187 52.9409 84.6187 52.3495C84.1405 52.3495 83.7246 52.3495 83.2566 52.3495C83.2566 53.8337 83.2566 55.3394 83.2566 56.8821C83.5021 56.8821 83.7488 56.8821 84.0286 56.8821C84.0871 57.1466 84.2473 57.4111 83.7984 57.4137C83.0175 57.42 82.2405 57.4149 81.4635 57.4149Z" fill="#FCFCFC"/>
<path d="M59.5385 51.781C59.6288 52.6039 59.0374 52.1918 58.7322 52.38C58.7322 53.8324 58.7322 55.3382 58.7322 56.8376C58.9637 57.0716 59.644 56.5705 59.5347 57.3768C58.68 57.3768 57.8229 57.3768 56.9632 57.3768C56.897 56.9469 56.897 56.9469 57.7784 56.8503C57.7784 55.3661 57.7784 53.8769 57.7784 52.4373C57.5444 52.1079 56.7228 52.6865 56.9288 51.7798C57.7962 51.781 58.6533 51.781 59.5385 51.781Z" fill="#FBFBFB"/>
<path d="M23.8742 56.9139C23.8742 55.3534 23.8742 53.8642 23.8742 52.3254C23.5906 52.3254 23.326 52.3254 23.1035 52.3254C22.9369 52.1231 23.0119 51.968 23.0272 51.7734C23.8157 51.7734 24.5724 51.7849 25.3265 51.7696C25.7449 51.7607 25.6903 51.9922 25.619 52.2936C25.371 52.3063 25.1243 52.3203 24.8356 52.3343C24.8356 53.8337 24.8356 55.3216 24.8356 56.835C25.0582 56.9965 25.352 56.8261 25.5961 56.9317C25.7297 57.0614 25.6228 57.2102 25.6864 57.3806C24.7873 57.3806 23.9301 57.3806 23.0615 57.3806C22.9191 57.2382 23.0297 57.0868 23.0068 56.9126C23.3095 56.9139 23.5588 56.9139 23.8742 56.9139Z" fill="#FDFDFD"/>
<path d="M85.1172 40.6582C85.6628 41.2712 86.3724 41.2954 87.1329 41.2941C95.1438 41.2763 103.156 41.2801 111.167 41.2788C111.006 41.4861 110.776 41.4047 110.578 41.4047C102.505 41.4111 94.4316 41.4086 86.3584 41.4149C85.776 41.4162 85.3258 41.2471 85.1172 40.6582Z" fill="#AD3535"/>
<path d="M116.506 26.3306C116.551 26.3255 116.597 26.3204 116.643 26.3153C116.812 26.9804 116.562 27.5871 116.312 28.1657C116.183 28.4697 115.786 28.5371 115.472 28.4493C114.992 28.3158 114.513 28.3527 114.032 28.3387C113.143 28.3107 112.716 27.685 113.006 26.8494C113.121 26.5162 113.352 26.4234 113.69 26.431C114.511 26.4488 115.334 26.4361 116.156 26.4361C116.284 26.4348 116.411 26.4387 116.506 26.3306Z" fill="#565453"/>
<path d="M111.054 54.2864C111.054 53.6264 111.054 53.0045 111.054 52.3254C111.543 52.305 112.019 52.2859 112.491 52.3889C112.984 52.497 113.254 52.8048 113.261 53.3186C113.268 53.7599 112.968 54.1313 112.448 54.2101C112.016 54.275 111.575 54.3589 111.054 54.2864Z" fill="#020202"/>
<path d="M99.521 52.3572C101.3 52.2185 102.174 53.0948 102.188 54.5141C102.202 56.0173 101.337 56.9355 99.521 56.8757C99.521 55.37 99.521 53.8629 99.521 52.3572Z" fill="#010101"/>
<path d="M74.9201 52.4996C75.2546 53.4102 75.5471 54.2063 75.8574 55.052C75.2558 55.052 74.6874 55.052 74.0464 55.052C74.3351 54.2114 74.606 53.4178 74.9201 52.4996Z" fill="#070606"/>
</svg>
