<svg width="58" height="61" viewBox="0 0 58 61" fill="none" xmlns="http://www.w3.org/2000/svg">
<path d="M6.52962 50.9798C6.51523 51.586 6.39175 52.1649 6.10856 52.7059C5.79733 53.3003 5.34246 53.7411 4.7219 54.001C4.23802 54.2037 3.7304 54.32 3.20647 54.3015C2.45043 54.2747 1.74092 54.0878 1.13954 53.5955C0.773631 53.2958 0.518022 52.9179 0.328833 52.4884C0.0996009 51.9683 0.0156769 51.4215 0.0108812 50.8582C0.00992208 50.7388 -0.00110794 50.6194 9.09759e-05 50.5002C0.000810325 50.429 0.0384563 50.3813 0.118304 50.3782C0.206065 50.3746 0.293585 50.3628 0.381106 50.3628C0.836214 50.3616 1.29132 50.3604 1.74643 50.364C2.06774 50.3667 2.06966 50.371 2.07254 50.682C2.07445 50.8736 2.07134 51.0652 2.07325 51.2568C2.07853 51.7721 2.39121 52.2287 2.87125 52.3989C3.46328 52.609 4.17783 52.299 4.3627 51.6844C4.55069 51.0592 4.4603 50.4933 4.04091 49.9787C3.79969 49.6828 3.49637 49.4648 3.1916 49.2497C2.81418 48.983 2.41878 48.7415 2.03369 48.4857C1.61215 48.2058 1.23353 47.8744 0.913425 47.4838C0.573412 47.0685 0.375112 46.585 0.283514 46.0563C0.223089 45.7074 0.21086 45.3544 0.242512 45.0062C0.309651 44.2693 0.527853 43.5856 1.05346 43.0332C1.43208 42.6351 1.89102 42.3773 2.42382 42.2481C2.67199 42.1879 2.92401 42.1442 3.17889 42.1368C3.99176 42.113 4.74851 42.2953 5.39593 42.808C5.81339 43.1387 6.07835 43.5797 6.23757 44.0878C6.36801 44.505 6.40086 44.9312 6.38647 45.364C6.38072 45.5386 6.40206 45.7141 6.37065 45.8999C6.26826 45.9453 6.1793 45.9342 6.09298 45.9347C5.59015 45.9366 5.08709 45.9361 4.58402 45.9366C4.56028 45.9366 4.53607 45.9383 4.51233 45.9361C4.38956 45.9256 4.35887 45.899 4.35695 45.7726C4.35311 45.541 4.35479 45.3096 4.35743 45.0779C4.35887 44.965 4.34184 44.8563 4.31355 44.7472C4.11213 43.9715 3.04438 43.8444 2.58231 44.3468C2.54515 44.3875 2.50774 44.4309 2.48232 44.4794C2.17804 45.0594 2.25333 45.7175 2.68446 46.1664C2.98107 46.4752 3.33667 46.7006 3.69515 46.9246C4.15481 47.2116 4.62766 47.4797 5.05376 47.8162C5.70165 48.3279 6.19201 48.9545 6.39654 49.7715C6.49557 50.1671 6.53945 50.571 6.52962 50.9798Z" fill="#090909"/>
<path d="M7.56001 58.4541C7.45019 58.3397 7.3243 58.2503 7.18643 58.1872C7.20345 58.1047 7.2646 58.0858 7.30536 58.0531C7.76502 57.6858 7.77725 56.8947 7.15549 56.5422C6.87087 56.3808 6.56035 56.3218 6.23784 56.3204C5.56765 56.3177 4.89746 56.3189 4.22702 56.3199C3.97957 56.3204 3.97405 56.3254 3.97405 56.575C3.97309 57.6922 3.97357 58.8095 3.97405 59.9267C3.97405 60.0058 3.96278 60.0869 4.00427 60.1598C4.08315 60.2178 4.17355 60.2005 4.25987 60.2008C4.93822 60.2017 5.61657 60.1989 6.29467 60.2032C6.45509 60.2041 6.61382 60.1895 6.76896 60.1622C7.00515 60.1207 7.22959 60.0413 7.42909 59.8982C7.89451 59.5639 7.95733 58.8685 7.56001 58.4541ZM5.59906 57.2774H5.71823V57.2808C5.82182 57.2808 5.92589 57.2728 6.02827 57.2824C6.20475 57.2995 6.27933 57.3839 6.27357 57.5414C6.26854 57.6774 6.17958 57.7771 6.02564 57.7721C5.82877 57.7656 5.63359 57.8234 5.43649 57.7774C5.29861 57.7452 5.29022 57.7412 5.28351 57.6145C5.26624 57.2944 5.28183 57.2776 5.59906 57.2774ZM6.26206 59.2188C6.21746 59.2351 6.17166 59.2584 6.12611 59.2591C5.86354 59.2629 5.60098 59.2608 5.34202 59.2608C5.2485 59.1078 5.28998 58.9545 5.2895 58.8068C5.28926 58.7649 5.32067 58.7356 5.36192 58.7219C5.39189 58.7119 5.42234 58.6956 5.45303 58.6948C5.71536 58.6884 5.97888 58.662 6.23832 58.7212C6.38124 58.7536 6.45892 58.8433 6.46516 58.9629C6.47163 59.0886 6.41361 59.1629 6.26206 59.2188Z" fill="#090909"/>
<path d="M13.5576 44.0221C13.5564 44.2369 13.5396 44.2568 13.3286 44.2576C12.7857 44.2595 12.2426 44.2573 11.6998 44.2585C11.5897 44.2588 11.4756 44.2432 11.3777 44.3103C11.3384 44.3892 11.3545 44.4703 11.3545 44.5492C11.354 47.5833 11.3545 50.6175 11.3547 53.6517C11.3547 53.7315 11.3569 53.8116 11.3521 53.8912C11.3447 54.0111 11.3144 54.0428 11.1953 54.0608C11.1559 54.0665 11.1157 54.066 11.0759 54.066C10.5567 54.0663 10.0378 54.0663 9.51894 54.066C9.4789 54.066 9.43838 54.0694 9.39929 54.0634C9.33791 54.054 9.2981 54.0181 9.29595 53.9519C9.29379 53.8802 9.29331 53.8082 9.29331 53.7365C9.29283 50.6863 9.29187 47.6361 9.29403 44.5858C9.29427 44.2204 9.26429 44.2686 8.97967 44.264C8.42889 44.2552 7.87811 44.2604 7.32709 44.2602C7.08179 44.2602 7.06165 44.248 7.05901 44.0101C7.05421 43.547 7.05685 43.0838 7.05709 42.6207C7.05733 42.5811 7.05949 42.5406 7.06788 42.502C7.08491 42.4257 7.12327 42.3723 7.21343 42.3739C7.26906 42.3751 7.32469 42.362 7.38032 42.3622C9.28851 42.3648 11.1965 42.3684 13.1047 42.3718C13.1766 42.3718 13.2485 42.3706 13.3202 42.3725C13.531 42.3787 13.5552 42.4018 13.5566 42.6087C13.5586 42.8802 13.5571 43.1516 13.5574 43.4231C13.5574 43.6228 13.5586 43.8223 13.5576 44.0221Z" fill="#090909"/>
<path d="M13.6493 58.4555C13.6411 58.7879 13.591 59.1176 13.4294 59.4226C13.2095 59.8368 12.8623 60.0739 12.4266 60.2147C12.0856 60.325 11.7324 60.3334 11.3931 60.2866C10.9678 60.2279 10.5656 60.073 10.2652 59.7281C10.0072 59.432 9.89378 59.0869 9.86788 58.7035C9.82112 58.0105 9.83958 57.3167 9.83671 56.6235C9.83623 56.5285 9.82424 56.4309 9.90409 56.3199C10.2791 56.3199 10.6539 56.3177 11.0284 56.3211C11.1586 56.322 11.1725 56.3419 11.1778 56.4786C11.1802 56.5424 11.1781 56.6064 11.1781 56.6702C11.1781 57.1654 11.1824 57.6606 11.1759 58.1558C11.1735 58.3399 11.1989 58.5208 11.2205 58.7011C11.2668 59.0924 11.5718 59.2771 11.9456 59.1663C12.1283 59.1121 12.2178 58.9802 12.2695 58.8147C12.3173 58.662 12.33 58.5033 12.3293 58.3426C12.3273 57.7596 12.3285 57.1767 12.3285 56.5937V56.382C12.3724 56.3208 12.4127 56.3201 12.4527 56.3201C12.7882 56.3196 13.1237 56.318 13.4589 56.3204C13.627 56.3216 13.6526 56.3448 13.6531 56.5151C13.6555 57.1621 13.6648 57.809 13.6493 58.4555Z" fill="#090909"/>
<path d="M18.7931 59.0186C18.8332 58.9824 18.8548 58.9581 18.8804 58.9406C19.3995 58.5874 19.576 58.0937 19.46 57.4906C19.3787 57.069 19.1475 56.751 18.7624 56.5458C18.5258 56.4194 18.2747 56.3604 18.0102 56.3376C17.6117 56.3031 17.2127 56.3259 16.814 56.3204C16.5428 56.3165 16.2711 56.3172 15.9997 56.3206C15.8615 56.3223 15.8359 56.3508 15.8275 56.4897C15.8239 56.5453 15.8268 56.6014 15.8268 56.6573V59.7953C15.8268 59.8751 15.8241 59.9552 15.8275 60.0348C15.8335 60.1763 15.8524 60.1974 16.0011 60.2001C16.2246 60.2041 16.4481 60.2013 16.6715 60.2013H17.1314C17.195 60.101 17.2101 60.0226 17.1856 59.9296C17.1552 59.8135 17.1616 59.6936 17.1844 59.5747C17.1947 59.5207 17.1993 59.4644 17.1979 59.4092C17.194 59.2574 17.2048 59.2473 17.341 59.2421C17.458 59.2375 17.5427 59.285 17.5988 59.3823C17.7024 59.5622 17.8414 59.7181 17.9373 59.9034C18.0558 60.1327 18.2567 60.2384 18.5085 60.218C18.8116 60.1936 19.1144 60.2087 19.417 60.2003C19.4597 60.1991 19.5132 60.226 19.5542 60.1533C19.3075 59.7854 19.0559 59.4104 18.7931 59.0186ZM17.8666 58.1721C17.8146 58.1896 17.7589 58.2042 17.7048 58.2059C17.5465 58.2102 17.388 58.2073 17.1947 58.2073C17.1947 57.9508 17.1935 57.721 17.1955 57.4913C17.1964 57.3843 17.2266 57.3551 17.3396 57.346C17.5074 57.3328 17.6741 57.358 17.8359 57.3923C18.0263 57.4326 18.134 57.5843 18.1294 57.7726C18.1239 58.0001 18.0642 58.1061 17.8666 58.1721Z" fill="#090909"/>
<path d="M20.4643 53.7294C20.2051 52.4001 19.9442 51.0714 19.6826 49.7429C19.5579 49.1099 19.4311 48.4773 19.3047 47.8445C19.1453 47.0478 18.9858 46.251 18.8259 45.4544C18.6364 44.5089 18.4463 43.5636 18.2573 42.6178C18.2099 42.3804 18.2072 42.3751 17.9631 42.3725C17.4685 42.3672 16.9735 42.3622 16.4786 42.36C16.2794 42.3593 16.0799 42.3605 15.8809 42.3715C15.7427 42.3792 15.7207 42.4063 15.6871 42.5377C15.6811 42.5607 15.6814 42.5852 15.6768 42.6087C15.5051 43.4924 15.3349 44.3765 15.1608 45.2599C15.0466 45.8383 14.9244 46.4153 14.8097 46.9937C14.6378 47.8612 14.4707 48.7296 14.2985 49.5971C14.1868 50.1595 14.059 50.7189 13.9578 51.2832C13.8286 52.005 13.6789 52.7227 13.5329 53.4411C13.501 53.5972 13.4765 53.755 13.4547 53.9128C13.4384 54.0301 13.4634 54.0581 13.5746 54.0655C13.6223 54.0687 13.6703 54.0663 13.7182 54.0663H15.0356C15.4003 54.0663 15.4034 54.067 15.4826 53.7106C15.6279 53.0574 15.7677 52.403 15.9123 51.7498C15.9494 51.5815 15.9859 51.5479 16.1544 51.5467C16.6815 51.5431 17.2083 51.5434 17.7353 51.5469C17.9145 51.5481 17.9509 51.5817 17.9941 51.7635C18.0528 52.0117 18.106 52.2613 18.161 52.5105C18.2583 52.9543 18.3528 53.3989 18.453 53.8421C18.5014 54.0567 18.5187 54.0663 18.7458 54.0665C19.2409 54.067 19.7358 54.067 20.231 54.066C20.3178 54.0658 20.4072 54.079 20.4969 54.0219C20.5372 53.9092 20.482 53.821 20.4643 53.7294ZM17.4133 49.6406C17.0556 49.6441 16.6978 49.6417 16.3619 49.6417C16.2854 49.5837 16.2952 49.5221 16.3053 49.4713C16.4252 48.8624 16.4856 48.2449 16.5815 47.6327C16.6985 46.8865 16.8079 46.1393 16.9213 45.3925C16.9237 45.3777 16.9337 45.3637 16.9608 45.3033C17.0371 45.4822 17.033 45.6354 17.0548 45.7796C17.2059 46.7778 17.3483 47.7778 17.4934 48.777C17.5253 48.9974 17.5634 49.2168 17.5874 49.4379C17.6063 49.6137 17.5819 49.6389 17.4133 49.6406Z" fill="#090909"/>
<path d="M25.3164 59.5358C25.3313 59.7173 25.272 59.8348 25.1075 59.9209C24.9013 60.0286 24.6815 60.0955 24.4654 60.1756C24.0734 60.3209 23.6669 60.2957 23.2615 60.2984C23.1289 60.2991 23.0162 60.2329 22.897 60.1953C22.4239 60.0451 21.9995 59.8123 21.7417 59.3644C21.0401 58.1459 21.5372 56.6513 23.0044 56.2988C23.6199 56.1508 24.2369 56.1983 24.8164 56.4937C24.9956 56.5849 25.1483 56.7124 25.2991 56.8417C25.39 56.9196 25.3917 56.9995 25.3011 57.0858C25.0992 57.2779 24.8934 57.4659 24.6827 57.6479C24.5925 57.7256 24.5481 57.7162 24.452 57.6412C24.3892 57.5923 24.3318 57.5357 24.2666 57.4903C23.9185 57.2469 23.2936 57.2436 23.002 57.6201C22.767 57.9234 22.733 58.2651 22.8543 58.6306C23.0212 59.133 23.5737 59.2838 24.0137 59.1529C24.1045 59.1258 24.1542 59.062 24.1513 58.9557C24.1455 58.7323 24.1511 58.5085 24.1489 58.2848C24.1482 58.2018 24.169 58.1421 24.2652 58.1419C24.5994 58.1416 24.9337 58.1419 25.2574 58.1419C25.3181 58.2292 25.3176 58.308 25.313 58.3881C25.2915 58.7706 25.285 59.1538 25.3164 59.5358Z" fill="#090909"/>
<path d="M27.7439 51.51C27.6729 52.4203 27.2735 53.1577 26.5311 53.6951C26.1712 53.9557 25.7599 54.1135 25.3264 54.2034C24.8632 54.2993 24.3944 54.3447 23.9232 54.2627C23.0852 54.1169 22.3593 53.7641 21.8306 53.0769C21.4652 52.6023 21.2928 52.0503 21.2424 51.4582C21.2316 51.3311 21.2278 51.2031 21.2276 51.0755C21.2268 49.183 21.2268 47.2903 21.2278 45.3976C21.228 45.094 21.2472 44.793 21.3132 44.4942C21.4736 43.7686 21.857 43.19 22.4497 42.7499C22.8204 42.4744 23.2437 42.3094 23.694 42.2198C24.2311 42.1128 24.7728 42.0931 25.3089 42.2176C25.9266 42.361 26.4834 42.6322 26.9322 43.0885C27.2085 43.3693 27.4173 43.7 27.553 44.0724C27.6938 44.4585 27.7631 44.8575 27.7612 45.2688C27.7593 45.6762 27.7605 46.0834 27.7602 46.4908C27.7602 46.5467 27.7617 46.6028 27.7581 46.6584C27.7528 46.7409 27.7106 46.7917 27.6238 46.7965C27.5919 46.7985 27.56 46.7989 27.5281 46.7989C27.0011 46.7994 26.474 46.7999 25.9467 46.7994C25.8839 46.7992 25.8182 46.809 25.7571 46.767C25.717 46.6913 25.7031 46.6095 25.7101 46.5179C25.748 46.0081 25.7468 45.4978 25.6954 44.9889C25.647 44.5057 25.2792 44.1317 24.7977 44.0708C24.551 44.0393 24.3049 44.0338 24.0616 44.1022C23.6573 44.2158 23.393 44.4556 23.3245 44.8861C23.3055 45.0043 23.2854 45.1211 23.2856 45.2419C23.2871 47.2224 23.2868 49.2029 23.2868 51.1834C23.2868 51.3194 23.2978 51.4517 23.3293 51.5863C23.4355 52.04 23.7371 52.2824 24.174 52.3563C24.4809 52.4078 24.7939 52.4107 25.09 52.2743C25.4168 52.1234 25.635 51.8843 25.6811 51.5196C25.7149 51.2522 25.7527 50.9856 25.7079 50.7108C25.6777 50.5247 25.6906 50.33 25.7163 50.1384C25.7374 49.9818 25.7336 49.8216 25.741 49.6597C25.8266 49.6156 25.8913 49.6266 25.9539 49.6266C26.481 49.6254 27.008 49.6252 27.5351 49.6262C27.7513 49.6266 27.7605 49.6307 27.7593 49.8341C27.7557 50.3928 27.7873 50.9525 27.7439 51.51Z" fill="#090909"/>
<path d="M30.7123 60.0857C30.7116 60.1598 30.6711 60.2037 30.5912 60.2013C30.5593 60.2003 30.5272 60.2015 30.4953 60.2015C29.5539 60.2015 28.6125 60.2017 27.6709 60.201C27.616 60.201 27.5589 60.2123 27.4951 60.1701C27.4618 60.1466 27.4637 60.0941 27.464 60.0492C27.4656 58.8605 27.4695 57.6719 27.4728 56.4832V56.383C27.5215 56.3089 27.581 56.3201 27.6352 56.3201C28.5686 56.3196 29.5021 56.3189 30.4356 56.3204C30.6236 56.3206 30.6329 56.3326 30.6351 56.5278C30.637 56.7273 30.6377 56.9268 30.6351 57.1263C30.6327 57.3019 30.5927 57.339 30.4267 57.3376C29.9723 57.3333 29.5177 57.3287 29.0633 57.3268C28.9849 57.3263 28.9034 57.311 28.8108 57.358C28.7996 57.4342 28.7868 57.5045 28.7794 57.5755C28.7677 57.6846 28.8082 57.7378 28.918 57.7527C28.9729 57.7601 29.0295 57.757 29.0851 57.757C29.4362 57.7575 29.7872 57.7563 30.1383 57.7582C30.2162 57.7587 30.2968 57.7417 30.3958 57.7865C30.3958 57.8719 30.3915 57.9656 30.3965 58.0589C30.4051 58.2164 30.3718 58.3757 30.4226 58.5325C30.4402 58.5867 30.4078 58.6407 30.3617 58.71H28.8161C28.8034 58.8366 28.7866 58.9433 28.7835 59.0502C28.7809 59.1507 28.8214 59.1896 28.9329 59.1929C29.1084 59.1982 29.2839 59.1951 29.4594 59.1953C29.8026 59.1953 30.1457 59.1946 30.4888 59.196C30.5581 59.1963 30.6317 59.1802 30.7133 59.2358C30.7133 59.5147 30.7147 59.8003 30.7123 60.0857Z" fill="#090909"/>
<path d="M35.7253 54.032C35.6515 54.0689 35.5635 54.0653 35.4774 54.0653C34.9182 54.0665 34.3593 54.0622 33.8003 54.0687C33.6354 54.0706 33.5431 54.0164 33.4738 53.8572C32.9779 52.7164 32.4707 51.5803 31.9686 50.4422C31.7531 49.9537 31.5413 49.4633 31.3255 48.9751C31.2889 48.8919 31.2584 48.802 31.1546 48.6917C31.1404 49.0914 31.1479 49.4382 31.1462 49.7844C31.1447 50.136 31.1459 50.4873 31.1459 50.8386V54.0073C31.0536 54.0718 30.9721 54.0648 30.8935 54.0651C30.3746 54.0665 29.8554 54.0658 29.3363 54.0658C29.3044 54.0658 29.2723 54.066 29.2406 54.0631C29.1574 54.0552 29.1087 54.0102 29.104 53.9255C29.1006 53.8617 29.1016 53.7977 29.1016 53.7339C29.1013 50.0441 29.1011 46.3544 29.1011 42.6648C29.1011 42.3747 29.103 42.3723 29.396 42.372C29.8751 42.3715 30.3542 42.372 30.8335 42.3723C30.8973 42.3723 30.9613 42.3727 31.0249 42.3763C31.1004 42.3807 31.1407 42.4238 31.1438 42.4989C31.1464 42.5545 31.1462 42.6106 31.1462 42.6665C31.1459 44.112 31.1457 45.5575 31.1452 47.003V47.3752C31.209 47.3872 31.226 47.3596 31.2385 47.3301C31.6262 46.4119 32.0125 45.4928 32.4017 44.575C32.6818 43.9142 32.9712 43.2571 33.244 42.5931C33.3133 42.4241 33.409 42.3667 33.5865 42.3684C34.161 42.3735 34.736 42.3639 35.3107 42.3596C35.3676 42.3591 35.4225 42.362 35.4834 42.4135C35.4788 42.5006 35.4568 42.5751 35.4273 42.6504C34.9791 43.794 34.5331 44.9386 34.0864 46.0829C33.866 46.6474 33.6512 47.2143 33.422 47.7754C33.3395 47.9775 33.3551 48.16 33.4371 48.3528C33.6275 48.8005 33.8126 49.2504 33.9979 49.7C34.2929 50.4153 34.5856 51.1316 34.8803 51.8469C35.1479 52.4961 35.4167 53.1445 35.6846 53.7936C35.7143 53.8653 35.7642 53.9339 35.7253 54.032Z" fill="#090909"/>
<path d="M35.7775 59.0385C35.7846 59.0178 35.7849 59.0078 35.7902 59.0035C35.8261 58.9728 35.8616 58.9409 35.9002 58.9138C36.2191 58.6917 36.3903 58.3869 36.4486 58.0025C36.5385 57.4093 36.2848 56.8021 35.6717 56.5115C35.3691 56.3681 35.0488 56.324 34.7212 56.3211C34.1469 56.316 33.5727 56.3192 32.9984 56.3201C32.9447 56.3204 32.8864 56.306 32.8408 56.3499C32.8058 56.6935 32.8161 59.9938 32.8533 60.1698C32.8739 60.1787 32.8957 60.196 32.9176 60.196C33.2844 60.1991 33.6511 60.202 34.0179 60.1996C34.1215 60.1991 34.1536 60.1612 34.1632 60.0511C34.169 59.9878 34.1649 59.9236 34.1649 59.8598C34.1652 59.6619 34.1652 59.4641 34.1652 59.2675C34.3709 59.2094 34.5064 59.2677 34.6085 59.4315C34.7303 59.6269 34.8651 59.8145 34.9874 60.0097C35.0711 60.1432 35.177 60.2082 35.3408 60.2041C35.6916 60.1953 36.0427 60.2022 36.3937 60.2001C36.4359 60.1998 36.4915 60.2255 36.5239 60.1447C36.2774 59.7794 36.0252 59.4054 35.7775 59.0385ZM34.7169 58.2049C34.5747 58.2145 34.4313 58.2069 34.2884 58.2057C34.211 58.2052 34.1709 58.1611 34.1688 58.0872C34.1656 57.9762 34.168 57.8649 34.168 57.7539H34.1664V57.468C34.1664 57.3887 34.2143 57.34 34.2843 57.3553C34.427 57.3865 34.5692 57.3623 34.7109 57.3747C34.9953 57.3994 35.0862 57.5246 35.1121 57.7841C35.1341 58.003 34.9507 58.1891 34.7169 58.2049Z" fill="#090909"/>
<path d="M41.9295 52.3486C41.9309 52.8754 41.9288 53.4025 41.9266 53.9296C41.9266 53.96 41.9134 53.9905 41.906 54.0221C41.7971 54.0744 41.6847 54.0653 41.5744 54.0653C40.0892 54.0663 38.6039 54.0665 37.1187 54.066C36.901 54.066 36.8737 54.038 36.8667 53.8181C36.865 53.7622 36.866 53.7063 36.866 53.6505V42.7264C36.866 42.3555 36.866 42.3567 37.2415 42.3715C37.3609 42.3761 37.4808 42.3715 37.6007 42.3715C38.9101 42.3715 40.2196 42.3718 41.5293 42.3718C41.5852 42.3718 41.641 42.3708 41.6969 42.3723C41.907 42.3785 41.9276 42.3982 41.9283 42.6101C41.9297 43.0734 41.9293 43.5365 41.9293 43.9998C41.9293 44.252 41.9261 44.2576 41.6784 44.2578C40.9039 44.2592 40.1294 44.2583 39.3549 44.2588C39.2672 44.2588 39.1789 44.2573 39.0917 44.2662C38.9761 44.2777 38.9399 44.3182 38.9291 44.4324C38.9253 44.4719 38.9281 44.5122 38.9281 44.5523C38.9276 45.3985 38.9272 46.245 38.9267 47.0915C38.9265 47.1155 38.9257 47.1395 38.9267 47.1634C38.9348 47.3663 38.9607 47.3939 39.142 47.3936C39.589 47.3932 40.0359 47.4006 40.4831 47.4042C40.6747 47.4059 40.8663 47.4018 41.0579 47.4075C41.2073 47.4121 41.2253 47.4294 41.2269 47.5761C41.2308 47.9037 41.2293 48.231 41.2281 48.5583C41.2274 48.7888 41.2238 49.0192 41.2214 49.2526C41.0936 49.3053 40.9967 49.2902 40.9025 49.2904C40.3436 49.2924 39.7846 49.2914 39.2257 49.2914C39.1857 49.2914 39.1456 49.289 39.1058 49.2912C38.978 49.2984 38.9413 49.3348 38.9293 49.465C38.9265 49.4969 38.9281 49.529 38.9281 49.5609C38.9284 50.3194 38.9284 51.0781 38.9288 51.8369C38.9291 52.1011 38.8974 52.1611 39.2552 52.1639C40.0537 52.1707 40.8521 52.1659 41.6506 52.1656C41.6825 52.1656 41.7144 52.1613 41.7463 52.1623C41.8904 52.1666 41.929 52.2006 41.9295 52.3486Z" fill="#090909"/>
<path d="M44.7964 58.7594C45.0623 58.9946 45.3337 59.2346 45.6119 59.4804C45.579 59.5723 45.521 59.6339 45.4603 59.6943C45.1817 59.9711 44.8455 60.1245 44.4674 60.2308C44.1657 60.3159 43.8696 60.2737 43.5718 60.2996C43.427 60.312 43.3092 60.2375 43.1824 60.1996C42.663 60.044 42.212 59.7759 41.959 59.2759C41.5053 58.38 41.6017 57.2381 42.6011 56.5753C42.9201 56.3638 43.274 56.2664 43.6552 56.2386C43.9365 56.2182 44.2132 56.2295 44.4842 56.2933C44.9373 56.4 45.3265 56.617 45.6253 57.0254C45.3416 57.2779 45.075 57.515 44.816 57.7455C44.7028 57.7244 44.6597 57.6402 44.5949 57.5843C44.4079 57.4232 44.1981 57.3244 43.9449 57.3254C43.5277 57.327 43.25 57.5179 43.1157 57.9143C42.9951 58.2697 43.0378 58.6052 43.2778 58.9004C43.6092 59.3075 44.2144 59.28 44.5803 58.9447C44.6443 58.886 44.694 58.8107 44.7964 58.7594Z" fill="#090909"/>
<path d="M47.7667 11.5033C47.5765 10.5268 47.2202 9.61031 46.7368 8.74296C46.168 7.72286 45.4842 6.78573 44.683 5.93636C44.0802 5.2973 43.4232 4.71627 42.7168 4.19471C41.8239 3.5355 40.8775 2.9655 39.8701 2.4943C38.9465 2.06218 38.001 1.68714 37.0373 1.35718C36.0648 1.0241 35.0735 0.758881 34.0671 0.547859C33.3821 0.40422 32.6917 0.292953 31.9976 0.203988C31.4693 0.136365 30.9389 0.078334 30.4073 0.0593899C30.1366 0.049798 29.8721 -0.00967197 29.5993 0.00135875C28.8507 0.0322927 28.1004 -0.0374886 27.3515 0.048599C26.9727 0.0922423 26.5881 0.0826503 26.2087 0.123656C25.6481 0.184085 25.0887 0.255065 24.5319 0.348587C23.6754 0.492465 22.8283 0.676391 21.9905 0.904439C21.1294 1.13896 20.2834 1.41857 19.4502 1.73894C18.2292 2.20822 17.0433 2.74849 15.9304 3.4403C15.0957 3.95923 14.314 4.54985 13.5981 5.22225C12.8708 5.90519 12.2044 6.64401 11.6244 7.45884C10.8799 8.5046 10.297 9.6295 9.93513 10.8649C9.77831 11.4002 9.68096 11.9467 9.64763 12.5018C9.62029 12.9555 9.66489 13.407 9.75529 13.8533C9.86439 14.3916 10.0795 14.884 10.396 15.3321C10.5964 15.6161 10.8554 15.7753 11.2184 15.775C17.0651 15.7714 22.9115 15.7726 28.7581 15.7724C34.6047 15.7724 40.4511 15.771 46.2977 15.7755C46.6697 15.7758 46.9404 15.6288 47.1411 15.3295C47.5573 14.7096 47.7997 14.0257 47.8698 13.2843C47.9261 12.6864 47.881 12.091 47.7667 11.5033ZM45.957 13.0859C45.9364 13.2924 45.8858 13.4917 45.8292 13.691C45.7916 13.8228 45.7088 13.8703 45.5851 13.8737C45.5132 13.8756 45.4415 13.8744 45.3695 13.8744H12.1399C12.0601 13.8744 11.9798 13.8782 11.9004 13.8715C11.7963 13.8627 11.7263 13.8111 11.6947 13.7032C11.6232 13.4588 11.5716 13.2118 11.5613 12.9565C11.5297 12.169 11.7381 11.4292 12.0148 10.7048C12.3675 9.78129 12.8931 8.95686 13.4921 8.17704C13.8956 7.6514 14.3397 7.16029 14.8212 6.7054C15.5947 5.97473 16.4436 5.34358 17.3696 4.81962C18.44 4.21413 19.5646 3.72902 20.721 3.31369C21.9677 2.86575 23.2431 2.53027 24.5465 2.29767C25.2587 2.17081 25.9752 2.08089 26.6957 2.01375C27.5937 1.93006 28.4929 1.90512 29.3928 1.92478C30.2035 1.94253 31.0118 2.00919 31.8168 2.1135C32.6296 2.21877 33.4351 2.36313 34.2331 2.54969C35.8267 2.9221 37.3603 3.46596 38.8503 4.141C40.1286 4.72035 41.3035 5.46084 42.3648 6.37639C43.3918 7.26245 44.2538 8.29118 44.9363 9.46619C45.3379 10.1575 45.6616 10.882 45.8398 11.6654C45.9462 12.1332 46.0052 12.6052 45.957 13.0859Z" fill="#090909"/>
<path d="M47.2395 17.6414C47.1246 17.211 46.7918 16.9397 46.4036 16.9421C45.7567 16.9465 45.1107 16.9098 44.4643 16.9114C43.5862 16.9138 42.7078 16.929 41.8298 16.9378C41.7573 16.9385 41.6883 16.9498 41.618 16.9692C41.332 17.0474 41.1653 17.257 41.0334 17.5004C40.6766 18.1596 40.3246 18.8217 39.9702 19.4823C39.7516 19.89 39.5317 20.2969 39.3118 20.7039C39.2142 20.8844 39.2022 20.8892 39.0176 20.8204C38.404 20.5926 37.7899 20.3667 37.1777 20.1353C36.0584 19.7118 34.9403 19.2843 33.8215 18.8596C32.3224 18.2908 30.8218 17.7258 29.3244 17.1527C28.8937 16.9877 28.4559 16.9062 27.9931 16.9067C22.5934 16.9114 17.194 16.9098 11.7945 16.9098C11.5871 16.9098 11.3804 16.9148 11.173 16.9309C10.8843 16.9534 10.651 17.0661 10.4688 17.2875C10.1585 17.6647 10.1779 18.3754 10.7402 18.6965C10.9587 18.821 11.1965 18.8267 11.4365 18.8267C13.6011 18.8267 15.7658 18.8306 17.9303 18.8255C19.815 18.8212 21.7 18.8363 23.5849 18.8133C25.0464 18.7953 26.5081 18.8095 27.9698 18.8099C28.1787 18.8102 28.382 18.8433 28.5786 18.9169C29.2963 19.1855 30.0157 19.4495 30.7312 19.7231C30.8858 19.7823 31.0537 19.8212 31.1812 19.9399C31.481 19.9938 31.7574 20.1192 32.0399 20.225C33.2014 20.66 34.3617 21.0981 35.5218 21.5374C35.781 21.6355 36.0479 21.7156 36.2908 21.8539C36.2905 21.8582 36.2896 21.8628 36.2877 21.8676C36.296 21.8671 36.3044 21.8666 36.3128 21.8664C36.4505 22.0343 36.6651 22.0376 36.8459 22.1091C37.6307 22.4196 38.4251 22.7052 39.2161 22.9999C39.4998 23.1057 39.7969 23.1548 40.0743 23.0035C40.5198 22.7604 40.7268 22.3354 40.8749 21.8748C40.8754 21.8734 40.8759 21.8717 40.8764 21.8702C40.8917 21.8252 40.9018 21.7772 40.9234 21.7355C41.0557 21.4813 41.1895 21.2278 41.3248 20.9751C41.4826 20.6804 41.6427 20.3868 41.8012 20.0924C41.8542 19.9941 41.9238 19.936 42.0468 19.9444C42.1652 19.9526 42.2849 19.9403 42.4038 19.937C42.2563 19.9089 42.1029 19.9552 41.9604 19.9072C41.9398 19.848 41.9696 19.8068 41.9914 19.7653C42.1065 19.5464 42.234 19.3332 42.3364 19.1085C42.435 18.8917 42.5822 18.7833 42.8222 18.809C42.8615 18.813 42.9021 18.8097 42.9419 18.8099C43.8842 18.8154 44.8266 18.8226 45.7687 18.8255C45.9919 18.8262 46.2152 18.8147 46.4384 18.8051C46.4933 18.803 46.5494 18.7924 46.6024 18.7771C47.0719 18.6409 47.3678 18.1224 47.2395 17.6414Z" fill="#090909"/>
<path d="M49.7528 53.6229C49.544 52.9284 49.3301 52.2352 49.1148 51.5426C48.8735 50.7659 48.633 49.9887 48.3834 49.2147C48.3187 49.0137 48.353 48.8751 48.5182 48.7329C48.9603 48.3528 49.2493 47.8742 49.3663 47.2975C49.4363 46.9519 49.432 46.5999 49.4517 46.2503C49.4737 45.8601 49.4461 45.4695 49.4231 45.0798C49.3979 44.6523 49.2999 44.2377 49.0737 43.8724C48.5033 42.9526 47.6641 42.4636 46.587 42.3936C46.2129 42.3694 45.8367 42.3763 45.4617 42.372C44.7589 42.3636 44.0561 42.3864 43.3537 42.3593C43.2979 42.3572 43.241 42.3572 43.1895 42.4082C43.1859 42.4394 43.1772 42.4785 43.1772 42.5176C43.1792 46.3431 43.1816 50.1688 43.1847 53.9943C43.1847 54.0008 43.1928 54.0075 43.1976 54.014C43.2024 54.0202 43.2077 54.026 43.218 54.0387C43.3537 54.0624 43.4966 54.067 43.64 54.0658C44.0632 54.0627 44.4862 54.0564 44.9094 54.0567C45.2039 54.0567 45.2044 54.0605 45.2044 53.7728C45.2046 52.5268 45.2046 51.2808 45.2048 50.0348C45.2048 49.9309 45.2029 49.8269 45.2092 49.7235C45.2161 49.6111 45.2413 49.583 45.3569 49.5816C45.6758 49.5772 45.9949 49.5799 46.3249 49.5799C46.3839 49.6753 46.4155 49.7559 46.4407 49.8403C46.527 50.1305 46.6133 50.4211 46.704 50.71C47.0308 51.7529 47.3593 52.7951 47.6868 53.8377C47.7571 54.0617 47.7564 54.0651 47.9808 54.0658C48.5237 54.0675 49.0668 54.0667 49.6099 54.0665C49.6888 54.0665 49.7701 54.0749 49.8367 54.0137C49.8749 53.8684 49.7907 53.749 49.7528 53.6229ZM47.3902 46.6774C47.389 46.8299 47.3502 46.9785 47.2931 47.1188C47.1864 47.3809 46.9848 47.539 46.7119 47.6032C46.5647 47.638 46.415 47.6615 46.2623 47.6608C45.9913 47.6596 45.7201 47.6625 45.4492 47.661C45.2291 47.6598 45.2104 47.6409 45.2061 47.4097C45.2027 47.2186 45.2048 47.0272 45.2048 46.8359V45.951C45.2051 45.4966 45.2046 45.0422 45.2053 44.5878C45.2053 44.524 45.206 44.46 45.2128 44.3969C45.2192 44.3348 45.2545 44.2974 45.3211 44.2909C45.4238 44.2811 45.5259 44.2612 45.6288 44.2564C45.9319 44.242 46.234 44.2707 46.5349 44.2966C46.9915 44.3357 47.3682 44.6398 47.3883 45.2187C47.4051 45.7043 47.3938 46.1911 47.3902 46.6774Z" fill="#090909"/>
<path d="M51.8171 58.1373C51.8013 57.5544 51.5648 57.0709 51.1073 56.7151C50.4654 56.2153 49.7372 56.1153 48.9615 56.3208C48.5275 56.4357 48.1537 56.6549 47.8717 57.0105C47.4449 57.5486 47.3531 58.1565 47.5223 58.8099C47.6334 59.2389 47.8554 59.5994 48.2271 59.8531C48.65 60.1413 49.1099 60.3195 49.6691 60.2974C49.7358 60.2974 49.8394 60.2979 49.9432 60.2972C49.9986 60.2969 50.0568 60.3063 50.1053 60.2706C50.1861 60.2111 50.2846 60.2072 50.3758 60.1809C51.0903 59.9739 51.5478 59.5121 51.7595 58.7996C51.8243 58.5812 51.8231 58.3596 51.8171 58.1373ZM50.3168 58.8378C50.0252 59.315 49.2337 59.3346 48.9452 58.8018C48.8469 58.62 48.7783 58.4198 48.7956 58.2562C48.8157 57.9553 48.8893 57.675 49.15 57.487C49.6897 57.0983 50.4072 57.4349 50.4743 58.1076C50.5 58.3661 50.4556 58.6109 50.3168 58.8378Z" fill="#090909"/>
<path d="M53.439 59.5238C53.4412 59.9559 53.0714 60.2638 52.7194 60.2535C52.2504 60.2396 51.9732 59.973 51.9579 59.5202C51.9461 59.178 52.2401 58.7709 52.687 58.8119C53.1472 58.7653 53.4371 59.1716 53.439 59.5238Z" fill="#090909"/>
<path d="M57.3514 51.4779C57.3375 51.5141 57.3341 51.5553 57.3308 51.5949C57.2632 52.4193 56.8865 53.0838 56.2592 53.6049C55.7113 54.0595 55.0675 54.2711 54.357 54.2747C54.0623 54.2763 53.7683 54.2845 53.4739 54.2322C52.3517 54.0334 51.575 53.4138 51.1542 52.3539C50.9259 51.7793 50.8976 51.1736 50.8931 50.5659C50.8921 50.4168 50.9463 50.3655 51.0991 50.3645C51.5462 50.3614 51.9934 50.365 52.4404 50.3657C52.52 50.3657 52.5996 50.3652 52.6792 50.364C52.7665 50.3626 52.8559 50.3489 52.9531 50.4324C52.9531 50.6587 52.9543 50.9052 52.9526 51.1518C52.9509 51.3956 53.0036 51.6244 53.1111 51.8448C53.2748 52.1805 53.548 52.3759 53.9038 52.4349C54.556 52.5431 55.0411 52.2445 55.2478 51.6949C55.412 51.2587 55.3763 50.8189 55.1883 50.3911C55.0221 50.0122 54.7275 49.7444 54.4141 49.4957C53.982 49.153 53.5041 48.8768 53.0459 48.5723C52.679 48.3289 52.3323 48.062 52.0244 47.7466C51.5889 47.3006 51.3168 46.7702 51.1916 46.1594C51.0158 45.3024 51.1084 44.4765 51.4849 43.6888C51.7438 43.1466 52.1435 42.7269 52.6931 42.4742C53.7261 41.9991 54.767 42.0135 55.7923 42.4943C56.4728 42.8137 56.8934 43.3681 57.1198 44.078C57.2322 44.4307 57.2831 44.7921 57.2833 45.1614C57.2833 45.3688 57.2857 45.5767 57.2795 45.7841C57.2756 45.9047 57.2502 45.9335 57.1409 45.9338C56.5342 45.9345 55.9273 45.9309 55.3207 45.9278C55.3058 45.9278 55.2912 45.9167 55.2766 45.9107C55.2137 45.8371 55.2197 45.7481 55.2197 45.6604C55.2197 45.4369 55.214 45.2132 55.2216 44.9897C55.2363 44.5681 54.9411 44.1998 54.5308 44.0993C54.2433 44.0288 53.964 44.0218 53.6959 44.1744C53.4839 44.2945 53.3362 44.4671 53.2703 44.6995C53.112 45.259 53.1722 45.7669 53.6081 46.2006C53.8196 46.4112 54.0541 46.5872 54.3004 46.7481C54.7279 47.0275 55.1679 47.2874 55.595 47.567C56.0997 47.8979 56.5464 48.2936 56.8649 48.8142C57.1425 49.2684 57.3248 49.7537 57.3689 50.294C57.3869 50.5158 57.4065 50.7364 57.4101 50.959C57.413 51.1345 57.4152 51.3093 57.3514 51.4779Z" fill="#090909"/>
<path d="M42.0225 19.9334C41.882 19.92 41.7935 19.9804 41.7328 20.0955C41.4621 20.6094 41.1712 21.1127 40.9135 21.6331C40.8763 21.7081 40.8159 21.7921 40.8746 21.8738C40.8749 21.8741 40.8749 21.8743 40.8753 21.8748C40.8758 21.8734 40.8763 21.8717 40.8768 21.8702C40.8921 21.8252 40.9022 21.7772 40.9238 21.7355C41.0561 21.4813 41.1899 21.2278 41.3252 20.9751C41.483 20.6804 41.6431 20.3868 41.8016 20.0924C41.8546 19.9941 41.9242 19.936 42.0472 19.9444C42.1656 19.9526 42.2853 19.9403 42.4042 19.937C42.2769 19.9367 42.1486 19.9451 42.0225 19.9334ZM36.2322 21.7729C36.1646 21.7148 36.0799 21.687 35.9979 21.6561C34.5153 21.0971 33.0344 20.5326 31.5502 19.9777C31.4339 19.9343 31.3118 19.877 31.1816 19.9399C31.4814 19.9938 31.7578 20.1192 32.0403 20.225C33.2018 20.66 34.3621 21.0981 35.5222 21.5374C35.7814 21.6355 36.0483 21.7156 36.2912 21.8539C36.2938 21.8213 36.2595 21.7961 36.2322 21.7729Z" fill="#090909"/>
<path d="M47.6158 24.7792C47.5455 24.6226 47.5661 24.5008 47.6683 24.3632C48.2123 23.6299 48.2946 22.8201 48.0421 21.9611C47.8611 21.3456 47.5263 20.8161 47.1045 20.3413C46.8775 20.0859 46.5837 19.9595 46.2351 19.9605C45.069 19.9634 43.9032 19.9612 42.7371 19.9622C42.6252 19.9622 42.5137 19.96 42.4036 19.937C42.2847 19.9403 42.165 19.9526 42.0466 19.9444C41.9235 19.936 41.854 19.9941 41.801 20.0924C41.6425 20.3868 41.4823 20.6804 41.3246 20.9751C41.1893 21.2278 41.0555 21.4813 40.9232 21.7355C40.9016 21.7772 40.8915 21.8252 40.8762 21.8702C40.8757 21.8717 40.8752 21.8734 40.8747 21.8748C40.8834 21.887 40.8951 21.8993 40.9097 21.9112C41.0241 21.9597 41.1455 21.9455 41.2644 21.9458C42.5259 21.9467 43.7876 21.9463 45.0494 21.9465C45.2409 21.9467 45.4325 21.9431 45.6241 21.9498C45.7704 21.9549 45.8891 22.0108 45.9615 22.1412C46.3487 22.8376 46.2516 23.3512 45.3683 23.5229C45.3527 23.526 45.3366 23.527 45.321 23.5299C44.8307 23.62 44.3516 23.5268 43.8732 23.4368C43.4104 23.3498 42.9611 23.2033 42.4952 23.1265C40.9714 22.8757 39.5878 23.1436 38.4105 24.2042C38.2328 24.3644 38.0429 24.5114 37.8643 24.6706C37.459 25.032 37.0207 25.1176 36.5155 24.8886C36.1668 24.7305 35.8192 24.5689 35.4602 24.433C34.4732 24.0584 33.4978 24.0582 32.5243 24.4874C31.9889 24.7236 31.5028 25.0471 30.9892 25.3219C30.4957 25.5861 29.9982 25.8317 29.4486 25.9691C28.8132 26.1281 28.3195 25.9187 27.9116 25.4456C27.7032 25.2037 27.5061 24.9516 27.2915 24.7157C26.8721 24.2545 26.4511 23.7934 25.8559 23.5452C24.9397 23.163 24.029 23.2589 23.119 23.5682C22.5265 23.7699 21.9842 24.079 21.4305 24.3627C20.9864 24.59 20.5409 24.5924 20.0894 24.4063C19.8383 24.3027 19.5863 24.202 19.3374 24.0932C18.7641 23.8428 18.1788 23.6455 17.5419 23.6246C16.7267 23.5977 15.9821 23.8361 15.2638 24.1862C14.8235 24.4008 14.3706 24.5754 13.8862 24.6576C12.9005 24.8248 12.159 24.4056 11.7893 23.4778C11.6632 23.1611 11.6164 22.8337 11.621 22.4937C11.6284 21.9465 11.6231 21.9465 12.165 21.9465C20.0465 21.9463 27.9277 21.9465 35.8091 21.9453C35.9592 21.9453 36.1131 21.9707 36.2582 21.9055C36.2738 21.8918 36.2831 21.8791 36.2874 21.8676C36.2894 21.8628 36.2903 21.8582 36.2906 21.8539C36.0477 21.7156 35.7808 21.6355 35.5216 21.5374C34.3615 21.0981 33.2012 20.66 32.0397 20.225C31.7572 20.1192 31.4808 19.9938 31.181 19.9399C31.0887 19.9785 30.9916 19.9605 30.8966 19.9605C28.1734 19.9617 25.4505 19.9614 22.7272 19.9617H11.0119C10.5722 19.9617 10.2482 20.1516 10.0521 20.5492C10.0204 20.6132 9.99069 20.6784 9.96335 20.7444C9.70271 21.377 9.57802 22.0302 9.62286 22.7184C9.64468 23.0541 9.69599 23.3814 9.78279 23.704C9.8672 24.0162 9.85977 24.3111 9.71254 24.6085C9.43775 25.1636 9.28884 25.7535 9.25575 26.3741C9.23705 26.7254 9.24832 27.0736 9.29196 27.422C9.35166 27.8968 9.45597 28.3601 9.62598 28.8088C9.80605 29.2834 10.0612 29.7131 10.3858 30.0999C10.4791 30.2111 10.5144 30.3123 10.4578 30.4466C10.4367 30.4975 10.4302 30.5545 10.4165 30.6085C10.3213 30.9864 10.2504 31.3698 10.2228 31.7576C10.1804 32.3545 10.2005 32.9496 10.2967 33.5429C10.4376 34.4134 10.6911 35.2481 11.0846 36.0351C11.59 37.0451 12.2883 37.9058 13.1604 38.6261C14.26 39.5347 15.5213 39.9776 16.9468 39.9772C24.5494 39.9748 32.1519 39.9764 39.7545 39.9748C40.0808 39.9748 40.4067 39.976 40.734 39.9532C41.2471 39.917 41.7442 39.8184 42.2242 39.6429C43.2973 39.251 44.1806 38.5777 44.9347 37.7362C45.5716 37.0257 46.0593 36.2154 46.4274 35.333C46.7461 34.5697 46.9374 33.7748 47.0046 32.9542C47.0736 32.1091 47.0206 31.2691 46.7885 30.4471C46.7518 30.3166 46.7712 30.2104 46.8686 30.098C47.1407 29.7838 47.359 29.4323 47.5222 29.0476C47.7855 28.4273 47.9347 27.7837 47.9917 27.1103C48.0284 26.6763 47.9901 26.254 47.9251 25.8303C47.8692 25.467 47.7663 25.1147 47.6158 24.7792ZM45.0937 32.807C45.0498 33.4475 44.8832 34.057 44.6333 34.6462C44.3482 35.3188 43.9667 35.9349 43.4821 36.4785C42.9127 37.1171 42.2403 37.6199 41.4152 37.8933C41.0558 38.0123 40.6855 38.0576 40.3105 38.0578C35.6942 38.0595 31.0779 38.0588 26.4614 38.0588C23.2907 38.0588 20.1198 38.0638 16.9492 38.0561C15.8769 38.0537 14.946 37.6686 14.1538 36.9432C13.5284 36.3706 13.0405 35.6989 12.6885 34.9292C12.4226 34.3474 12.2514 33.7376 12.1674 33.1024C12.0787 32.4324 12.0993 31.7696 12.2713 31.1137C12.3187 30.9324 12.3279 30.9236 12.5115 30.9185C12.5993 30.9159 12.6873 30.9178 12.775 30.9178H44.5465C44.9458 30.9178 44.9376 30.9195 45.0146 31.3111C45.1124 31.807 45.128 32.3051 45.0937 32.807ZM45.4824 28.7707C45.3805 28.9304 45.2501 29.0016 45.0688 29.0002C45.0287 28.9999 44.9889 29.0004 44.9489 29.0004C34.0627 29.0004 23.1764 28.9999 12.2902 29.0035C12.0312 29.0035 11.8521 28.9112 11.7188 28.6913C11.3992 28.1647 11.2117 27.6007 11.1738 26.9827C11.1563 26.6938 11.185 26.4118 11.2181 26.1279C11.2229 26.0868 11.2366 26.0504 11.2865 26.0111C11.6435 26.2533 12.02 26.4346 12.4334 26.5437C13.0544 26.7074 13.6781 26.7082 14.3041 26.5967C14.9501 26.4813 15.5654 26.2727 16.1512 25.9746C16.3421 25.8775 16.5375 25.7849 16.7396 25.7152C17.2513 25.5379 17.7549 25.5835 18.2495 25.7969C18.6078 25.9516 18.9718 26.0921 19.3317 26.2425C20.3486 26.6674 21.3499 26.6204 22.3347 26.1398C22.6639 25.9792 22.9855 25.8027 23.3145 25.6415C23.6154 25.4941 23.9307 25.3888 24.259 25.3149C24.7383 25.207 25.138 25.3348 25.4823 25.6737C25.6989 25.8866 25.8873 26.1235 26.0801 26.3566C26.365 26.7014 26.6592 27.0386 27.009 27.3182C27.7318 27.8961 28.559 28.1026 29.4726 27.9817C30.2818 27.8745 31.0225 27.5693 31.734 27.187C32.1545 26.9609 32.5655 26.717 32.9792 26.4782C33.1803 26.3619 33.3923 26.2703 33.6136 26.2041C33.9781 26.095 34.3349 26.1391 34.6895 26.2669C34.9977 26.378 35.2885 26.5264 35.5878 26.6566C35.9026 26.7933 36.2241 26.9043 36.5651 26.9628C37.4866 27.1218 38.3019 26.8895 39.0205 26.3053C39.3536 26.0343 39.6646 25.737 40.0094 25.4797C40.4132 25.1783 40.868 25.0392 41.3675 25.0221C41.9166 25.0032 42.4458 25.1185 42.9671 25.2667C43.7507 25.4893 44.5485 25.5516 45.357 25.5195C45.4675 25.5152 45.5771 25.4857 45.6877 25.4754C45.8088 25.4643 45.843 25.4838 45.8884 25.5991C45.9466 25.7473 45.9881 25.9008 46.0186 26.0574C46.2097 27.0352 46.0157 27.9347 45.4824 28.7707Z" fill="#090909"/>
<path d="M47.7667 11.5033C47.5765 10.5268 47.2202 9.61031 46.7368 8.74296C46.168 7.72286 45.4842 6.78573 44.683 5.93636C44.0802 5.2973 43.4232 4.71627 42.7168 4.19471C41.8239 3.5355 40.8775 2.9655 39.8701 2.4943C38.9465 2.06218 38.001 1.68714 37.0373 1.35718C36.0648 1.0241 35.0735 0.758881 34.0671 0.547859C33.3821 0.40422 32.6917 0.292953 31.9976 0.203988C31.4693 0.136365 30.9389 0.078334 30.4073 0.0593899C30.1366 0.049798 29.8721 -0.00967197 29.5993 0.00135875C28.8507 0.0322927 28.1004 -0.0374886 27.3515 0.048599C26.9727 0.0922423 26.5881 0.0826503 26.2087 0.123656C25.6481 0.184085 25.0887 0.255065 24.5319 0.348587C23.6754 0.492465 22.8283 0.676391 21.9905 0.904439C21.1294 1.13896 20.2834 1.41857 19.4502 1.73894C18.2292 2.20822 17.0433 2.74849 15.9304 3.4403C15.0957 3.95923 14.314 4.54985 13.5981 5.22225C12.8708 5.90519 12.2044 6.64401 11.6244 7.45884C10.8799 8.5046 10.297 9.6295 9.93513 10.8649C9.77831 11.4002 9.68096 11.9467 9.64763 12.5018C9.62029 12.9555 9.66489 13.407 9.75529 13.8533C9.86439 14.3916 10.0795 14.884 10.396 15.3321C10.5964 15.6161 10.8554 15.7753 11.2184 15.775C17.0651 15.7714 22.9115 15.7726 28.7581 15.7724C34.6047 15.7724 40.4511 15.771 46.2977 15.7755C46.6697 15.7758 46.9404 15.6288 47.1411 15.3295C47.5573 14.7096 47.7997 14.0257 47.8698 13.2843C47.9261 12.6864 47.881 12.091 47.7667 11.5033ZM45.957 13.0859C45.9364 13.2924 45.8858 13.4917 45.8292 13.691C45.7916 13.8228 45.7088 13.8703 45.5851 13.8737C45.5132 13.8756 45.4415 13.8744 45.3695 13.8744H12.1399C12.0601 13.8744 11.9798 13.8782 11.9004 13.8715C11.7963 13.8627 11.7263 13.8111 11.6947 13.7032C11.6232 13.4588 11.5716 13.2118 11.5613 12.9565C11.5297 12.169 11.7381 11.4292 12.0148 10.7048C12.3675 9.78129 12.8931 8.95686 13.4921 8.17704C13.8956 7.6514 14.3397 7.16029 14.8212 6.7054C15.5947 5.97473 16.4436 5.34358 17.3696 4.81962C18.44 4.21413 19.5646 3.72902 20.721 3.31369C21.9677 2.86575 23.2431 2.53027 24.5465 2.29767C25.2587 2.17081 25.9752 2.08089 26.6957 2.01375C27.5937 1.93006 28.4929 1.90512 29.3928 1.92478C30.2035 1.94253 31.0118 2.00919 31.8168 2.1135C32.6296 2.21877 33.4351 2.36313 34.2331 2.54969C35.8267 2.9221 37.3603 3.46596 38.8503 4.141C40.1286 4.72035 41.3035 5.46084 42.3648 6.37639C43.3918 7.26245 44.2538 8.29118 44.9363 9.46619C45.3379 10.1575 45.6616 10.882 45.8398 11.6654C45.9462 12.1332 46.0052 12.6052 45.957 13.0859Z" fill="#090909"/>
<path d="M46.6024 18.7771C46.5494 18.7924 46.4933 18.803 46.4384 18.8051C46.2152 18.8147 45.9919 18.8262 45.7687 18.8255C44.8266 18.8226 43.8842 18.8154 42.9419 18.8099C42.9021 18.8097 42.8615 18.813 42.8222 18.809C42.5822 18.7833 42.435 18.8917 42.3364 19.1085C42.234 19.3332 42.1065 19.5464 41.9914 19.7653C41.9696 19.8068 41.9398 19.848 41.9604 19.9072C42.1029 19.9552 42.2563 19.9089 42.4038 19.937C42.2849 19.9403 42.1652 19.9526 42.0468 19.9444C41.9238 19.936 41.8542 19.9941 41.8012 20.0924C41.6427 20.3868 41.4826 20.6804 41.3248 20.9751C41.1895 21.2278 41.0557 21.4813 40.9234 21.7355C40.9018 21.7772 40.8917 21.8252 40.8764 21.8702C40.8759 21.8717 40.8754 21.8734 40.8749 21.8748C40.7268 22.3354 40.5198 22.7604 40.0743 23.0035C39.7969 23.1548 39.4998 23.1057 39.2161 22.9999C38.4251 22.7052 37.6307 22.4196 36.8459 22.1091C36.6651 22.0376 36.4505 22.0343 36.3128 21.8664C36.3054 21.8621 36.2982 21.8578 36.2908 21.8539C36.0479 21.7156 35.781 21.6355 35.5218 21.5374C34.3617 21.0981 33.2014 20.66 32.0399 20.225C31.7574 20.1192 31.481 19.9938 31.1812 19.9399C31.0537 19.8212 30.8858 19.7823 30.7312 19.7231C30.0157 19.4495 29.2963 19.1855 28.5786 18.9169C28.382 18.8433 28.1787 18.8102 27.9698 18.8099C26.5081 18.8095 25.0464 18.7953 23.5849 18.8133C21.7 18.8363 19.815 18.8212 17.9303 18.8255C15.7658 18.8306 13.6011 18.8267 11.4365 18.8267C11.1965 18.8267 10.9587 18.821 10.7402 18.6965C10.1779 18.3754 10.1585 17.6647 10.4688 17.2875C10.651 17.0661 10.8843 16.9534 11.173 16.9309C11.3804 16.9148 11.5871 16.9098 11.7945 16.9098C17.194 16.9098 22.5934 16.9114 27.9931 16.9067C28.4559 16.9062 28.8937 16.9877 29.3244 17.1527C30.8218 17.7258 32.3224 18.2908 33.8215 18.8596C34.9403 19.2843 36.0584 19.7118 37.1777 20.1353C37.7899 20.3667 38.404 20.5926 39.0176 20.8204C39.2022 20.8892 39.2142 20.8844 39.3118 20.7039C39.5317 20.2969 39.7516 19.89 39.9702 19.4823C40.3246 18.8217 40.6766 18.1596 41.0334 17.5004C41.1653 17.257 41.332 17.0474 41.618 16.9692C41.6883 16.9498 41.7573 16.9385 41.8298 16.9378C42.7078 16.929 43.5862 16.9138 44.4643 16.9114C45.1107 16.9098 45.7567 16.9465 46.4036 16.9421C46.7918 16.9397 47.1246 17.211 47.2395 17.6414C47.3678 18.1224 47.0719 18.6409 46.6024 18.7771Z" fill="#FEE500"/>
<path d="M49.7528 53.6229C49.544 52.9284 49.3301 52.2352 49.1148 51.5426C48.8735 50.7659 48.633 49.9887 48.3834 49.2147C48.3187 49.0137 48.353 48.8751 48.5182 48.7329C48.9603 48.3528 49.2493 47.8742 49.3663 47.2975C49.4363 46.9519 49.432 46.5999 49.4517 46.2503C49.4737 45.8601 49.4461 45.4695 49.4231 45.0798C49.3979 44.6523 49.2999 44.2377 49.0737 43.8724C48.5033 42.9526 47.6641 42.4636 46.587 42.3936C46.2129 42.3694 45.8367 42.3763 45.4617 42.372C44.7589 42.3636 44.0561 42.3864 43.3537 42.3593C43.2979 42.3572 43.241 42.3572 43.1895 42.4082C43.1859 42.4394 43.1772 42.4785 43.1772 42.5176C43.1792 46.3431 43.1816 50.1688 43.1847 53.9943C43.1847 54.0008 43.1928 54.0075 43.1976 54.014C43.2024 54.0202 43.2077 54.026 43.218 54.0387C43.3537 54.0624 43.4966 54.067 43.64 54.0658C44.0632 54.0627 44.4862 54.0564 44.9094 54.0567C45.2039 54.0567 45.2044 54.0605 45.2044 53.7728C45.2046 52.5268 45.2046 51.2808 45.2048 50.0348C45.2048 49.9309 45.2029 49.8269 45.2092 49.7235C45.2161 49.6111 45.2413 49.583 45.3569 49.5816C45.6758 49.5772 45.9949 49.5799 46.3249 49.5799C46.3839 49.6753 46.4155 49.7559 46.4407 49.8403C46.527 50.1305 46.6133 50.4211 46.704 50.71C47.0308 51.7529 47.3593 52.7951 47.6868 53.8377C47.7571 54.0617 47.7564 54.0651 47.9808 54.0658C48.5237 54.0675 49.0668 54.0667 49.6099 54.0665C49.6888 54.0665 49.7701 54.0749 49.8367 54.0137C49.8749 53.8684 49.7907 53.749 49.7528 53.6229ZM47.3902 46.6774C47.389 46.8299 47.3502 46.9785 47.2931 47.1188C47.1864 47.3809 46.9848 47.539 46.7119 47.6032C46.5647 47.638 46.415 47.6615 46.2623 47.6608C45.9913 47.6596 45.7201 47.6625 45.4492 47.661C45.2291 47.6598 45.2104 47.6409 45.2061 47.4097C45.2027 47.2186 45.2048 47.0272 45.2048 46.8359V45.951C45.2051 45.4966 45.2046 45.0422 45.2053 44.5878C45.2053 44.524 45.206 44.46 45.2128 44.3969C45.2192 44.3348 45.2545 44.2974 45.3211 44.2909C45.4238 44.2811 45.5259 44.2612 45.6288 44.2564C45.9319 44.242 46.234 44.2707 46.5349 44.2966C46.9915 44.3357 47.3682 44.6398 47.3883 45.2187C47.4051 45.7043 47.3938 46.1911 47.3902 46.6774Z" fill="#FEE500"/>
<path d="M35.7253 54.032C35.6515 54.0689 35.5635 54.0653 35.4774 54.0653C34.9182 54.0665 34.3593 54.0622 33.8003 54.0687C33.6354 54.0706 33.5431 54.0164 33.4738 53.8572C32.9779 52.7164 32.4707 51.5803 31.9686 50.4422C31.7531 49.9537 31.5413 49.4633 31.3255 48.9751C31.2889 48.8919 31.2584 48.802 31.1546 48.6917C31.1404 49.0914 31.1479 49.4382 31.1462 49.7844C31.1447 50.136 31.1459 50.4873 31.1459 50.8386V54.0073C31.0536 54.0718 30.9721 54.0648 30.8935 54.0651C30.3746 54.0665 29.8554 54.0658 29.3363 54.0658C29.3044 54.0658 29.2723 54.066 29.2406 54.0631C29.1574 54.0552 29.1087 54.0102 29.104 53.9255C29.1006 53.8617 29.1016 53.7977 29.1016 53.7339C29.1013 50.0441 29.1011 46.3544 29.1011 42.6648C29.1011 42.3747 29.103 42.3723 29.396 42.372C29.8751 42.3715 30.3542 42.372 30.8335 42.3723C30.8973 42.3723 30.9613 42.3727 31.0249 42.3763C31.1004 42.3807 31.1407 42.4238 31.1438 42.4989C31.1464 42.5545 31.1462 42.6106 31.1462 42.6665C31.1459 44.112 31.1457 45.5575 31.1452 47.003V47.3752C31.209 47.3872 31.226 47.3596 31.2385 47.3301C31.6262 46.4119 32.0125 45.4928 32.4017 44.575C32.6818 43.9142 32.9712 43.2571 33.244 42.5931C33.3133 42.4241 33.409 42.3667 33.5865 42.3684C34.161 42.3735 34.736 42.3639 35.3107 42.3596C35.3676 42.3591 35.4225 42.362 35.4834 42.4135C35.4788 42.5006 35.4568 42.5751 35.4273 42.6504C34.9791 43.794 34.5331 44.9386 34.0864 46.0829C33.866 46.6474 33.6512 47.2143 33.422 47.7754C33.3395 47.9775 33.3551 48.16 33.4371 48.3528C33.6275 48.8005 33.8126 49.2504 33.9979 49.7C34.2929 50.4153 34.5856 51.1316 34.8803 51.8469C35.1479 52.4961 35.4167 53.1445 35.6846 53.7936C35.7143 53.8653 35.7642 53.9339 35.7253 54.032Z" fill="#FEE500"/>
<path d="M57.3514 51.4779C57.3375 51.5141 57.3341 51.5553 57.3308 51.5949C57.2632 52.4193 56.8865 53.0838 56.2592 53.6049C55.7113 54.0595 55.0675 54.2711 54.357 54.2747C54.0623 54.2763 53.7683 54.2845 53.4739 54.2322C52.3517 54.0334 51.575 53.4138 51.1542 52.3539C50.9259 51.7793 50.8976 51.1736 50.8931 50.5659C50.8921 50.4168 50.9463 50.3655 51.0991 50.3645C51.5462 50.3614 51.9934 50.365 52.4404 50.3657C52.52 50.3657 52.5996 50.3652 52.6792 50.364C52.7665 50.3626 52.8559 50.3489 52.9531 50.4324C52.9531 50.6587 52.9543 50.9052 52.9526 51.1518C52.9509 51.3956 53.0036 51.6244 53.1111 51.8448C53.2748 52.1805 53.548 52.3759 53.9038 52.4349C54.556 52.5431 55.0411 52.2445 55.2478 51.6949C55.412 51.2587 55.3763 50.8189 55.1883 50.3911C55.0221 50.0122 54.7275 49.7444 54.4141 49.4957C53.982 49.153 53.5041 48.8768 53.0459 48.5723C52.679 48.3289 52.3323 48.062 52.0244 47.7466C51.5889 47.3006 51.3168 46.7702 51.1916 46.1594C51.0158 45.3024 51.1084 44.4765 51.4849 43.6888C51.7438 43.1466 52.1435 42.7269 52.6931 42.4742C53.7261 41.9991 54.767 42.0135 55.7923 42.4943C56.4728 42.8137 56.8934 43.3681 57.1198 44.078C57.2322 44.4307 57.2831 44.7921 57.2833 45.1614C57.2833 45.3688 57.2857 45.5767 57.2795 45.7841C57.2756 45.9047 57.2502 45.9335 57.1409 45.9338C56.5342 45.9345 55.9273 45.9309 55.3207 45.9278C55.3058 45.9278 55.2912 45.9167 55.2766 45.9107C55.2137 45.8371 55.2197 45.7481 55.2197 45.6604C55.2197 45.4369 55.214 45.2132 55.2216 44.9897C55.2363 44.5681 54.9411 44.1998 54.5308 44.0993C54.2433 44.0288 53.964 44.0218 53.6959 44.1744C53.4839 44.2945 53.3362 44.4671 53.2703 44.6995C53.112 45.259 53.1722 45.7669 53.6081 46.2006C53.8196 46.4112 54.0541 46.5872 54.3004 46.7481C54.7279 47.0275 55.1679 47.2874 55.595 47.567C56.0997 47.8979 56.5464 48.2936 56.8649 48.8142C57.1425 49.2684 57.3248 49.7537 57.3689 50.294C57.3869 50.5158 57.4065 50.7364 57.4101 50.959C57.413 51.1345 57.4152 51.3093 57.3514 51.4779Z" fill="#FEE500"/>
<path d="M6.52962 50.9798C6.51523 51.586 6.39175 52.1649 6.10856 52.7059C5.79733 53.3003 5.34246 53.7411 4.7219 54.001C4.23802 54.2037 3.7304 54.32 3.20647 54.3015C2.45043 54.2747 1.74092 54.0878 1.13954 53.5955C0.773631 53.2958 0.518022 52.9179 0.328833 52.4884C0.0996009 51.9683 0.0156769 51.4215 0.0108812 50.8582C0.00992208 50.7388 -0.00110794 50.6194 9.09759e-05 50.5002C0.000810325 50.429 0.0384563 50.3813 0.118304 50.3782C0.206065 50.3746 0.293585 50.3628 0.381106 50.3628C0.836214 50.3616 1.29132 50.3604 1.74643 50.364C2.06774 50.3667 2.06966 50.371 2.07254 50.682C2.07445 50.8736 2.07134 51.0652 2.07325 51.2568C2.07853 51.7721 2.39121 52.2287 2.87125 52.3989C3.46328 52.609 4.17783 52.299 4.3627 51.6844C4.55069 51.0592 4.4603 50.4933 4.04091 49.9787C3.79969 49.6828 3.49637 49.4648 3.1916 49.2497C2.81418 48.983 2.41878 48.7415 2.03369 48.4857C1.61215 48.2058 1.23353 47.8744 0.913425 47.4838C0.573412 47.0685 0.375112 46.585 0.283514 46.0563C0.223089 45.7074 0.21086 45.3544 0.242512 45.0062C0.309651 44.2693 0.527853 43.5856 1.05346 43.0332C1.43208 42.6351 1.89102 42.3773 2.42382 42.2481C2.67199 42.1879 2.92401 42.1442 3.17889 42.1368C3.99176 42.113 4.74851 42.2953 5.39593 42.808C5.81339 43.1387 6.07835 43.5797 6.23757 44.0878C6.36801 44.505 6.40086 44.9312 6.38647 45.364C6.38072 45.5386 6.40206 45.7141 6.37065 45.8999C6.26826 45.9453 6.1793 45.9342 6.09298 45.9347C5.59015 45.9366 5.08709 45.9361 4.58402 45.9366C4.56028 45.9366 4.53607 45.9383 4.51233 45.9361C4.38956 45.9256 4.35887 45.899 4.35695 45.7726C4.35311 45.541 4.35479 45.3096 4.35743 45.0779C4.35887 44.965 4.34184 44.8563 4.31355 44.7472C4.11213 43.9715 3.04438 43.8444 2.58231 44.3468C2.54515 44.3875 2.50774 44.4309 2.48232 44.4794C2.17804 45.0594 2.25333 45.7175 2.68446 46.1664C2.98107 46.4752 3.33667 46.7006 3.69515 46.9246C4.15481 47.2116 4.62766 47.4797 5.05376 47.8162C5.70165 48.3279 6.19201 48.9545 6.39654 49.7715C6.49557 50.1671 6.53945 50.571 6.52962 50.9798Z" fill="#FEE500"/>
<path d="M20.4643 53.7294C20.2051 52.4001 19.9442 51.0714 19.6826 49.7429C19.5579 49.1099 19.4311 48.4773 19.3047 47.8445C19.1453 47.0478 18.9858 46.251 18.8259 45.4544C18.6364 44.5089 18.4463 43.5636 18.2573 42.6178C18.2099 42.3804 18.2072 42.3751 17.9631 42.3725C17.4685 42.3672 16.9735 42.3622 16.4786 42.36C16.2794 42.3593 16.0799 42.3605 15.8809 42.3715C15.7427 42.3792 15.7207 42.4063 15.6871 42.5377C15.6811 42.5607 15.6814 42.5852 15.6768 42.6087C15.5051 43.4924 15.3349 44.3765 15.1608 45.2599C15.0466 45.8383 14.9244 46.4153 14.8097 46.9937C14.6378 47.8612 14.4707 48.7296 14.2985 49.5971C14.1868 50.1595 14.059 50.7189 13.9578 51.2832C13.8286 52.005 13.6789 52.7227 13.5329 53.4411C13.501 53.5972 13.4765 53.755 13.4547 53.9128C13.4384 54.0301 13.4634 54.0581 13.5746 54.0655C13.6223 54.0687 13.6703 54.0663 13.7182 54.0663H15.0356C15.4003 54.0663 15.4034 54.067 15.4826 53.7106C15.6279 53.0574 15.7677 52.403 15.9123 51.7498C15.9494 51.5815 15.9859 51.5479 16.1544 51.5467C16.6815 51.5431 17.2083 51.5434 17.7353 51.5469C17.9145 51.5481 17.9509 51.5817 17.9941 51.7635C18.0528 52.0117 18.106 52.2613 18.161 52.5105C18.2583 52.9543 18.3528 53.3989 18.453 53.8421C18.5014 54.0567 18.5187 54.0663 18.7458 54.0665C19.2409 54.067 19.7358 54.067 20.231 54.066C20.3178 54.0658 20.4072 54.079 20.4969 54.0219C20.5372 53.9092 20.482 53.821 20.4643 53.7294ZM17.4133 49.6406C17.0556 49.6441 16.6978 49.6417 16.3619 49.6417C16.2854 49.5837 16.2952 49.5221 16.3053 49.4713C16.4252 48.8624 16.4856 48.2449 16.5815 47.6327C16.6985 46.8865 16.8079 46.1393 16.9213 45.3925C16.9237 45.3777 16.9337 45.3637 16.9608 45.3033C17.0371 45.4822 17.033 45.6354 17.0548 45.7796C17.2059 46.7778 17.3483 47.7778 17.4934 48.777C17.5253 48.9974 17.5634 49.2168 17.5874 49.4379C17.6063 49.6137 17.5819 49.6389 17.4133 49.6406Z" fill="#FCE502"/>
<path d="M27.7439 51.51C27.6729 52.4203 27.2735 53.1577 26.5311 53.6951C26.1712 53.9557 25.7599 54.1135 25.3264 54.2034C24.8632 54.2993 24.3944 54.3447 23.9232 54.2627C23.0852 54.1169 22.3593 53.7641 21.8306 53.0769C21.4652 52.6023 21.2928 52.0503 21.2424 51.4582C21.2316 51.3311 21.2278 51.2031 21.2276 51.0755C21.2268 49.183 21.2268 47.2903 21.2278 45.3976C21.228 45.094 21.2472 44.793 21.3132 44.4942C21.4736 43.7686 21.857 43.19 22.4497 42.7499C22.8204 42.4744 23.2437 42.3094 23.694 42.2198C24.2311 42.1128 24.7728 42.0931 25.3089 42.2176C25.9266 42.361 26.4834 42.6322 26.9322 43.0885C27.2085 43.3693 27.4173 43.7 27.553 44.0724C27.6938 44.4585 27.7631 44.8575 27.7612 45.2688C27.7593 45.6762 27.7605 46.0834 27.7602 46.4908C27.7602 46.5467 27.7617 46.6028 27.7581 46.6584C27.7528 46.7409 27.7106 46.7917 27.6238 46.7965C27.5919 46.7985 27.56 46.7989 27.5281 46.7989C27.0011 46.7994 26.474 46.7999 25.9467 46.7994C25.8839 46.7992 25.8182 46.809 25.7571 46.767C25.717 46.6913 25.7031 46.6095 25.7101 46.5179C25.748 46.0081 25.7468 45.4978 25.6954 44.9889C25.647 44.5057 25.2792 44.1317 24.7977 44.0708C24.551 44.0393 24.3049 44.0338 24.0616 44.1022C23.6573 44.2158 23.393 44.4556 23.3245 44.8861C23.3055 45.0043 23.2854 45.1211 23.2856 45.2419C23.2871 47.2224 23.2868 49.2029 23.2868 51.1834C23.2868 51.3194 23.2978 51.4517 23.3293 51.5863C23.4355 52.04 23.7371 52.2824 24.174 52.3563C24.4809 52.4078 24.7939 52.4107 25.09 52.2743C25.4168 52.1234 25.635 51.8843 25.6811 51.5196C25.7149 51.2522 25.7527 50.9856 25.7079 50.7108C25.6777 50.5247 25.6906 50.33 25.7163 50.1384C25.7374 49.9818 25.7336 49.8216 25.741 49.6597C25.8266 49.6156 25.8913 49.6266 25.9539 49.6266C26.481 49.6254 27.008 49.6252 27.5351 49.6262C27.7513 49.6266 27.7605 49.6307 27.7593 49.8341C27.7557 50.3928 27.7873 50.9525 27.7439 51.51Z" fill="#FEE500"/>
<path d="M41.9295 52.3486C41.9309 52.8754 41.9288 53.4025 41.9266 53.9296C41.9266 53.96 41.9134 53.9905 41.906 54.0221C41.7971 54.0744 41.6847 54.0653 41.5744 54.0653C40.0892 54.0663 38.6039 54.0665 37.1187 54.066C36.901 54.066 36.8737 54.038 36.8667 53.8181C36.865 53.7622 36.866 53.7063 36.866 53.6505V42.7264C36.866 42.3555 36.866 42.3567 37.2415 42.3715C37.3609 42.3761 37.4808 42.3715 37.6007 42.3715C38.9101 42.3715 40.2196 42.3718 41.5293 42.3718C41.5852 42.3718 41.641 42.3708 41.6969 42.3723C41.907 42.3785 41.9276 42.3982 41.9283 42.6101C41.9297 43.0734 41.9293 43.5365 41.9293 43.9998C41.9293 44.252 41.9261 44.2576 41.6784 44.2578C40.9039 44.2592 40.1294 44.2583 39.3549 44.2588C39.2672 44.2588 39.1789 44.2573 39.0917 44.2662C38.9761 44.2777 38.9399 44.3182 38.9291 44.4324C38.9253 44.4719 38.9281 44.5122 38.9281 44.5523C38.9276 45.3985 38.9272 46.245 38.9267 47.0915C38.9265 47.1155 38.9257 47.1395 38.9267 47.1634C38.9348 47.3663 38.9607 47.3939 39.142 47.3936C39.589 47.3932 40.0359 47.4006 40.4831 47.4042C40.6747 47.4059 40.8663 47.4018 41.0579 47.4075C41.2073 47.4121 41.2253 47.4294 41.2269 47.5761C41.2308 47.9037 41.2293 48.231 41.2281 48.5583C41.2274 48.7888 41.2238 49.0192 41.2214 49.2526C41.0936 49.3053 40.9967 49.2902 40.9025 49.2904C40.3436 49.2924 39.7846 49.2914 39.2257 49.2914C39.1857 49.2914 39.1456 49.289 39.1058 49.2912C38.978 49.2984 38.9413 49.3348 38.9293 49.465C38.9265 49.4969 38.9281 49.529 38.9281 49.5609C38.9284 50.3194 38.9284 51.0781 38.9288 51.8369C38.9291 52.1011 38.8974 52.1611 39.2552 52.1639C40.0537 52.1707 40.8521 52.1659 41.6506 52.1656C41.6825 52.1656 41.7144 52.1613 41.7463 52.1623C41.8904 52.1666 41.929 52.2006 41.9295 52.3486Z" fill="#FEE500"/>
<path d="M13.5576 44.0221C13.5564 44.2369 13.5396 44.2568 13.3286 44.2576C12.7857 44.2595 12.2426 44.2573 11.6998 44.2585C11.5897 44.2588 11.4756 44.2432 11.3777 44.3103C11.3384 44.3892 11.3545 44.4703 11.3545 44.5492C11.354 47.5833 11.3545 50.6175 11.3547 53.6517C11.3547 53.7315 11.3569 53.8116 11.3521 53.8912C11.3447 54.0111 11.3144 54.0428 11.1953 54.0608C11.1559 54.0665 11.1157 54.066 11.0759 54.066C10.5567 54.0663 10.0378 54.0663 9.51894 54.066C9.4789 54.066 9.43838 54.0694 9.39929 54.0634C9.33791 54.054 9.2981 54.0181 9.29595 53.9519C9.29379 53.8802 9.29331 53.8082 9.29331 53.7365C9.29283 50.6863 9.29187 47.6361 9.29403 44.5858C9.29427 44.2204 9.26429 44.2686 8.97967 44.264C8.42889 44.2552 7.87811 44.2604 7.32709 44.2602C7.08179 44.2602 7.06165 44.248 7.05901 44.0101C7.05421 43.547 7.05685 43.0838 7.05709 42.6207C7.05733 42.5811 7.05949 42.5406 7.06788 42.502C7.08491 42.4257 7.12327 42.3723 7.21343 42.3739C7.26906 42.3751 7.32469 42.362 7.38032 42.3622C9.28851 42.3648 11.1965 42.3684 13.1047 42.3718C13.1766 42.3718 13.2485 42.3706 13.3202 42.3725C13.531 42.3787 13.5552 42.4018 13.5566 42.6087C13.5586 42.8802 13.5571 43.1516 13.5574 43.4231C13.5574 43.6228 13.5586 43.8223 13.5576 44.0221Z" fill="#FEE500"/>
<path d="M7.56001 58.4541C7.45019 58.3397 7.3243 58.2503 7.18643 58.1872C7.20345 58.1047 7.2646 58.0858 7.30536 58.0531C7.76502 57.6858 7.77725 56.8947 7.15549 56.5422C6.87087 56.3808 6.56035 56.3218 6.23784 56.3204C5.56765 56.3177 4.89746 56.3189 4.22702 56.3199C3.97957 56.3204 3.97405 56.3254 3.97405 56.575C3.97309 57.6922 3.97357 58.8095 3.97405 59.9267C3.97405 60.0058 3.96278 60.0869 4.00427 60.1598C4.08315 60.2178 4.17355 60.2005 4.25987 60.2008C4.93822 60.2017 5.61657 60.1989 6.29467 60.2032C6.45509 60.2041 6.61382 60.1895 6.76896 60.1622C7.00515 60.1207 7.22959 60.0413 7.42909 59.8982C7.89451 59.5639 7.95733 58.8685 7.56001 58.4541ZM5.59906 57.2774H5.71823V57.2808C5.82182 57.2808 5.92589 57.2728 6.02827 57.2824C6.20475 57.2995 6.27933 57.3839 6.27357 57.5414C6.26854 57.6774 6.17958 57.7771 6.02564 57.7721C5.82877 57.7656 5.63359 57.8234 5.43649 57.7774C5.29861 57.7452 5.29022 57.7412 5.28351 57.6145C5.26624 57.2944 5.28183 57.2776 5.59906 57.2774ZM6.26206 59.2188C6.21746 59.2351 6.17166 59.2584 6.12611 59.2591C5.86354 59.2629 5.60098 59.2608 5.34202 59.2608C5.2485 59.1078 5.28998 58.9545 5.2895 58.8068C5.28926 58.7649 5.32067 58.7356 5.36192 58.7219C5.39189 58.7119 5.42234 58.6956 5.45303 58.6948C5.71536 58.6884 5.97888 58.662 6.23832 58.7212C6.38124 58.7536 6.45892 58.8433 6.46516 58.9629C6.47163 59.0886 6.41361 59.1629 6.26206 59.2188Z" fill="#090909"/>
<path d="M18.7931 59.0186C18.8332 58.9824 18.8548 58.9581 18.8804 58.9406C19.3995 58.5874 19.576 58.0937 19.46 57.4906C19.3787 57.069 19.1475 56.751 18.7624 56.5458C18.5258 56.4194 18.2747 56.3604 18.0102 56.3376C17.6117 56.3031 17.2127 56.3259 16.814 56.3204C16.5428 56.3165 16.2711 56.3172 15.9997 56.3206C15.8615 56.3223 15.8359 56.3508 15.8275 56.4897C15.8239 56.5453 15.8268 56.6014 15.8268 56.6573V59.7953C15.8268 59.8751 15.8241 59.9552 15.8275 60.0348C15.8335 60.1763 15.8524 60.1974 16.0011 60.2001C16.2246 60.2041 16.4481 60.2013 16.6715 60.2013H17.1314C17.195 60.101 17.2101 60.0226 17.1856 59.9296C17.1552 59.8135 17.1616 59.6936 17.1844 59.5747C17.1947 59.5207 17.1993 59.4644 17.1979 59.4092C17.194 59.2574 17.2048 59.2473 17.341 59.2421C17.458 59.2375 17.5427 59.285 17.5988 59.3823C17.7024 59.5622 17.8414 59.7181 17.9373 59.9034C18.0558 60.1327 18.2567 60.2384 18.5085 60.218C18.8116 60.1936 19.1144 60.2087 19.417 60.2003C19.4597 60.1991 19.5132 60.226 19.5542 60.1533C19.3075 59.7854 19.0559 59.4104 18.7931 59.0186ZM17.8666 58.1721C17.8146 58.1896 17.7589 58.2042 17.7048 58.2059C17.5465 58.2102 17.388 58.2073 17.1947 58.2073C17.1947 57.9508 17.1935 57.721 17.1955 57.4913C17.1964 57.3843 17.2266 57.3551 17.3396 57.346C17.5074 57.3328 17.6741 57.358 17.8359 57.3923C18.0263 57.4326 18.134 57.5843 18.1294 57.7726C18.1239 58.0001 18.0642 58.1061 17.8666 58.1721Z" fill="#090909"/>
<path d="M35.7775 59.0385C35.7846 59.0178 35.7849 59.0078 35.7902 59.0035C35.8261 58.9728 35.8616 58.9409 35.9002 58.9138C36.2191 58.6917 36.3903 58.3869 36.4486 58.0025C36.5385 57.4093 36.2848 56.8021 35.6717 56.5115C35.3691 56.3681 35.0488 56.324 34.7212 56.3211C34.1469 56.316 33.5727 56.3192 32.9984 56.3201C32.9447 56.3204 32.8864 56.306 32.8408 56.3499C32.8058 56.6935 32.8161 59.9938 32.8533 60.1698C32.8739 60.1787 32.8957 60.196 32.9176 60.196C33.2844 60.1991 33.6511 60.202 34.0179 60.1996C34.1215 60.1991 34.1536 60.1612 34.1632 60.0511C34.169 59.9878 34.1649 59.9236 34.1649 59.8598C34.1652 59.6619 34.1652 59.4641 34.1652 59.2675C34.3709 59.2094 34.5064 59.2677 34.6085 59.4315C34.7303 59.6269 34.8651 59.8145 34.9874 60.0097C35.0711 60.1432 35.177 60.2082 35.3408 60.2041C35.6916 60.1953 36.0427 60.2022 36.3937 60.2001C36.4359 60.1998 36.4915 60.2255 36.5239 60.1447C36.2774 59.7794 36.0252 59.4054 35.7775 59.0385ZM34.7169 58.2049C34.5747 58.2145 34.4313 58.2069 34.2884 58.2057C34.211 58.2052 34.1709 58.1611 34.1688 58.0872C34.1656 57.9762 34.168 57.8649 34.168 57.7539H34.1664V57.468C34.1664 57.3887 34.2143 57.34 34.2843 57.3553C34.427 57.3865 34.5692 57.3623 34.7109 57.3747C34.9953 57.3994 35.0862 57.5246 35.1121 57.7841C35.1341 58.003 34.9507 58.1891 34.7169 58.2049Z" fill="#090909"/>
<path d="M51.8171 58.1373C51.8013 57.5544 51.5648 57.0709 51.1073 56.7151C50.4654 56.2153 49.7372 56.1153 48.9615 56.3208C48.5275 56.4357 48.1537 56.6549 47.8717 57.0105C47.4449 57.5486 47.3531 58.1565 47.5223 58.8099C47.6334 59.2389 47.8554 59.5994 48.2271 59.8531C48.65 60.1413 49.1099 60.3195 49.6691 60.2974C49.7358 60.2974 49.8394 60.2979 49.9432 60.2972C49.9986 60.2969 50.0568 60.3063 50.1053 60.2706C50.1861 60.2111 50.2846 60.2072 50.3758 60.1809C51.0903 59.9739 51.5478 59.5121 51.7595 58.7996C51.8243 58.5812 51.8231 58.3596 51.8171 58.1373ZM50.3168 58.8378C50.0252 59.315 49.2337 59.3346 48.9452 58.8018C48.8469 58.62 48.7783 58.4198 48.7956 58.2562C48.8157 57.9553 48.8893 57.675 49.15 57.487C49.6897 57.0983 50.4072 57.4349 50.4743 58.1076C50.5 58.3661 50.4556 58.6109 50.3168 58.8378Z" fill="#090909"/>
<path d="M13.6493 58.4555C13.6411 58.7879 13.591 59.1176 13.4294 59.4226C13.2095 59.8368 12.8623 60.0739 12.4266 60.2147C12.0856 60.325 11.7324 60.3334 11.3931 60.2866C10.9678 60.2279 10.5656 60.073 10.2652 59.7281C10.0072 59.432 9.89378 59.0869 9.86788 58.7035C9.82112 58.0105 9.83958 57.3167 9.83671 56.6235C9.83623 56.5285 9.82424 56.4309 9.90409 56.3199C10.2791 56.3199 10.6539 56.3177 11.0284 56.3211C11.1586 56.322 11.1725 56.3419 11.1778 56.4786C11.1802 56.5424 11.1781 56.6064 11.1781 56.6702C11.1781 57.1654 11.1824 57.6606 11.1759 58.1558C11.1735 58.3399 11.1989 58.5208 11.2205 58.7011C11.2668 59.0924 11.5718 59.2771 11.9456 59.1663C12.1283 59.1121 12.2178 58.9802 12.2695 58.8147C12.3173 58.662 12.33 58.5033 12.3293 58.3426C12.3273 57.7596 12.3285 57.1767 12.3285 56.5937V56.382C12.3724 56.3208 12.4127 56.3201 12.4527 56.3201C12.7882 56.3196 13.1237 56.318 13.4589 56.3204C13.627 56.3216 13.6526 56.3448 13.6531 56.5151C13.6555 57.1621 13.6648 57.809 13.6493 58.4555Z" fill="#090909"/>
<path d="M30.7123 60.0857C30.7116 60.1598 30.6711 60.2037 30.5912 60.2013C30.5593 60.2003 30.5272 60.2015 30.4953 60.2015C29.5539 60.2015 28.6125 60.2017 27.6709 60.201C27.616 60.201 27.5589 60.2123 27.4951 60.1701C27.4618 60.1466 27.4637 60.0941 27.464 60.0492C27.4656 58.8605 27.4695 57.6719 27.4728 56.4832V56.383C27.5215 56.3089 27.581 56.3201 27.6352 56.3201C28.5686 56.3196 29.5021 56.3189 30.4356 56.3204C30.6236 56.3206 30.6329 56.3326 30.6351 56.5278C30.637 56.7273 30.6377 56.9268 30.6351 57.1263C30.6327 57.3019 30.5927 57.339 30.4267 57.3376C29.9723 57.3333 29.5177 57.3287 29.0633 57.3268C28.9849 57.3263 28.9034 57.311 28.8108 57.358C28.7996 57.4342 28.7868 57.5045 28.7794 57.5755C28.7677 57.6846 28.8082 57.7378 28.918 57.7527C28.9729 57.7601 29.0295 57.757 29.0851 57.757C29.4362 57.7575 29.7872 57.7563 30.1383 57.7582C30.2162 57.7587 30.2968 57.7417 30.3958 57.7865C30.3958 57.8719 30.3915 57.9656 30.3965 58.0589C30.4051 58.2164 30.3718 58.3757 30.4226 58.5325C30.4402 58.5867 30.4078 58.6407 30.3617 58.71H28.8161C28.8034 58.8366 28.7866 58.9433 28.7835 59.0502C28.7809 59.1507 28.8214 59.1896 28.9329 59.1929C29.1084 59.1982 29.2839 59.1951 29.4594 59.1953C29.8026 59.1953 30.1457 59.1946 30.4888 59.196C30.5581 59.1963 30.6317 59.1802 30.7133 59.2358C30.7133 59.5147 30.7147 59.8003 30.7123 60.0857Z" fill="#090909"/>
<path d="M25.3164 59.5358C25.3313 59.7173 25.272 59.8348 25.1075 59.9209C24.9013 60.0286 24.6815 60.0955 24.4654 60.1756C24.0734 60.3209 23.6669 60.2957 23.2615 60.2984C23.1289 60.2991 23.0162 60.2329 22.897 60.1953C22.4239 60.0451 21.9995 59.8123 21.7417 59.3644C21.0401 58.1459 21.5372 56.6513 23.0044 56.2988C23.6199 56.1508 24.2369 56.1983 24.8164 56.4937C24.9956 56.5849 25.1483 56.7124 25.2991 56.8417C25.39 56.9196 25.3917 56.9995 25.3011 57.0858C25.0992 57.2779 24.8934 57.4659 24.6827 57.6479C24.5925 57.7256 24.5481 57.7162 24.452 57.6412C24.3892 57.5923 24.3318 57.5357 24.2666 57.4903C23.9185 57.2469 23.2936 57.2436 23.002 57.6201C22.767 57.9234 22.733 58.2651 22.8543 58.6306C23.0212 59.133 23.5737 59.2838 24.0137 59.1529C24.1045 59.1258 24.1542 59.062 24.1513 58.9557C24.1455 58.7323 24.1511 58.5085 24.1489 58.2848C24.1482 58.2018 24.169 58.1421 24.2652 58.1419C24.5994 58.1416 24.9337 58.1419 25.2574 58.1419C25.3181 58.2292 25.3176 58.308 25.313 58.3881C25.2915 58.7706 25.285 59.1538 25.3164 59.5358Z" fill="#090909"/>
<path d="M44.7964 58.7594C45.0623 58.9946 45.3337 59.2346 45.6119 59.4804C45.579 59.5723 45.521 59.6339 45.4603 59.6943C45.1817 59.9711 44.8455 60.1245 44.4674 60.2308C44.1657 60.3159 43.8696 60.2737 43.5718 60.2996C43.427 60.312 43.3092 60.2375 43.1824 60.1996C42.663 60.044 42.212 59.7759 41.959 59.2759C41.5053 58.38 41.6017 57.2381 42.6011 56.5753C42.9201 56.3638 43.274 56.2664 43.6552 56.2386C43.9365 56.2182 44.2132 56.2295 44.4842 56.2933C44.9373 56.4 45.3265 56.617 45.6253 57.0254C45.3416 57.2779 45.075 57.515 44.816 57.7455C44.7028 57.7244 44.6597 57.6402 44.5949 57.5843C44.4079 57.4232 44.1981 57.3244 43.9449 57.3254C43.5277 57.327 43.25 57.5179 43.1157 57.9143C42.9951 58.2697 43.0378 58.6052 43.2778 58.9004C43.6092 59.3075 44.2144 59.28 44.5803 58.9447C44.6443 58.886 44.694 58.8107 44.7964 58.7594Z" fill="#090909"/>
<path d="M53.439 59.5238C53.4412 59.9559 53.0714 60.2638 52.7194 60.2535C52.2504 60.2396 51.9732 59.973 51.9579 59.5202C51.9461 59.178 52.2401 58.7709 52.687 58.8119C53.1472 58.7653 53.4371 59.1716 53.439 59.5238Z" fill="#090909"/>
<path d="M40.876 21.8702C40.8756 21.8717 40.8751 21.8734 40.8746 21.8748C40.7264 22.3354 40.5195 22.7604 40.074 23.0035C39.7965 23.1548 39.4995 23.1057 39.2158 22.9999C38.4247 22.7052 37.6303 22.4196 36.8455 22.1091C36.6647 22.0376 36.4501 22.0343 36.3125 21.8664C36.4549 21.8897 36.5861 21.9486 36.7197 21.9988C37.5376 22.3052 38.355 22.6138 39.1729 22.9206C39.247 22.9484 39.3235 22.9719 39.4004 22.9908C39.8745 23.1081 40.1893 22.9721 40.4672 22.5683C40.5749 22.4119 40.6574 22.2381 40.7526 22.0729C40.7914 22.0055 40.8334 21.94 40.8739 21.8738C40.8746 21.8726 40.8753 21.8714 40.876 21.8702Z" fill="#090909"/>
</svg>
