<svg width="226" height="52" viewBox="0 0 226 52" fill="none" xmlns="http://www.w3.org/2000/svg">
<path d="M47.015 44.0494C46.3383 41.8635 44.4527 40.4702 42.0415 40.3815C40.5859 40.3279 39.1263 40.3679 37.6687 40.3708C37.58 40.3708 37.4903 40.4166 37.3625 40.4517V51.3229C38.9323 51.3229 40.4191 51.3628 41.9031 51.3151C46.1443 51.1776 48.0611 47.4297 47.015 44.0494ZM44.4156 47.3878C44.0091 48.6114 43.0828 49.2959 41.8027 49.3524C41.2235 49.3778 40.6414 49.3563 40.0701 49.3563C39.8634 48.6309 39.802 44.8538 39.957 42.3588C40.7214 42.3588 41.4341 42.2984 42.1312 42.3734C43.1355 42.4817 43.8765 43.0384 44.2889 43.9734C44.7813 45.0898 44.7959 46.2422 44.4156 47.3878Z" fill="#FEFEFE"/>
<path d="M50.2862 40.4059H57.2554V42.3374H52.8504V44.7914C53.9443 44.9698 55.0441 44.7885 56.1741 44.9055C56.3535 45.4924 56.2765 46.0852 56.2287 46.7706H52.8865C52.7412 47.652 52.8182 48.4466 52.8221 49.3397H57.2525V51.2751H50.3651C50.1984 50.5078 50.138 42.8765 50.2862 40.4059Z" fill="#FEFEFE"/>
<path d="M67.2277 47.5887C67.2862 49.0745 66.7441 50.2426 65.4035 50.9777C64.8828 51.2634 64.3144 51.396 63.7324 51.4594C62.38 51.6056 60.6865 51.0099 59.6023 50.0125C59.7144 49.6176 59.9757 49.2851 60.2097 48.9468C60.5393 48.4691 60.8347 48.4135 61.3758 48.6845C61.6937 48.8444 61.9969 49.0316 62.3137 49.1935C62.8295 49.4567 63.3823 49.4616 63.9293 49.3534C64.4158 49.2569 64.7278 48.941 64.8195 48.4388C64.9101 47.9377 64.7425 47.5292 64.3008 47.2815C63.9927 47.109 63.6534 46.989 63.318 46.8711C62.8295 46.6995 62.3176 46.5883 61.8428 46.3884C59.7807 45.5227 59.2805 42.9077 60.8698 41.3185C61.7843 40.403 62.9299 40.1387 64.177 40.2362C65.2299 40.3181 66.1932 40.6477 67.1039 41.3994C66.8553 41.8538 66.6632 42.2272 66.4497 42.587C66.2322 42.9506 65.9202 43.0364 65.5371 42.8434C65.306 42.7264 65.0749 42.6084 64.84 42.4992C64.3242 42.2594 63.7918 42.1872 63.2302 42.314C62.771 42.4183 62.4814 42.6874 62.3761 43.1407C62.2777 43.5658 62.4434 43.8944 62.9221 44.1723C63.1717 44.3166 63.4516 44.4121 63.7246 44.5126C64.2101 44.691 64.7044 44.847 65.189 45.0293C66.3726 45.4778 67.1751 46.2402 67.2277 47.5887Z" fill="#FEFEFE"/>
<path d="M70.37 40.4117H72.7967V51.2956H70.4207C70.2403 50.5926 70.1964 41.7299 70.37 40.4117Z" fill="#FEFEFE"/>
<path d="M88.2455 47.7554C88.2631 49.2647 87.487 50.539 86.1688 51.0928C85.3166 51.4516 84.4284 51.5773 83.5041 51.397C82.4404 51.1893 81.4488 50.8373 80.6133 50.0729C80.6776 49.5835 81.0111 49.251 81.2519 48.8864C81.5142 48.4876 81.8213 48.4291 82.2678 48.6329C82.5613 48.7664 82.8294 48.9536 83.1132 49.1096C83.6465 49.4012 84.2207 49.4665 84.8106 49.3768C85.38 49.29 85.7047 48.9741 85.8012 48.4584C85.9055 47.9036 85.7554 47.535 85.2289 47.2425C84.9218 47.0719 84.5747 46.9686 84.2393 46.8525C83.781 46.6936 83.3101 46.5678 82.8558 46.3992C80.3549 45.4759 80.5304 42.1726 82.2152 40.9987C83.079 40.3981 84.0287 40.1543 85.0631 40.2294C86.1503 40.3074 87.1604 40.6028 88.0807 41.4014C87.8877 41.7738 87.7395 42.0956 87.5601 42.3988C87.1974 43.012 87.0268 43.0598 86.3843 42.7664C86.2068 42.6854 86.0313 42.6006 85.8617 42.508C85.5399 42.3315 85.186 42.2701 84.8311 42.2506C84.0589 42.2087 83.4983 42.5548 83.3803 43.1154C83.2614 43.676 83.5353 44.0611 84.3348 44.3741C84.9364 44.6091 85.5594 44.7914 86.1659 45.0186C87.4294 45.4924 88.2299 46.327 88.2455 47.7554Z" fill="#FEFEFE"/>
<path d="M99.184 42.2906C98.1671 42.4729 97.1648 42.2808 96.1215 42.4163V51.1532C95.401 51.3648 94.6269 51.3823 93.5388 51.2185V42.467C92.5043 42.2398 91.4981 42.4777 90.4792 42.3081V40.4186H99.0904C99.2581 41.0055 99.1147 41.6159 99.184 42.2906Z" fill="#FEFEFE"/>
<path d="M109.449 48.9156C108.977 48.159 108.587 47.3449 107.889 46.7307C108.015 46.6468 108.093 46.5903 108.175 46.5405C108.258 46.4889 108.347 46.4479 108.428 46.3943C109.679 45.5587 110.094 44.3595 109.854 42.9282C109.628 41.5739 108.69 40.8963 107.432 40.5756C107.243 40.5278 107.056 40.4644 106.864 40.4449C105.25 40.2889 103.637 40.3903 101.974 40.363C101.818 42.5294 101.876 50.5497 102.047 51.2995C102.84 51.319 103.64 51.3804 104.507 51.2517V47.3586C105.222 47.1411 105.685 47.3098 106.017 47.9328C106.505 48.8484 107.044 49.7356 107.556 50.6375C107.721 50.928 107.909 51.2371 108.249 51.2722C109.093 51.358 109.944 51.3775 110.869 51.2478C110.357 50.4054 109.911 49.6556 109.449 48.9156ZM106.517 45.3091C105.9 45.5919 105.256 45.5002 104.533 45.4681V42.3647C105.104 42.1882 105.649 42.2613 106.182 42.3442C106.893 42.4544 107.302 42.8853 107.391 43.5395C107.505 44.3731 107.196 44.9971 106.517 45.3091Z" fill="#FEFEFE"/>
<path d="M117.508 34.1026C117.447 34.0265 117.371 33.9651 117.303 33.8949C116.56 33.1412 115.652 32.5133 115.415 31.3775C115.396 31.2907 115.317 31.2059 115.247 31.1415C114.945 30.8656 114.834 30.4941 114.709 30.1236C113.34 26.0326 111.951 21.9483 110.601 17.8514C109.952 15.88 109.379 13.8842 108.759 11.903C108.574 11.3151 108.668 10.8227 109.128 10.4015C109.319 10.226 109.51 10.0437 109.665 9.83893C109.983 9.41871 109.847 9.00336 109.328 8.88929C108.985 8.81324 108.619 8.84249 108.262 8.82591C107.7 8.80056 107.127 8.88149 106.576 8.77716C106.576 8.65042 106.568 8.61629 106.578 8.58997C106.725 8.21167 107.085 8.0118 107.325 7.70955C107.934 6.94321 107.769 6.14859 106.902 5.704C106.517 5.50607 106.099 5.43002 105.677 5.42515C102.301 5.3881 98.9246 5.36372 95.5482 5.33447C95.1163 5.33057 94.7097 5.43294 94.3421 5.65719C93.6353 6.08814 93.488 6.82718 93.9736 7.48725C94.0886 7.64325 94.2173 7.79828 94.3704 7.9143C94.893 8.31405 94.9252 8.78789 94.7116 9.37971C94.4269 10.1714 94.2232 10.9933 93.9697 11.7977C92.2098 17.398 90.2725 22.9409 88.4434 28.5188C88.0583 29.6956 87.3758 30.462 86.4116 31.0499C85.7768 30.8344 85.4093 30.42 85.0934 29.8984C83.0595 26.5396 81.0042 23.1944 78.9597 19.8423C78.8281 19.6269 78.6253 19.4368 78.6574 19.0848C78.8251 18.8722 79.0192 18.6158 79.2249 18.3672C80.9194 16.3148 82.6247 14.2712 84.3075 12.2082C84.8672 11.5218 85.496 10.9251 86.2205 10.421C86.4866 10.2367 86.7586 10.0505 86.9868 9.82333C87.4616 9.35339 87.3144 8.83079 86.6611 8.67674C86.3823 8.61044 86.081 8.62702 85.7895 8.61825C85.0953 8.59875 84.4011 8.58607 83.507 8.56559C83.9731 8.1795 84.2792 7.95038 84.5571 7.69103C85.4288 6.87496 85.263 5.85999 84.1856 5.3491C83.7342 5.13557 83.2497 5.09852 82.7602 5.08585C80.2613 5.0176 77.7634 4.94935 75.2645 4.87817C74.777 4.86452 74.2895 4.85088 73.8137 4.98543C73.3077 5.12778 72.9625 5.49827 72.6437 5.97602C72.2088 5.07122 71.5225 4.77678 70.6908 4.74168C67.8692 4.62273 65.0475 4.5067 62.2259 4.39165C61.8671 4.37703 61.5151 4.40043 61.169 4.51646C60.0556 4.89085 59.7387 5.88437 60.4651 6.81451C60.7225 7.14601 61.0286 7.44436 61.3387 7.72808C61.9042 8.24385 62.1226 8.85419 62.1206 9.63028C62.0982 16.0906 62.0962 22.5518 62.1226 29.0131C62.1255 29.8302 61.8895 30.462 61.2997 30.9963C60.9935 31.2741 60.7098 31.5773 60.4622 31.824C59.5817 31.5325 59.1147 30.9582 58.714 30.2543C56.7562 26.8135 54.7643 23.3933 52.7919 19.9603C52.633 19.6844 52.4155 19.429 52.3795 19.0614C52.5403 18.841 52.7061 18.6012 52.8845 18.3721C54.582 16.1968 56.2911 14.0304 57.9759 11.8464C58.5765 11.0674 59.2405 10.3693 60.0536 9.81261C60.2672 9.66636 60.4739 9.50451 60.6591 9.32414C61.2568 8.74499 61.1047 8.22337 60.2886 7.99425C59.9054 7.887 59.5154 7.9182 59.1274 7.9026C58.5668 7.8792 58.0052 7.8675 57.2856 7.84605C57.7702 7.41608 58.129 7.14211 58.4342 6.81841C59.0933 6.11642 58.9967 5.19407 58.2138 4.6354C57.8111 4.3468 57.3451 4.19471 56.8488 4.16936C54.0935 4.02994 51.3382 3.89734 48.5819 3.75986C47.6527 3.71404 46.8961 4.00556 46.4262 4.93473C45.9796 3.91001 45.1957 3.58533 44.21 3.53074C41.5532 3.38351 38.8973 3.20997 36.2414 3.02959C35.3737 2.97109 34.5839 3.10564 33.9707 3.80471C33.4461 3.17194 32.8475 2.83459 32.087 2.78292C29.4311 2.60352 26.7772 2.40755 24.1223 2.22912C23.4125 2.18135 22.69 2.11115 22.0582 2.64545C21.2256 1.61683 20.1326 1.44133 18.9558 1.5086C18.6643 1.52518 18.3727 1.53786 18.0802 1.54858C17.1404 1.58466 16.2005 1.64315 15.2586 1.55638C13.9336 1.43548 12.6066 1.34091 11.2816 1.22293C9.37455 1.05231 7.46941 0.872912 5.56331 0.695464C4.55711 0.60284 3.59187 0.315213 2.61201 0.0938899C0.958421 -0.278557 0.0224294 0.467313 0.00877948 2.14917C-0.00682038 4.13036 0.00195454 6.11056 0.00780449 8.09077C0.0107295 8.96534 0.330527 9.69073 1.13489 10.1012C1.97046 10.5283 2.76703 10.3479 3.51777 9.83308C3.74495 9.67708 3.89705 9.37484 4.29192 9.42846C4.29192 9.71999 4.29094 10.0105 4.29192 10.3001C4.29484 10.8198 4.26267 11.3424 4.30947 11.8581C4.38552 12.6879 5.00951 13.0437 5.76903 12.7093C5.9728 12.6196 6.13953 12.45 6.33062 12.3291C6.50905 12.216 6.6319 11.9625 6.94584 12.099V13.149C6.94584 18.9931 6.91952 24.8372 6.96729 30.6813C6.97704 31.8923 6.72452 32.9082 5.88018 33.7828C5.54381 34.1308 5.25716 34.5335 5.06899 34.9898C4.55419 36.2378 5.27958 37.4068 6.62995 37.4673C7.11354 37.4887 7.60104 37.4166 8.08658 37.3834C8.41028 37.361 8.733 37.3181 9.0567 37.3093C9.357 37.3015 9.66997 37.2138 10.0229 37.3493C9.75967 37.8163 9.3921 38.1176 9.25852 38.5602C9.12592 39.0009 9.28777 39.3344 9.71677 39.4767C9.93614 39.5499 10.1604 39.5381 10.3905 39.5196C12.5891 39.3373 14.7887 39.1647 16.9883 38.9883C17.5382 38.9444 18.091 38.9161 18.637 38.8401C19.5652 38.7104 19.8352 38.0552 19.2639 37.3308C19.0231 37.0256 18.7384 36.7555 18.4712 36.4728C17.8433 35.8078 17.5323 35.0532 17.5352 34.1045C17.5586 26.6049 17.5469 19.1043 17.5518 11.6046C17.5518 11.3541 17.4738 11.083 17.7146 10.7964C19.1167 10.8295 20.5002 10.9465 21.5054 12.2238C22.0231 12.8809 22.6247 13.4786 23.5997 13.4357V14.2878C23.5997 19.6766 23.586 25.0664 23.6153 30.4561C23.6192 31.2644 23.3813 31.904 22.8606 32.4851C22.536 32.8468 22.2006 33.2085 21.9373 33.6131C21.129 34.8553 21.7764 36.154 23.2594 36.2729C23.6757 36.3061 24.1008 36.2437 24.521 36.2193C25.2152 36.1803 25.9094 36.1364 26.7538 36.0857C26.4447 36.5128 26.2166 36.7799 26.044 37.0792C25.7144 37.6496 25.9406 38.1127 26.5851 38.2112C26.7742 38.2404 26.9741 38.2219 27.1672 38.2083C29.8221 38.0289 32.477 37.8475 35.1319 37.6642C35.2927 37.6525 35.4585 37.6379 35.6106 37.5891C36.2765 37.3756 36.4247 36.8901 36.0289 36.31C35.8621 36.0652 35.4975 35.9414 35.518 35.5183C36.6616 35.5797 37.7644 35.3506 38.9129 35.3788C38.7852 35.8205 38.478 35.9911 38.3191 36.2719C37.9866 36.8579 38.1787 37.2801 38.8505 37.3883C39.0084 37.4136 39.1742 37.4029 39.3351 37.3932C41.3435 37.2781 43.353 37.1621 45.3615 37.0431C46.1386 36.9973 46.9166 36.9525 47.6927 36.892C48.031 36.8647 48.3391 36.7351 48.4688 36.3938C48.6014 36.0448 48.4288 35.7659 48.1841 35.5251C47.8838 35.2287 47.5835 34.9323 47.2832 34.6349C46.7508 34.1074 46.4856 33.4942 46.5013 32.7191C46.5364 31.0313 46.509 29.3427 46.5178 27.655C46.5188 27.4522 46.4262 27.2084 46.7343 26.99C47.5971 28.5666 48.4425 30.1119 49.2771 31.6368C49.0684 31.862 48.9261 31.9966 48.8071 32.1487C48.4269 32.6342 48.2192 33.1715 48.4688 33.7779C48.7311 34.4155 49.2761 34.6788 49.9254 34.7539C50.1497 34.7792 50.3798 34.7714 50.606 34.7646C51.3528 34.7412 52.0987 34.7071 52.8445 34.6895C53.0161 34.6846 53.2375 34.5881 53.3389 34.8796C53.1994 35.0347 53.0327 35.1868 52.906 35.3662C52.4565 36.0038 52.6846 36.4923 53.4598 36.5722C53.5563 36.583 53.6548 36.583 53.7523 36.5791C56.3789 36.4689 59.0065 36.3587 61.6331 36.2427C61.9558 36.2281 62.2864 36.2047 62.5789 36.0487C63.0391 35.803 63.0654 35.3701 62.653 35.0425C62.3829 34.828 62.0163 34.7431 61.7755 34.4409C62.7085 34.2098 64.1925 34.1542 65.0885 34.3063C65.0846 34.4916 64.9247 34.5696 64.8262 34.6895C64.7229 34.8153 64.5971 34.9264 64.5171 35.0639C64.2578 35.5085 64.4177 35.9102 64.9257 36.0253C65.2055 36.0877 65.5058 36.0818 65.7963 36.0711C68.3264 35.9785 70.8556 35.878 73.3857 35.7776C73.6128 35.7688 73.8429 35.7679 74.0643 35.724C74.7994 35.5777 74.9739 35.1019 74.4825 34.554C74.2027 34.241 73.881 33.9631 73.566 33.6824C72.9723 33.151 72.71 32.5046 72.7275 31.6973C72.7597 30.2046 72.7334 28.7109 72.7422 27.2172C72.7431 27.0066 72.6476 26.7589 72.9771 26.5259C73.8254 27.9777 74.6678 29.4177 75.5043 30.849C75.322 31.047 75.2138 31.1649 75.1046 31.2829C74.7087 31.7138 74.4601 32.2091 74.6736 32.7902C74.9125 33.4376 75.4741 33.7058 76.1186 33.7857C76.4705 33.8296 76.8313 33.8052 77.1881 33.8062C77.9847 33.8081 78.7803 33.8062 79.5876 33.8062C79.5622 33.9193 79.5671 33.9914 79.533 34.0295C79.2366 34.3561 78.752 34.6261 78.985 35.1614C79.2132 35.6869 79.7455 35.5729 80.1882 35.5641C82.7846 35.5085 85.381 35.4442 87.9764 35.3759C88.2338 35.3691 88.501 35.3535 88.7437 35.2794C88.9563 35.2141 89.1493 35.0581 89.1922 34.8094C89.239 34.5442 89.0655 34.3921 88.8685 34.2615C88.5848 34.0743 88.2455 33.9612 87.9764 33.6619C89.32 33.4766 90.4441 33.502 91.0077 33.7174C90.9891 33.7418 90.9706 33.7662 90.9511 33.7896C90.6606 34.1406 89.9878 34.3171 90.2325 34.9186C90.4587 35.4734 91.0593 35.3281 91.5312 35.3223C94.192 35.2872 96.8537 35.2404 99.5154 35.1897C99.7719 35.1848 100.044 35.1731 100.28 35.0854C100.727 34.9196 100.795 34.5179 100.457 34.1689C100.323 34.0294 100.168 33.9056 100.008 33.7974C99.0913 33.1744 98.8125 32.3252 99.0777 31.2215C100.831 30.5107 102.589 29.799 104.341 29.0882C104.624 29.5074 104.655 29.8935 104.776 30.3303C104.508 30.5692 104.222 30.7857 103.982 31.045C103.292 31.7938 103.464 32.6625 104.384 33.1052C104.829 33.3197 105.307 33.3879 105.803 33.3801C106.73 33.3674 107.659 33.3762 108.769 33.3762C108.448 33.7106 108.237 33.8978 108.065 34.1152C107.762 34.4994 107.864 34.8533 108.304 35.0483C108.552 35.1575 108.813 35.1341 109.07 35.1341C111.57 35.1361 114.071 35.1361 116.571 35.1331C116.764 35.1331 116.964 35.1409 117.151 35.099C117.727 34.9703 117.871 34.5559 117.508 34.1026ZM46.4301 5.36957C46.6309 5.89119 46.9039 6.22367 47.1594 6.56881C47.5074 7.03876 47.3037 7.44338 46.7079 7.45313C46.1688 7.46288 45.6286 7.41413 44.873 7.38098C45.5019 6.65656 46.1425 6.22659 46.4301 5.36957ZM33.9648 5.33057C34.3841 5.81514 34.7906 6.28509 35.2732 6.84278H32.8289C32.7997 6.78039 32.7714 6.71799 32.7431 6.65461C33.1351 6.23049 33.527 5.80539 33.9648 5.33057ZM34.2563 32.5543V31.5227C34.2563 24.9435 34.2856 18.3643 34.232 11.785C34.2203 10.4503 34.6415 9.46356 35.6974 8.69624C35.9616 8.77034 35.8543 9.00532 35.8543 9.17106C35.8602 16.1715 35.8543 23.1729 35.869 30.1734C35.8699 30.7671 35.6857 31.2468 35.3113 31.6748C35.0344 31.9907 34.7429 32.293 34.4572 32.6011C34.3899 32.5855 34.3236 32.5699 34.2563 32.5543ZM72.6066 6.47619C72.9147 6.87886 73.1175 7.1577 73.335 7.42485C73.4763 7.59742 73.6694 7.74465 73.5456 8.00497C73.4149 8.27992 73.1682 8.31405 72.8982 8.31015C72.3912 8.3043 71.8832 8.30819 71.1929 8.30819C71.6765 7.6062 72.3551 7.2747 72.6066 6.47619Z" fill="#FEFEFE"/>
<path d="M120.292 40.4234C120.468 40.9977 120.367 41.6003 120.354 42.3042H115.952V44.8723H119.291C119.344 45.5382 119.36 46.1076 119.273 46.7765H115.943V49.3612H120.338V51.1825C119.673 51.3589 114.62 51.4009 113.346 51.2322V40.4234H120.292Z" fill="#FEFEFE"/>
<path d="M130.53 51.1864C129.768 51.357 124.597 51.3853 123.497 51.2302V40.4907C124.243 40.325 129.443 40.3055 130.483 40.4693V42.3042C129.057 42.3832 127.612 42.3003 126.124 42.351C125.95 43.1641 126.044 43.9558 126.063 44.7943C127.176 44.9688 128.276 44.7817 129.39 44.9104C129.547 45.4934 129.468 46.0657 129.435 46.7355H126.135C125.949 47.6208 126.06 48.4203 126.046 49.2569C126.788 49.4723 127.531 49.3271 128.261 49.3544C128.97 49.3807 129.68 49.3602 130.432 49.3602C130.62 49.9988 130.476 50.6024 130.53 51.1864Z" fill="#FEFEFE"/>
<path d="M141.437 40.4683V42.3393H138.418C138.363 43.3699 138.397 44.3322 138.391 45.2926C138.384 46.2978 138.389 47.302 138.389 48.3072V51.2498C137.545 51.3853 136.748 51.3209 135.852 51.2926V42.3841H132.828V40.4927C133.505 40.325 140.354 40.2977 141.437 40.4683Z" fill="#FEFEFE"/>
<path d="M155.83 42.3344H151.42V45.0352C152.584 45.1824 153.778 45.0176 155.034 45.1317C155.132 45.7381 155.081 46.3358 155.073 47.0261H151.373V51.279H148.884C148.754 50.4649 148.715 41.8772 148.831 40.4907C149.559 40.324 153.526 40.2714 155.744 40.402C155.957 40.9841 155.818 41.5915 155.83 42.3344Z" fill="#FEFEFE"/>
<path d="M163.783 40.2206C160.482 40.2265 158.083 42.5928 158.089 45.8346C158.096 49.1233 160.54 51.511 163.867 51.4769C167.161 51.4438 169.508 49.0784 169.497 45.8025C169.487 42.5489 167.096 40.2148 163.783 40.2206ZM166.666 47.3059C166.248 48.6533 165.165 49.3778 163.698 49.3378C162.295 49.2998 161.281 48.5285 160.899 47.2074C160.772 46.7677 160.698 46.3212 160.696 45.858C160.737 45.5051 160.755 45.1473 160.824 44.8002C161.22 42.7897 162.881 42.0566 164.621 42.4358C165.655 42.661 166.332 43.3348 166.653 44.3361C166.967 45.3189 166.971 46.3221 166.666 47.3059Z" fill="#FEFEFE"/>
<path d="M177.753 40.2207C174.376 40.1505 171.901 42.4583 171.848 45.7235C171.796 48.98 174.134 51.396 177.418 51.4779C180.74 51.5598 183.234 49.1906 183.275 45.9136C183.314 42.7049 180.969 40.2879 177.753 40.2207ZM180.621 46.094C180.621 46.1037 180.62 46.2987 180.601 46.4918C180.399 48.588 178.69 49.759 176.656 49.2159C175.698 48.9605 175.064 48.3628 174.745 47.4453C174.395 46.4382 174.381 45.4057 174.699 44.3858C175.114 43.0559 176.121 42.352 177.557 42.3491C178.989 42.3471 179.986 43.054 180.43 44.3731C180.6 44.8743 180.633 45.3881 180.621 46.094Z" fill="#FEFEFE"/>
<path d="M195.859 43.8174C195.135 41.7397 193.259 40.4517 190.918 40.3757C189.592 40.3328 188.262 40.3611 186.934 40.3679C186.721 40.3689 186.478 40.2889 186.275 40.5258V51.3219C187.821 51.3219 189.304 51.355 190.785 51.316C195.123 51.202 197.082 47.3254 195.859 43.8174ZM193.308 47.4951C192.879 48.6524 192.015 49.252 190.81 49.3466C190.199 49.3943 189.581 49.3553 188.977 49.3553C188.784 48.6455 188.731 44.0377 188.901 42.3374C189.528 42.3374 190.109 42.3227 190.689 42.3403C191.979 42.3793 192.905 43.0423 193.334 44.2581C193.713 45.3345 193.707 46.4216 193.308 47.4951Z" fill="#FEFEFE"/>
<path d="M225.918 29.3319C225.917 29.1379 225.918 28.941 225.891 28.7499C225.812 28.1863 225.196 27.7593 224.659 28.0761C224.425 28.2146 224.185 28.4301 223.773 28.353V27.4122C223.772 26.7307 223.795 26.0482 223.765 25.3667C223.714 24.2152 223.068 23.5259 221.918 23.3494C221.793 23.3299 221.666 23.326 221.55 23.3162C221.394 22.9779 221.471 22.6493 221.465 22.3305C221.453 21.5837 221.492 20.8349 221.449 20.09C221.401 19.2544 220.944 18.9502 220.14 19.1208C219.888 19.1745 219.679 19.3695 219.408 19.3315C219.252 19.1647 219.304 18.9619 219.302 18.7747C219.293 18.0279 219.338 17.2781 219.28 16.5352C219.167 15.1136 218.022 14.3551 216.653 14.7656C216.345 14.8572 216.057 15.0191 215.763 15.1546C215.566 15.2443 215.411 15.4568 215.142 15.3623V11.0187C215.328 11.4623 215.224 11.823 215.259 12.1721C215.335 12.9579 215.92 13.6785 216.655 13.8715C217.188 14.0119 217.675 13.8637 218.154 13.6238C218.605 13.3986 219.002 13.0535 219.579 12.9345C219.579 13.6746 219.567 14.3551 219.582 15.0337C219.606 16.1296 220.11 16.4347 221.067 15.917C222.469 15.1604 223.77 14.2459 225.069 13.3274C225.683 12.8926 225.942 12.3437 225.928 11.592C225.898 9.93643 225.92 8.27992 225.915 6.62439C225.915 6.39819 225.901 6.16809 225.856 5.94774C225.727 5.31497 225.37 5.00785 224.728 4.93277C224.444 4.9006 224.148 5.00005 223.83 4.84892C223.813 4.7368 223.784 4.6159 223.779 4.49403C223.755 3.84566 223.789 3.19046 223.703 2.55087C223.547 1.37893 222.77 0.704235 221.591 0.669136C221.107 0.654511 220.618 0.701311 220.134 0.743236C217.45 0.970409 214.767 1.21415 212.083 1.4345C209.56 1.6412 207.035 1.82645 204.51 2.01853C204.114 2.04875 203.747 2.17355 203.41 2.37439C202.424 2.95841 202.19 4.02603 202.86 4.9552C203.086 5.26915 203.362 5.55287 203.643 5.82002C204.268 6.41281 204.529 7.10115 204.524 7.98547C204.494 13.7974 204.508 19.6103 204.508 25.4222V26.29C204.106 26.095 203.839 25.7537 203.402 25.8727C203.038 25.9731 202.741 26.2919 202.279 26.2285V24.9435C202.279 24.4892 202.29 24.0338 202.275 23.5795C202.228 22.1784 201.036 21.3516 199.707 21.804C199.4 21.9084 199.11 22.0605 198.821 22.2067C197.52 22.8697 196.263 23.6117 195.004 24.3517C194.163 24.845 193.757 25.5158 193.811 26.5084C193.859 27.4073 193.821 28.3121 193.821 29.2783C193.43 29.2695 193.122 29.4012 192.82 29.1555C192.81 28.9965 192.793 28.8357 192.793 28.6748C192.791 23.2519 192.791 17.829 192.794 12.4061C192.794 12.1799 192.804 11.9517 192.842 11.7294C192.87 11.5637 192.983 11.4428 193.171 11.4204C193.399 11.5803 193.314 11.825 193.317 12.0356C193.329 12.6528 193.336 13.2699 193.32 13.8871C193.285 15.2326 194.704 16.0448 195.854 15.5777C196.184 15.4442 196.496 15.2657 196.825 15.1273C197.055 15.0308 197.247 14.8055 197.538 14.8894C197.566 14.9479 197.616 15.0044 197.617 15.0629C197.628 15.5816 197.625 16.1013 197.636 16.621C197.658 17.75 198.111 18.0562 199.098 17.5696C200.526 16.8667 201.884 16.0409 203.213 15.1643C203.745 14.8133 204 14.3609 203.982 13.7019C203.947 12.4685 203.948 11.2332 203.979 9.99981C204.008 8.89514 203.535 8.0625 202.704 7.39853C202.429 7.18013 202.127 6.99683 201.863 6.81548C201.618 4.69487 200.328 3.26554 198.304 2.78584C197.404 2.57232 196.5 2.58889 195.591 2.64739C192.87 2.82289 190.15 3.00326 187.43 3.18949C186.247 3.27139 185.129 3.59021 184.106 4.19665C183.078 4.80505 182.386 5.66499 182.189 6.87398C182.164 7.02706 182.192 7.20645 181.952 7.31663C181.402 7.34588 180.795 7.37805 179.976 7.42095C180.352 7.01146 180.612 6.73749 180.862 6.45474C181.334 5.92044 181.693 5.33057 181.369 4.60128C181.036 3.84761 180.342 3.66724 179.594 3.63799C179.368 3.62921 179.141 3.65553 178.914 3.66723C178.266 3.70136 177.617 3.73938 176.969 3.77156C175.186 3.85931 173.402 3.93828 171.619 4.03481C171.071 4.06503 170.516 4.07088 169.999 4.30878C168.823 4.85088 168.603 5.86096 169.477 6.80963C169.807 7.16745 170.176 7.48823 170.51 7.84215C170.895 8.24775 171.105 8.70794 170.835 9.42164C170.42 8.75864 169.784 8.54999 169.231 8.19607C169 6.00624 167.598 4.97665 165.602 4.5808C164.84 4.4287 164.06 4.37215 163.276 4.40238C159.545 4.54472 155.814 4.68123 152.083 4.81968C151.208 4.85185 150.331 4.89085 149.456 4.91913C148.954 4.9357 148.492 5.06732 148.093 5.37445C147.418 5.89412 147.315 6.56783 147.841 7.23765C148.079 7.54185 148.366 7.8168 148.669 8.05859C149.328 8.58509 149.578 9.22858 149.574 10.0885C149.544 16.2904 149.558 22.4933 149.558 28.6953C149.558 28.9224 149.574 29.1525 149.544 29.3758C149.506 29.6595 149.435 29.9423 149.156 30.0983C148.964 29.9618 149.032 29.7912 149.031 29.6469C149.026 28.3482 148.981 27.0475 149.04 25.7508C149.104 24.378 148.607 23.3513 147.415 22.6727C147.058 22.47 146.809 22.2389 146.757 21.7894C146.655 20.9295 146.133 20.3123 145.474 19.7975C144.96 19.3958 144.398 19.0721 143.82 18.7747C142.003 17.8397 140.192 16.893 138.365 15.9785C137.963 15.7776 137.773 15.5465 137.8 15.0844C137.838 14.4545 137.809 13.8218 137.809 13.191C138.309 14.0372 139.104 14.397 139.904 14.7558C140.407 14.982 140.899 15.2306 141.404 15.451C141.908 15.6713 142.378 15.9414 142.854 16.2203C144.056 16.9252 145.32 17.5355 146.662 17.9304C148.002 18.3253 148.588 17.7578 148.541 16.5605C148.478 14.9391 148.502 13.3138 148.533 11.6904C148.553 10.6745 148.11 9.95008 147.298 9.41091C147.005 9.21591 146.693 9.05114 146.394 8.87466C146.313 7.28348 145.346 6.38551 144.038 5.77906C143.117 5.35202 142.13 5.12874 141.111 5.14532C138.06 5.19602 135.008 5.24672 131.957 5.33935C130.81 5.37347 129.714 5.69619 128.722 6.29386C127.738 6.88666 127.168 7.72515 127.177 8.92439C127.196 11.2302 127.194 13.5361 127.178 15.841C127.17 16.8979 127.582 17.7208 128.409 18.3604C129.028 18.84 129.698 19.2301 130.393 19.5879C132.815 20.8349 135.227 22.1024 137.656 23.3357C138.149 23.5863 138.379 23.8808 138.35 24.4599C138.302 25.4641 138.341 26.4723 138.334 27.4785C138.333 27.6608 138.399 27.8724 138.189 28.0069C137.952 28.0527 137.81 27.9435 137.782 27.7144C137.71 27.1187 137.28 26.8467 136.817 26.5834C136.428 26.3621 135.976 26.2363 135.624 25.8298C135.882 24.4638 135.099 23.7053 133.941 23.1427C132.977 22.6747 132.021 22.1969 131.007 21.8469C130.484 21.6665 129.96 21.5047 129.396 21.5154C127.933 21.5447 127.187 22.2837 127.182 23.7335C127.177 25.585 127.231 27.4375 127.164 29.2861C127.118 30.6004 127.683 31.514 128.684 32.2569C129.459 32.8322 130.344 33.1295 131.265 33.346C131.514 33.4055 131.757 33.4142 131.95 33.6482C132.959 34.8631 134.336 35.2921 135.844 35.3389C138.764 35.4295 141.686 35.4744 144.607 35.5436C145.607 35.568 146.525 35.293 147.405 34.8367C147.931 34.5647 148.318 34.126 148.718 33.7681C150.023 33.8325 151.267 33.8949 152.558 33.9583C152.429 34.359 152.131 34.4828 151.982 34.7246C151.737 35.1205 151.83 35.5221 152.266 35.6655C152.599 35.7737 152.967 35.7981 153.321 35.8127C155.818 35.9121 158.317 35.9999 160.815 36.0906C160.978 36.0964 161.14 36.1003 161.303 36.0993C161.637 36.0974 161.969 36.0564 162.137 35.7191C162.337 35.3194 162.077 35.0405 161.83 34.7782C161.497 34.4233 161.143 34.0879 160.814 33.7291C160.432 33.3099 160.183 32.8244 160.182 32.2403C160.179 31.2341 160.191 30.227 160.176 29.2208C160.169 28.7801 160.341 28.4798 160.727 28.2789C161.159 28.0547 161.585 27.8197 162.01 27.5818C164.972 25.9234 168.047 24.4657 170.867 22.5528C170.978 22.5821 170.97 22.6913 170.97 22.7829C170.973 25.0878 170.967 27.3937 170.977 29.6995C170.978 30.1958 170.764 30.5711 170.433 30.9036C170.09 31.2488 169.715 31.5656 169.398 31.9332C168.634 32.8185 168.86 33.8198 169.922 34.3219C170.338 34.5179 170.784 34.5832 171.247 34.5901C172.166 34.6047 173.08 34.6846 174.032 34.8455C173.898 35.0834 173.7 35.2033 173.56 35.372C173.069 35.9677 173.237 36.4815 173.973 36.6658C174.129 36.7048 174.294 36.7058 174.456 36.7136C177.018 36.8511 179.578 36.9876 182.139 37.1202C182.43 37.1358 182.727 37.1572 183.013 37.1163C183.562 37.0363 183.791 36.5966 183.506 36.1237C183.308 35.7952 183.039 35.4988 182.759 35.2326C181.907 34.4224 181.573 33.4678 181.58 32.2715C181.62 25.5831 181.599 18.8937 181.599 12.2043C181.599 11.9118 181.594 11.6193 181.613 11.3277C181.639 10.9104 181.728 10.5126 182.163 10.0339V11.2429C182.164 17.8348 182.171 24.4268 182.158 31.0187C182.155 32.5328 182.818 33.6199 184.093 34.3785C184.543 34.6447 185.006 34.8943 185.515 34.9976C186.211 35.14 186.766 35.4061 187.101 36.0935C187.267 36.4347 187.645 36.6405 187.984 36.8384C188.813 37.322 189.718 37.5813 190.664 37.6506C193.61 37.866 196.558 38.0445 199.504 38.2609C201.361 38.3974 202.991 38.0064 204.135 36.3948C205.287 36.542 206.425 36.4581 207.672 36.7146C207.432 36.9778 207.301 37.1182 207.173 37.2625C206.908 37.5638 206.684 37.8865 206.853 38.3116C207.02 38.7289 207.387 38.8449 207.796 38.8791C208.346 38.9249 208.895 38.9766 209.445 39.0233C212.29 39.2661 215.136 39.5079 217.981 39.7526C220.083 39.933 222.183 40.127 224.286 40.2977C225.398 40.3883 225.84 39.9857 225.913 38.8771C225.922 38.7474 225.919 38.6168 225.919 38.4871C225.919 35.4354 225.919 32.3837 225.918 29.3319ZM160.75 16.5098C160.752 16.8472 160.646 17.0753 160.16 17.0987V12.6635C160.16 12.3788 160.201 12.1302 160.613 12.2062C160.647 12.2725 160.725 12.3515 160.726 12.4314C160.739 13.7906 160.74 15.1507 160.75 16.5098Z" fill="#FEFEFE"/>
<path d="M225.918 29.3319C225.917 29.1379 225.918 28.941 225.891 28.7499C225.812 28.1863 225.196 27.7593 224.659 28.0761C224.425 28.2146 224.185 28.4301 223.773 28.353V27.4122C223.772 26.7307 223.795 26.0482 223.765 25.3667C223.714 24.2152 223.068 23.5259 221.918 23.3494C221.793 23.3299 221.666 23.326 221.55 23.3162C221.394 22.9779 221.471 22.6493 221.465 22.3305C221.453 21.5837 221.492 20.8349 221.449 20.09C221.401 19.2544 220.944 18.9502 220.14 19.1208C219.888 19.1745 219.679 19.3695 219.408 19.3315C219.252 19.1647 219.304 18.9619 219.302 18.7747C219.293 18.0279 219.338 17.2781 219.28 16.5352C219.167 15.1136 218.022 14.3551 216.653 14.7656C216.345 14.8572 216.057 15.0191 215.763 15.1546C215.566 15.2443 215.411 15.4568 215.142 15.3623V11.0187C215.328 11.4623 215.224 11.823 215.259 12.1721C215.335 12.9579 215.92 13.6785 216.655 13.8715C217.188 14.0119 217.675 13.8637 218.154 13.6238C218.605 13.3986 219.002 13.0535 219.579 12.9345C219.579 13.6746 219.567 14.3551 219.582 15.0337C219.606 16.1296 220.11 16.4347 221.067 15.917C222.469 15.1604 223.77 14.2459 225.069 13.3274C225.683 12.8926 225.942 12.3437 225.928 11.592C225.898 9.93643 225.92 8.27992 225.915 6.62439C225.915 6.39819 225.901 6.16809 225.856 5.94774C225.727 5.31497 225.37 5.00785 224.728 4.93277C224.444 4.9006 224.148 5.00005 223.83 4.84892C223.813 4.7368 223.784 4.6159 223.779 4.49403C223.755 3.84566 223.789 3.19046 223.703 2.55087C223.547 1.37893 222.77 0.704235 221.591 0.669136C221.107 0.654511 220.618 0.701311 220.134 0.743236C217.45 0.970409 214.767 1.21415 212.083 1.4345C209.56 1.6412 207.035 1.82645 204.51 2.01853C204.114 2.04875 203.747 2.17355 203.41 2.37439C202.424 2.95841 202.19 4.02603 202.86 4.9552C203.086 5.26915 203.362 5.55287 203.643 5.82002C204.268 6.41281 204.529 7.10115 204.524 7.98547C204.494 13.7974 204.508 19.6103 204.508 25.4222V26.29C204.106 26.095 203.839 25.7537 203.402 25.8727C203.038 25.9731 202.741 26.2919 202.279 26.2285V24.9435C202.279 24.4892 202.29 24.0338 202.275 23.5795C202.228 22.1784 201.036 21.3516 199.707 21.804C199.4 21.9084 199.11 22.0605 198.821 22.2067C197.52 22.8697 196.263 23.6117 195.004 24.3517C194.163 24.845 193.757 25.5158 193.811 26.5084C193.859 27.4073 193.821 28.3121 193.821 29.2783C193.43 29.2695 193.122 29.4012 192.82 29.1555C192.81 28.9965 192.793 28.8357 192.793 28.6748C192.791 23.2519 192.791 17.829 192.794 12.4061C192.794 12.1799 192.804 11.9517 192.842 11.7294C192.87 11.5637 192.983 11.4428 193.171 11.4204C193.399 11.5803 193.314 11.825 193.317 12.0356C193.329 12.6528 193.336 13.2699 193.32 13.8871C193.285 15.2326 194.704 16.0448 195.854 15.5777C196.184 15.4442 196.496 15.2657 196.825 15.1273C197.055 15.0308 197.247 14.8055 197.538 14.8894C197.566 14.9479 197.616 15.0044 197.617 15.0629C197.628 15.5816 197.625 16.1013 197.636 16.621C197.658 17.75 198.111 18.0562 199.098 17.5696C200.526 16.8667 201.884 16.0409 203.213 15.1643C203.745 14.8133 204 14.3609 203.982 13.7019C203.947 12.4685 203.948 11.2332 203.979 9.99981C204.008 8.89514 203.535 8.0625 202.704 7.39853C202.429 7.18013 202.127 6.99683 201.863 6.81548C201.618 4.69487 200.328 3.26554 198.304 2.78584C197.404 2.57232 196.5 2.58889 195.591 2.64739C192.87 2.82289 190.15 3.00326 187.43 3.18949C186.247 3.27139 185.129 3.59021 184.106 4.19665C183.078 4.80505 182.386 5.66499 182.189 6.87398C182.164 7.02706 182.192 7.20645 181.952 7.31663C181.402 7.34588 180.795 7.37805 179.976 7.42095C180.352 7.01146 180.612 6.73749 180.862 6.45474C181.334 5.92044 181.693 5.33057 181.369 4.60128C181.036 3.84761 180.342 3.66724 179.594 3.63799C179.368 3.62921 179.141 3.65553 178.914 3.66723C178.266 3.70136 177.617 3.73938 176.969 3.77156C175.186 3.85931 173.402 3.93828 171.619 4.03481C171.071 4.06503 170.516 4.07088 169.999 4.30878C168.823 4.85088 168.603 5.86096 169.477 6.80963C169.807 7.16745 170.176 7.48823 170.51 7.84215C170.895 8.24775 171.105 8.70794 170.835 9.42164C170.42 8.75864 169.784 8.54999 169.231 8.19607C169 6.00624 167.598 4.97665 165.602 4.5808C164.84 4.4287 164.06 4.37215 163.276 4.40238C159.545 4.54472 155.814 4.68123 152.083 4.81968C151.208 4.85185 150.331 4.89085 149.456 4.91913C148.954 4.9357 148.492 5.06732 148.093 5.37445C147.418 5.89412 147.315 6.56783 147.841 7.23765C148.079 7.54185 148.366 7.8168 148.669 8.05859C149.328 8.58509 149.578 9.22858 149.574 10.0885C149.544 16.2904 149.558 22.4933 149.558 28.6953C149.558 28.9224 149.574 29.1525 149.544 29.3758C149.506 29.6595 149.435 29.9423 149.156 30.0983C148.964 29.9618 149.032 29.7912 149.031 29.6469C149.026 28.3482 148.981 27.0475 149.04 25.7508C149.104 24.378 148.607 23.3513 147.415 22.6727C147.058 22.47 146.809 22.2389 146.757 21.7894C146.655 20.9295 146.133 20.3123 145.474 19.7975C144.96 19.3958 144.398 19.0721 143.82 18.7747C142.003 17.8397 140.192 16.893 138.365 15.9785C137.963 15.7776 137.773 15.5465 137.8 15.0844C137.838 14.4545 137.809 13.8218 137.809 13.191C138.309 14.0372 139.104 14.397 139.904 14.7558C140.407 14.982 140.899 15.2306 141.404 15.451C141.908 15.6713 142.378 15.9414 142.854 16.2203C144.056 16.9252 145.32 17.5355 146.662 17.9304C148.002 18.3253 148.588 17.7578 148.541 16.5605C148.478 14.9391 148.502 13.3138 148.533 11.6904C148.553 10.6745 148.11 9.95008 147.298 9.41091C147.005 9.21591 146.693 9.05114 146.394 8.87466C146.313 7.28348 145.346 6.38551 144.038 5.77906C143.117 5.35202 142.13 5.12874 141.111 5.14532C138.06 5.19602 135.008 5.24672 131.957 5.33935C130.81 5.37347 129.714 5.69619 128.722 6.29386C127.738 6.88666 127.168 7.72515 127.177 8.92439C127.196 11.2302 127.194 13.5361 127.178 15.841C127.17 16.8979 127.582 17.7208 128.409 18.3604C129.028 18.84 129.698 19.2301 130.393 19.5879C132.815 20.8349 135.227 22.1024 137.656 23.3357C138.149 23.5863 138.379 23.8808 138.35 24.4599C138.302 25.4641 138.341 26.4723 138.334 27.4785C138.333 27.6608 138.399 27.8724 138.189 28.0069C137.952 28.0527 137.81 27.9435 137.782 27.7144C137.71 27.1187 137.28 26.8467 136.817 26.5834C136.428 26.3621 135.976 26.2363 135.624 25.8298C135.882 24.4638 135.099 23.7053 133.941 23.1427C132.977 22.6747 132.021 22.1969 131.007 21.8469C130.484 21.6665 129.96 21.5047 129.396 21.5154C127.933 21.5447 127.187 22.2837 127.182 23.7335C127.177 25.585 127.231 27.4375 127.164 29.2861C127.118 30.6004 127.683 31.514 128.684 32.2569C129.459 32.8322 130.344 33.1295 131.265 33.346C131.514 33.4055 131.757 33.4142 131.95 33.6482C132.959 34.8631 134.336 35.2921 135.844 35.3389C138.764 35.4295 141.686 35.4744 144.607 35.5436C145.607 35.568 146.525 35.293 147.405 34.8367C147.931 34.5647 148.318 34.126 148.718 33.7681C150.023 33.8325 151.267 33.8949 152.558 33.9583C152.429 34.359 152.131 34.4828 151.982 34.7246C151.737 35.1205 151.83 35.5221 152.266 35.6655C152.599 35.7737 152.967 35.7981 153.321 35.8127C155.818 35.9121 158.317 35.9999 160.815 36.0906C160.978 36.0964 161.14 36.1003 161.303 36.0993C161.637 36.0974 161.969 36.0564 162.137 35.7191C162.337 35.3194 162.077 35.0405 161.83 34.7782C161.497 34.4233 161.143 34.0879 160.814 33.7291C160.432 33.3099 160.183 32.8244 160.182 32.2403C160.179 31.2341 160.191 30.227 160.176 29.2208C160.169 28.7801 160.341 28.4798 160.727 28.2789C161.159 28.0547 161.585 27.8197 162.01 27.5818C164.972 25.9234 168.047 24.4657 170.867 22.5528C170.978 22.5821 170.97 22.6913 170.97 22.7829C170.973 25.0878 170.967 27.3937 170.977 29.6995C170.978 30.1958 170.764 30.5711 170.433 30.9036C170.09 31.2488 169.715 31.5656 169.398 31.9332C168.634 32.8185 168.86 33.8198 169.922 34.3219C170.338 34.5179 170.784 34.5832 171.247 34.5901C172.166 34.6047 173.08 34.6846 174.032 34.8455C173.898 35.0834 173.7 35.2033 173.56 35.372C173.069 35.9677 173.237 36.4815 173.973 36.6658C174.129 36.7048 174.294 36.7058 174.456 36.7136C177.018 36.8511 179.578 36.9876 182.139 37.1202C182.43 37.1358 182.727 37.1572 183.013 37.1163C183.562 37.0363 183.791 36.5966 183.506 36.1237C183.308 35.7952 183.039 35.4988 182.759 35.2326C181.907 34.4224 181.573 33.4678 181.58 32.2715C181.62 25.5831 181.599 18.8937 181.599 12.2043C181.599 11.9118 181.594 11.6193 181.613 11.3277C181.639 10.9104 181.728 10.5126 182.163 10.0339V11.2429C182.164 17.8348 182.171 24.4268 182.158 31.0187C182.155 32.5328 182.818 33.6199 184.093 34.3785C184.543 34.6447 185.006 34.8943 185.515 34.9976C186.211 35.14 186.766 35.4061 187.101 36.0935C187.267 36.4347 187.645 36.6405 187.984 36.8384C188.813 37.322 189.718 37.5813 190.664 37.6506C193.61 37.866 196.558 38.0445 199.504 38.2609C201.361 38.3974 202.991 38.0064 204.135 36.3948C205.287 36.542 206.425 36.4581 207.672 36.7146C207.432 36.9778 207.301 37.1182 207.173 37.2625C206.908 37.5638 206.684 37.8865 206.853 38.3116C207.02 38.7289 207.387 38.8449 207.796 38.8791C208.346 38.9249 208.895 38.9766 209.445 39.0233C212.29 39.2661 215.136 39.5079 217.981 39.7526C220.083 39.933 222.183 40.127 224.286 40.2977C225.398 40.3883 225.84 39.9857 225.913 38.8771C225.922 38.7474 225.919 38.6168 225.919 38.4871C225.919 35.4354 225.919 32.3837 225.918 29.3319ZM160.75 16.5098C160.752 16.8472 160.646 17.0753 160.16 17.0987V12.6635C160.16 12.3788 160.201 12.1302 160.613 12.2062C160.647 12.2725 160.725 12.3515 160.726 12.4314C160.739 13.7906 160.74 15.1507 160.75 16.5098Z" fill="#4D1E20"/>
<path d="M117.508 34.1026C117.447 34.0265 117.371 33.9651 117.303 33.8949C116.56 33.1412 115.652 32.5133 115.415 31.3775C115.396 31.2907 115.317 31.2059 115.247 31.1415C114.945 30.8656 114.834 30.4941 114.709 30.1236C113.34 26.0326 111.951 21.9483 110.601 17.8514C109.952 15.88 109.379 13.8842 108.759 11.903C108.574 11.3151 108.668 10.8227 109.128 10.4015C109.319 10.226 109.51 10.0437 109.665 9.83893C109.983 9.41871 109.847 9.00336 109.328 8.88929C108.985 8.81324 108.619 8.84249 108.262 8.82591C107.7 8.80056 107.127 8.88149 106.576 8.77716C106.576 8.65042 106.568 8.61629 106.578 8.58997C106.725 8.21167 107.085 8.0118 107.325 7.70955C107.934 6.94321 107.769 6.14859 106.902 5.704C106.517 5.50607 106.099 5.43002 105.677 5.42515C102.301 5.3881 98.9246 5.36372 95.5482 5.33447C95.1163 5.33057 94.7097 5.43294 94.3421 5.65719C93.6353 6.08814 93.488 6.82718 93.9736 7.48725C94.0886 7.64325 94.2173 7.79828 94.3704 7.9143C94.893 8.31405 94.9252 8.78789 94.7116 9.37971C94.4269 10.1714 94.2232 10.9933 93.9697 11.7977C92.2098 17.398 90.2725 22.9409 88.4434 28.5188C88.0583 29.6956 87.3758 30.462 86.4116 31.0499C85.7768 30.8344 85.4093 30.42 85.0934 29.8984C83.0595 26.5396 81.0042 23.1944 78.9597 19.8423C78.8281 19.6269 78.6253 19.4368 78.6574 19.0848C78.8251 18.8722 79.0192 18.6158 79.2249 18.3672C80.9194 16.3148 82.6247 14.2712 84.3075 12.2082C84.8672 11.5218 85.496 10.9251 86.2205 10.421C86.4866 10.2367 86.7586 10.0505 86.9868 9.82333C87.4616 9.35339 87.3144 8.83079 86.6611 8.67674C86.3823 8.61044 86.081 8.62702 85.7895 8.61825C85.0953 8.59875 84.4011 8.58607 83.507 8.56559C83.9731 8.1795 84.2792 7.95038 84.5571 7.69103C85.4288 6.87496 85.263 5.85999 84.1856 5.3491C83.7342 5.13557 83.2497 5.09852 82.7602 5.08585C80.2613 5.0176 77.7634 4.94935 75.2645 4.87817C74.777 4.86452 74.2895 4.85088 73.8137 4.98543C73.3077 5.12778 72.9625 5.49827 72.6437 5.97602C72.2088 5.07122 71.5225 4.77678 70.6908 4.74168C67.8692 4.62273 65.0475 4.5067 62.2259 4.39165C61.8671 4.37703 61.5151 4.40043 61.169 4.51646C60.0556 4.89085 59.7387 5.88437 60.4651 6.81451C60.7225 7.14601 61.0286 7.44436 61.3387 7.72808C61.9042 8.24385 62.1226 8.85419 62.1206 9.63028C62.0982 16.0906 62.0962 22.5518 62.1226 29.0131C62.1255 29.8302 61.8895 30.462 61.2997 30.9963C60.9935 31.2741 60.7098 31.5773 60.4622 31.824C59.5817 31.5325 59.1147 30.9582 58.714 30.2543C56.7562 26.8135 54.7643 23.3933 52.7919 19.9603C52.633 19.6844 52.4155 19.429 52.3795 19.0614C52.5403 18.841 52.7061 18.6012 52.8845 18.3721C54.582 16.1968 56.2911 14.0304 57.9759 11.8464C58.5765 11.0674 59.2405 10.3693 60.0536 9.81261C60.2672 9.66636 60.4739 9.50451 60.6591 9.32414C61.2568 8.74499 61.1047 8.22337 60.2886 7.99425C59.9054 7.887 59.5154 7.9182 59.1274 7.9026C58.5668 7.8792 58.0052 7.8675 57.2856 7.84605C57.7702 7.41608 58.129 7.14211 58.4342 6.81841C59.0933 6.11642 58.9967 5.19407 58.2138 4.6354C57.8111 4.3468 57.3451 4.19471 56.8488 4.16936C54.0935 4.02994 51.3382 3.89734 48.5819 3.75986C47.6527 3.71404 46.8961 4.00556 46.4262 4.93473C45.9796 3.91001 45.1957 3.58533 44.21 3.53074C41.5532 3.38351 38.8973 3.20997 36.2414 3.02959C35.3737 2.97109 34.5839 3.10564 33.9707 3.80471C33.4461 3.17194 32.8475 2.83459 32.087 2.78292C29.4311 2.60352 26.7772 2.40755 24.1223 2.22912C23.4125 2.18135 22.69 2.11115 22.0582 2.64545C21.2256 1.61683 20.1326 1.44133 18.9558 1.5086C18.6643 1.52518 18.3727 1.53786 18.0802 1.54858C17.1404 1.58466 16.2005 1.64315 15.2586 1.55638C13.9336 1.43548 12.6066 1.34091 11.2816 1.22293C9.37455 1.05231 7.46941 0.872912 5.56331 0.695464C4.55711 0.60284 3.59187 0.315213 2.61201 0.0938899C0.958421 -0.278557 0.0224294 0.467313 0.00877948 2.14917C-0.00682038 4.13036 0.00195454 6.11056 0.00780449 8.09077C0.0107295 8.96534 0.330527 9.69073 1.13489 10.1012C1.97046 10.5283 2.76703 10.3479 3.51777 9.83308C3.74495 9.67708 3.89705 9.37484 4.29192 9.42846C4.29192 9.71999 4.29094 10.0105 4.29192 10.3001C4.29484 10.8198 4.26267 11.3424 4.30947 11.8581C4.38552 12.6879 5.00951 13.0437 5.76903 12.7093C5.9728 12.6196 6.13953 12.45 6.33062 12.3291C6.50905 12.216 6.6319 11.9625 6.94584 12.099V13.149C6.94584 18.9931 6.91952 24.8372 6.96729 30.6813C6.97704 31.8923 6.72452 32.9082 5.88018 33.7828C5.54381 34.1308 5.25716 34.5335 5.06899 34.9898C4.55419 36.2378 5.27958 37.4068 6.62995 37.4673C7.11354 37.4887 7.60104 37.4166 8.08658 37.3834C8.41028 37.361 8.733 37.3181 9.0567 37.3093C9.357 37.3015 9.66997 37.2138 10.0229 37.3493C9.75967 37.8163 9.3921 38.1176 9.25852 38.5602C9.12592 39.0009 9.28777 39.3344 9.71677 39.4767C9.93614 39.5499 10.1604 39.5381 10.3905 39.5196C12.5891 39.3373 14.7887 39.1647 16.9883 38.9883C17.5382 38.9444 18.091 38.9161 18.637 38.8401C19.5652 38.7104 19.8352 38.0552 19.2639 37.3308C19.0231 37.0256 18.7384 36.7555 18.4712 36.4728C17.8433 35.8078 17.5323 35.0532 17.5352 34.1045C17.5586 26.6049 17.5469 19.1043 17.5518 11.6046C17.5518 11.3541 17.4738 11.083 17.7146 10.7964C19.1167 10.8295 20.5002 10.9465 21.5054 12.2238C22.0231 12.8809 22.6247 13.4786 23.5997 13.4357V14.2878C23.5997 19.6766 23.586 25.0664 23.6153 30.4561C23.6192 31.2644 23.3813 31.904 22.8606 32.4851C22.536 32.8468 22.2006 33.2085 21.9373 33.6131C21.129 34.8553 21.7764 36.154 23.2594 36.2729C23.6757 36.3061 24.1008 36.2437 24.521 36.2193C25.2152 36.1803 25.9094 36.1364 26.7538 36.0857C26.4447 36.5128 26.2166 36.7799 26.044 37.0792C25.7144 37.6496 25.9406 38.1127 26.5851 38.2112C26.7742 38.2404 26.9741 38.2219 27.1672 38.2083C29.8221 38.0289 32.477 37.8475 35.1319 37.6642C35.2927 37.6525 35.4585 37.6379 35.6106 37.5891C36.2765 37.3756 36.4247 36.8901 36.0289 36.31C35.8621 36.0652 35.4975 35.9414 35.518 35.5183C36.6616 35.5797 37.7644 35.3506 38.9129 35.3788C38.7852 35.8205 38.478 35.9911 38.3191 36.2719C37.9866 36.8579 38.1787 37.2801 38.8505 37.3883C39.0084 37.4136 39.1742 37.4029 39.3351 37.3932C41.3435 37.2781 43.353 37.1621 45.3615 37.0431C46.1386 36.9973 46.9166 36.9525 47.6927 36.892C48.031 36.8647 48.3391 36.7351 48.4688 36.3938C48.6014 36.0448 48.4288 35.7659 48.1841 35.5251C47.8838 35.2287 47.5835 34.9323 47.2832 34.6349C46.7508 34.1074 46.4856 33.4942 46.5013 32.7191C46.5364 31.0313 46.509 29.3427 46.5178 27.655C46.5188 27.4522 46.4262 27.2084 46.7343 26.99C47.5971 28.5666 48.4425 30.1119 49.2771 31.6368C49.0684 31.862 48.9261 31.9966 48.8071 32.1487C48.4269 32.6342 48.2192 33.1715 48.4688 33.7779C48.7311 34.4155 49.2761 34.6788 49.9254 34.7539C50.1497 34.7792 50.3798 34.7714 50.606 34.7646C51.3528 34.7412 52.0987 34.7071 52.8445 34.6895C53.0161 34.6846 53.2375 34.5881 53.3389 34.8796C53.1994 35.0347 53.0327 35.1868 52.906 35.3662C52.4565 36.0038 52.6846 36.4923 53.4598 36.5722C53.5563 36.583 53.6548 36.583 53.7523 36.5791C56.3789 36.4689 59.0065 36.3587 61.6331 36.2427C61.9558 36.2281 62.2864 36.2047 62.5789 36.0487C63.0391 35.803 63.0654 35.3701 62.653 35.0425C62.3829 34.828 62.0163 34.7431 61.7755 34.4409C62.7085 34.2098 64.1925 34.1542 65.0885 34.3063C65.0846 34.4916 64.9247 34.5696 64.8262 34.6895C64.7229 34.8153 64.5971 34.9264 64.5171 35.0639C64.2578 35.5085 64.4177 35.9102 64.9257 36.0253C65.2055 36.0877 65.5058 36.0818 65.7963 36.0711C68.3264 35.9785 70.8556 35.878 73.3857 35.7776C73.6128 35.7688 73.8429 35.7679 74.0643 35.724C74.7994 35.5777 74.9739 35.1019 74.4825 34.554C74.2027 34.241 73.881 33.9631 73.566 33.6824C72.9723 33.151 72.71 32.5046 72.7275 31.6973C72.7597 30.2046 72.7334 28.7109 72.7422 27.2172C72.7431 27.0066 72.6476 26.7589 72.9771 26.5259C73.8254 27.9777 74.6678 29.4177 75.5043 30.849C75.322 31.047 75.2138 31.1649 75.1046 31.2829C74.7087 31.7138 74.4601 32.2091 74.6736 32.7902C74.9125 33.4376 75.4741 33.7058 76.1186 33.7857C76.4705 33.8296 76.8313 33.8052 77.1881 33.8062C77.9847 33.8081 78.7803 33.8062 79.5876 33.8062C79.5622 33.9193 79.5671 33.9914 79.533 34.0295C79.2366 34.3561 78.752 34.6261 78.985 35.1614C79.2132 35.6869 79.7455 35.5729 80.1882 35.5641C82.7846 35.5085 85.381 35.4442 87.9764 35.3759C88.2338 35.3691 88.501 35.3535 88.7437 35.2794C88.9563 35.2141 89.1493 35.0581 89.1922 34.8094C89.239 34.5442 89.0655 34.3921 88.8685 34.2615C88.5848 34.0743 88.2455 33.9612 87.9764 33.6619C89.32 33.4766 90.4441 33.502 91.0077 33.7174C90.9891 33.7418 90.9706 33.7662 90.9511 33.7896C90.6606 34.1406 89.9878 34.3171 90.2325 34.9186C90.4587 35.4734 91.0593 35.3281 91.5312 35.3223C94.192 35.2872 96.8537 35.2404 99.5154 35.1897C99.7719 35.1848 100.044 35.1731 100.28 35.0854C100.727 34.9196 100.795 34.5179 100.457 34.1689C100.323 34.0294 100.168 33.9056 100.008 33.7974C99.0913 33.1744 98.8125 32.3252 99.0777 31.2215C100.831 30.5107 102.589 29.799 104.341 29.0882C104.624 29.5074 104.655 29.8935 104.776 30.3303C104.508 30.5692 104.222 30.7857 103.982 31.045C103.292 31.7938 103.464 32.6625 104.384 33.1052C104.829 33.3197 105.307 33.3879 105.803 33.3801C106.73 33.3674 107.659 33.3762 108.769 33.3762C108.448 33.7106 108.237 33.8978 108.065 34.1152C107.762 34.4994 107.864 34.8533 108.304 35.0483C108.552 35.1575 108.813 35.1341 109.07 35.1341C111.57 35.1361 114.071 35.1361 116.571 35.1331C116.764 35.1331 116.964 35.1409 117.151 35.099C117.727 34.9703 117.871 34.5559 117.508 34.1026ZM46.4301 5.36957C46.6309 5.89119 46.9039 6.22367 47.1594 6.56881C47.5074 7.03876 47.3037 7.44338 46.7079 7.45313C46.1688 7.46288 45.6286 7.41413 44.873 7.38098C45.5019 6.65656 46.1425 6.22659 46.4301 5.36957ZM33.9648 5.33057C34.3841 5.81514 34.7906 6.28509 35.2732 6.84278H32.8289C32.7997 6.78039 32.7714 6.71799 32.7431 6.65461C33.1351 6.23049 33.527 5.80539 33.9648 5.33057ZM34.2563 32.5543V31.5227C34.2563 24.9435 34.2856 18.3643 34.232 11.785C34.2203 10.4503 34.6415 9.46356 35.6974 8.69624C35.9616 8.77034 35.8543 9.00532 35.8543 9.17106C35.8602 16.1715 35.8543 23.1729 35.869 30.1734C35.8699 30.7671 35.6857 31.2468 35.3113 31.6748C35.0344 31.9907 34.7429 32.293 34.4572 32.6011C34.3899 32.5855 34.3236 32.5699 34.2563 32.5543ZM72.6066 6.47619C72.9147 6.87886 73.1175 7.1577 73.335 7.42485C73.4763 7.59742 73.6694 7.74465 73.5456 8.00497C73.4149 8.27992 73.1682 8.31405 72.8982 8.31015C72.3912 8.3043 71.8832 8.30819 71.1929 8.30819C71.6765 7.6062 72.3551 7.2747 72.6066 6.47619Z" fill="#4D1E20"/>
<path d="M177.753 40.2207C174.376 40.1505 171.901 42.4583 171.848 45.7235C171.796 48.98 174.134 51.396 177.418 51.4779C180.74 51.5598 183.234 49.1906 183.275 45.9136C183.314 42.7049 180.969 40.2879 177.753 40.2207ZM180.621 46.094C180.621 46.1037 180.62 46.2987 180.601 46.4918C180.399 48.588 178.69 49.759 176.656 49.2159C175.698 48.9605 175.064 48.3628 174.745 47.4453C174.395 46.4382 174.381 45.4057 174.699 44.3858C175.114 43.0559 176.121 42.352 177.557 42.3491C178.989 42.3471 179.986 43.054 180.43 44.3731C180.6 44.8743 180.633 45.3881 180.621 46.094Z" fill="#231F20"/>
<path d="M163.783 40.2206C160.482 40.2265 158.083 42.5928 158.089 45.8346C158.096 49.1233 160.54 51.511 163.867 51.4769C167.161 51.4438 169.508 49.0784 169.497 45.8025C169.487 42.5489 167.096 40.2148 163.783 40.2206ZM166.666 47.3059C166.248 48.6533 165.165 49.3778 163.698 49.3378C162.295 49.2998 161.281 48.5285 160.899 47.2074C160.772 46.7677 160.698 46.3212 160.696 45.858C160.737 45.5051 160.755 45.1473 160.824 44.8002C161.22 42.7897 162.881 42.0566 164.621 42.4358C165.655 42.661 166.332 43.3348 166.653 44.3361C166.967 45.3189 166.971 46.3221 166.666 47.3059Z" fill="#231F20"/>
<path d="M195.859 43.8174C195.135 41.7397 193.259 40.4517 190.918 40.3757C189.592 40.3328 188.262 40.3611 186.934 40.3679C186.721 40.3689 186.478 40.2889 186.275 40.5258V51.3219C187.821 51.3219 189.304 51.355 190.785 51.316C195.123 51.202 197.082 47.3254 195.859 43.8174ZM193.308 47.4951C192.879 48.6524 192.015 49.252 190.81 49.3466C190.199 49.3943 189.581 49.3553 188.977 49.3553C188.784 48.6455 188.731 44.0377 188.901 42.3374C189.528 42.3374 190.109 42.3227 190.689 42.3403C191.979 42.3793 192.905 43.0423 193.334 44.2581C193.713 45.3345 193.707 46.4216 193.308 47.4951Z" fill="#231F20"/>
<path d="M47.015 44.0494C46.3383 41.8635 44.4527 40.4702 42.0415 40.3815C40.5859 40.3279 39.1263 40.3679 37.6687 40.3708C37.58 40.3708 37.4903 40.4166 37.3625 40.4517V51.3229C38.9323 51.3229 40.4191 51.3628 41.9031 51.3151C46.1443 51.1776 48.0611 47.4297 47.015 44.0494ZM44.4156 47.3878C44.0091 48.6114 43.0828 49.2959 41.8027 49.3524C41.2235 49.3778 40.6414 49.3563 40.0701 49.3563C39.8634 48.6309 39.802 44.8538 39.957 42.3588C40.7214 42.3588 41.4341 42.2984 42.1312 42.3734C43.1355 42.4817 43.8765 43.0384 44.2889 43.9734C44.7813 45.0898 44.7959 46.2422 44.4156 47.3878Z" fill="#241F20"/>
<path d="M109.449 48.9156C108.977 48.159 108.587 47.3449 107.889 46.7307C108.015 46.6468 108.093 46.5903 108.175 46.5405C108.258 46.4889 108.347 46.4479 108.428 46.3943C109.679 45.5587 110.094 44.3595 109.854 42.9282C109.628 41.5739 108.69 40.8963 107.432 40.5756C107.243 40.5278 107.056 40.4644 106.864 40.4449C105.25 40.2889 103.637 40.3903 101.974 40.363C101.818 42.5294 101.876 50.5497 102.047 51.2995C102.84 51.319 103.64 51.3804 104.507 51.2517V47.3586C105.222 47.1411 105.685 47.3098 106.017 47.9328C106.505 48.8484 107.044 49.7356 107.556 50.6375C107.721 50.928 107.909 51.2371 108.249 51.2722C109.093 51.358 109.944 51.3775 110.869 51.2478C110.357 50.4054 109.911 49.6556 109.449 48.9156ZM106.517 45.3091C105.9 45.5919 105.256 45.5002 104.533 45.4681V42.3647C105.104 42.1882 105.649 42.2613 106.182 42.3442C106.893 42.4544 107.302 42.8853 107.391 43.5395C107.505 44.3731 107.196 44.9971 106.517 45.3091Z" fill="#241F20"/>
<path d="M52.8504 42.3374V44.7914C53.9443 44.9698 55.0441 44.7885 56.1741 44.9055C56.3535 45.4924 56.2765 46.0852 56.2287 46.7706H52.8865C52.7412 47.652 52.8182 48.4466 52.8221 49.3397H57.2525V51.2751H50.3651C50.1984 50.5078 50.138 42.8765 50.2862 40.4059H57.2554V42.3374H52.8504Z" fill="#231F20"/>
<path d="M130.53 51.1864C129.768 51.357 124.597 51.3853 123.497 51.2302V40.4907C124.243 40.325 129.443 40.3055 130.483 40.4693V42.3042C129.057 42.3832 127.612 42.3003 126.124 42.351C125.95 43.1641 126.044 43.9558 126.063 44.7943C127.176 44.9688 128.276 44.7817 129.39 44.9104C129.547 45.4934 129.468 46.0657 129.435 46.7355H126.135C125.949 47.6208 126.06 48.4203 126.046 49.2569C126.788 49.4723 127.531 49.3271 128.261 49.3544C128.97 49.3807 129.68 49.3602 130.432 49.3602C130.62 49.9988 130.476 50.6024 130.53 51.1864Z" fill="#242122"/>
<path d="M115.952 42.3042V44.8723H119.291C119.344 45.5382 119.36 46.1076 119.273 46.7765H115.943V49.3612H120.338V51.1825C119.673 51.3589 114.62 51.4009 113.346 51.2322V40.4234H120.292C120.468 40.9977 120.367 41.6003 120.354 42.3042H115.952Z" fill="#231F20"/>
<path d="M88.2455 47.7554C88.2631 49.2647 87.487 50.539 86.1688 51.0928C85.3166 51.4516 84.4284 51.5773 83.5041 51.397C82.4404 51.1893 81.4488 50.8373 80.6133 50.0729C80.6776 49.5835 81.0111 49.251 81.2519 48.8864C81.5142 48.4876 81.8213 48.4291 82.2678 48.6329C82.5613 48.7664 82.8294 48.9536 83.1132 49.1096C83.6465 49.4012 84.2207 49.4665 84.8106 49.3768C85.38 49.29 85.7047 48.9741 85.8012 48.4584C85.9055 47.9036 85.7554 47.535 85.2289 47.2425C84.9218 47.0719 84.5747 46.9686 84.2393 46.8525C83.781 46.6936 83.3101 46.5678 82.8558 46.3992C80.3549 45.4759 80.5304 42.1726 82.2152 40.9987C83.079 40.3981 84.0287 40.1543 85.0631 40.2294C86.1503 40.3074 87.1604 40.6028 88.0807 41.4014C87.8877 41.7738 87.7395 42.0956 87.5601 42.3988C87.1974 43.012 87.0268 43.0598 86.3843 42.7664C86.2068 42.6854 86.0313 42.6006 85.8617 42.508C85.5399 42.3315 85.186 42.2701 84.8311 42.2506C84.0589 42.2087 83.4983 42.5548 83.3803 43.1154C83.2614 43.676 83.5353 44.0611 84.3348 44.3741C84.9364 44.6091 85.5594 44.7914 86.1659 45.0186C87.4294 45.4924 88.2299 46.327 88.2455 47.7554Z" fill="#231F20"/>
<path d="M65.4035 50.9777C64.8828 51.2634 64.3144 51.396 63.7324 51.4594C62.38 51.6056 60.6865 51.0099 59.6023 50.0125C59.7144 49.6176 59.9757 49.2851 60.2097 48.9468C60.5393 48.4691 60.8347 48.4135 61.3758 48.6845C61.6937 48.8444 61.9969 49.0316 62.3137 49.1935C62.8295 49.4567 63.3823 49.4616 63.9293 49.3534C64.4158 49.2569 64.7278 48.941 64.8195 48.4388C64.9101 47.9377 64.7425 47.5292 64.3008 47.2815C63.9927 47.109 63.6534 46.989 63.318 46.8711C62.8295 46.6995 62.3176 46.5883 61.8428 46.3884C59.7807 45.5227 59.2805 42.9077 60.8698 41.3185C61.7843 40.403 62.9299 40.1387 64.177 40.2362C65.2299 40.3181 66.1932 40.6477 67.1039 41.3994C66.8553 41.8538 66.6632 42.2272 66.4497 42.587C66.2322 42.9506 65.9202 43.0364 65.5371 42.8434C65.306 42.7264 65.0749 42.6084 64.84 42.4992C64.3242 42.2594 63.7918 42.1872 63.2302 42.314C62.771 42.4183 62.4814 42.6874 62.3761 43.1407C62.2777 43.5658 62.4434 43.8944 62.9221 44.1723C63.1717 44.3166 63.4516 44.4121 63.7246 44.5126C64.2101 44.691 64.7044 44.847 65.189 45.0293C66.3726 45.4778 67.1751 46.2402 67.2277 47.5887C67.2862 49.0745 66.7441 50.2426 65.4035 50.9777Z" fill="#231F20"/>
<path d="M151.42 42.3344V45.0352C152.584 45.1824 153.778 45.0176 155.034 45.1317C155.132 45.7381 155.081 46.3358 155.073 47.0261H151.373V51.279H148.884C148.754 50.4649 148.715 41.8772 148.831 40.4907C149.559 40.324 153.526 40.2714 155.744 40.402C155.957 40.9841 155.818 41.5915 155.83 42.3344H151.42Z" fill="#231F20"/>
<path d="M99.184 42.2906C98.1671 42.4729 97.1648 42.2808 96.1215 42.4163V51.1532C95.401 51.3648 94.6269 51.3823 93.5388 51.2185V42.467C92.5043 42.2398 91.4981 42.4777 90.4792 42.3081V40.4186H99.0904C99.2581 41.0055 99.1147 41.6159 99.184 42.2906Z" fill="#251F20"/>
<path d="M141.437 40.4683V42.3393H138.418C138.363 43.3699 138.397 44.3322 138.391 45.2926C138.384 46.2978 138.389 47.302 138.389 48.3072V51.2498C137.545 51.3853 136.748 51.3209 135.852 51.2926V42.3841H132.828V40.4927C133.505 40.325 140.354 40.2977 141.437 40.4683Z" fill="#242021"/>
<path d="M72.7967 40.4117V51.2956H70.4207C70.2403 50.5926 70.1964 41.7299 70.37 40.4117H72.7967Z" fill="#242021"/>
<path d="M216.393 31.2117C216.393 30.2845 216.427 29.445 216.384 28.6085C216.346 27.8743 216.624 27.4044 217.253 27.0193C218.444 26.2919 219.614 25.5314 220.838 24.8616C221.066 24.7368 221.295 24.6062 221.537 24.5184C222.062 24.3273 222.532 24.5759 222.646 25.1161C222.699 25.3657 222.679 25.6328 222.679 25.8922C222.681 28.8464 222.68 31.8006 222.68 34.7548C222.68 34.9167 222.685 35.0795 222.674 35.2414C222.61 36.2241 222.199 36.6141 221.158 36.5664C219.473 36.4884 217.79 36.3714 216.106 36.2553C214.942 36.1754 213.779 36.0535 212.614 35.9775C210.089 35.8127 207.563 35.6664 205.038 35.5075C204.78 35.4909 204.517 35.4695 204.271 35.3983C203.55 35.1907 203.357 34.6671 203.794 34.0694C204.022 33.7574 204.309 33.4873 204.581 33.2085C205.272 32.5026 205.592 31.6963 205.588 30.6745C205.558 23.0783 205.555 15.4822 205.59 7.88505C205.594 6.79013 205.261 5.92921 204.502 5.18919C204.294 4.98542 204.083 4.7797 203.898 4.55447C203.303 3.83103 203.545 3.16024 204.476 3.03056C205.246 2.92331 206.026 2.88529 206.803 2.83459C210.137 2.61717 213.468 2.37245 216.796 2.06435C218.25 1.9298 219.705 1.82645 221.162 1.7309C222.129 1.66753 222.655 2.11992 222.669 3.08029C222.697 4.92985 222.672 6.78135 222.682 8.63091C222.684 9.09306 222.502 9.45283 222.157 9.72973C220.736 10.8695 219.22 11.8718 217.616 12.7327C216.919 13.1071 216.424 12.7824 216.405 11.9547C216.376 10.6891 216.401 9.42261 216.391 8.15707C216.389 7.8402 216.469 7.50675 216.283 7.21621C216.071 7.06118 215.838 7.1148 215.618 7.12748C214.679 7.18013 213.74 7.2357 212.803 7.30688C212.103 7.35953 211.943 7.5126 211.941 8.20094C211.933 11.5442 211.939 14.8884 211.943 18.2317C211.943 18.3243 211.98 18.4159 211.998 18.5037C212.271 18.5973 212.437 18.4042 212.622 18.2931C213.734 17.6223 214.837 16.9398 215.949 16.27C216.225 16.1033 216.509 15.9365 216.811 15.8303C217.68 15.5222 218.171 15.8761 218.21 16.8247C218.227 17.2459 218.215 17.6691 218.215 18.0903C218.215 18.9668 218.179 19.8453 218.223 20.7189C218.265 21.5408 217.896 22.0712 217.224 22.4631C215.711 23.3465 214.219 24.2669 212.684 25.1102C212.126 25.4164 211.89 25.7449 211.918 26.3972C211.975 27.693 211.939 28.9936 211.934 30.2923C211.933 30.6833 211.996 31.0469 212.472 31.0557C213.733 31.0781 214.987 31.3248 216.393 31.2117Z" fill="#FBC52A"/>
<path d="M183.2 19.3256C183.2 15.7532 183.2 12.1818 183.2 8.60947C183.2 8.38229 183.197 8.15512 183.201 7.92795C183.228 6.01892 183.922 5.0878 185.726 4.45893C186.601 4.15376 187.509 4.11183 188.411 4.05041C191.001 3.87491 193.594 3.73548 196.186 3.59118C196.835 3.55511 197.481 3.58339 198.116 3.76571C198.891 3.98703 199.537 4.40043 200.056 5.0059C200.468 5.48657 200.718 6.03646 200.713 6.69068C200.704 8.08687 200.7 9.48306 200.716 10.8792C200.721 11.3463 200.549 11.7041 200.181 11.9625C198.771 12.9521 197.301 13.8471 195.747 14.591C194.923 14.9859 194.43 14.6466 194.418 13.7301C194.401 12.3339 194.414 10.9377 194.412 9.54156C194.41 8.25457 194.41 8.24482 193.103 8.29064C192.163 8.32379 191.222 8.3745 190.284 8.43982C189.719 8.47882 189.615 8.59972 189.575 9.15254C189.561 9.34656 189.57 9.54156 189.57 9.73656C189.57 16.1013 189.569 22.466 189.57 28.8308C189.57 30.0563 189.572 30.0651 190.768 30.1363C191.772 30.1958 192.777 30.2445 193.783 30.2728C194.833 30.3021 194.849 30.2757 194.854 29.1837C194.858 28.3072 194.87 27.4297 194.852 26.5532C194.839 25.9458 195.05 25.5002 195.586 25.1794C196.895 24.3946 198.214 23.6302 199.576 22.9418C199.75 22.8541 199.926 22.7624 200.112 22.7137C200.657 22.5684 201.084 22.8336 201.191 23.3913C201.232 23.6117 201.216 23.8437 201.216 24.0709C201.217 26.5064 201.193 28.9419 201.226 31.3775C201.246 32.8614 200.523 33.8286 199.27 34.4711C198.566 34.8319 197.806 35.0025 197.012 34.9654C194.937 34.8689 192.86 34.7958 190.788 34.6515C189.461 34.5589 188.127 34.6066 186.807 34.3902C185.995 34.2566 185.23 34.0158 184.536 33.5712C183.811 33.1071 183.357 32.4636 183.267 31.5959C183.227 31.2098 183.203 30.8198 183.202 30.4317C183.198 26.7287 183.2 23.0267 183.2 19.3256Z" fill="#FBC52A"/>
<path d="M138.953 9.99883C137.441 9.99883 136.087 9.99883 134.788 9.99883C134.533 10.2299 134.599 10.4707 134.598 10.6882C134.592 11.824 134.626 12.9618 134.584 14.0967C134.56 14.7441 134.848 15.14 135.369 15.4295C135.624 15.5709 135.886 15.7006 136.146 15.8342C138.54 17.0665 140.934 18.2999 143.33 19.5294C143.909 19.8267 144.462 20.1602 144.949 20.5989C145.458 21.0572 145.748 21.6149 145.748 22.3071C145.75 24.8723 145.748 27.4365 145.753 30.0018C145.754 30.5633 145.497 30.9982 145.123 31.3775C144.184 32.3261 143.008 32.7941 141.706 32.8039C139.142 32.8234 136.577 32.76 134.012 32.72C133.331 32.7093 132.649 32.683 131.971 32.6235C130.875 32.527 129.888 32.1458 129.065 31.395C128.513 30.89 128.21 30.2806 128.217 29.5074C128.235 27.5594 128.212 25.6114 128.227 23.6633C128.235 22.5977 128.848 22.1219 129.885 22.391C131.309 22.7595 132.616 23.4089 133.888 24.1352C134.394 24.4238 134.582 24.886 134.588 25.4388C134.596 26.2178 134.589 26.9968 134.597 27.7759C134.599 28.0956 134.551 28.4213 134.699 28.8415C136.223 28.8834 137.766 28.8698 139.244 28.8844C139.532 28.6036 139.45 28.3296 139.452 28.08C139.461 26.911 139.403 25.7391 139.472 24.5749C139.527 23.6575 139.144 23.1173 138.365 22.7225C136.021 21.5339 133.69 20.3211 131.355 19.115C130.634 18.7425 129.916 18.3721 129.262 17.8797C128.589 17.3717 128.233 16.7175 128.229 15.8868C128.218 13.5497 128.216 11.2117 128.231 8.87369C128.236 8.03228 128.636 7.38683 129.356 6.94613C130.236 6.40696 131.211 6.18174 132.226 6.13007C132.939 6.09399 133.655 6.11154 134.368 6.09497C136.445 6.04719 138.521 5.98966 140.598 5.94384C141.652 5.92044 142.673 6.10277 143.619 6.56979C144.72 7.11383 145.366 7.9455 145.322 9.26564C145.269 10.8549 145.319 12.447 145.306 14.0382C145.296 15.1955 144.731 15.644 143.616 15.3525C142.226 14.9898 140.96 14.3161 139.682 13.6833C139.125 13.4074 138.952 12.8897 138.953 12.2998C138.953 11.5617 138.953 10.8207 138.953 9.99883Z" fill="#FBC52A"/>
<path d="M168.155 17.8153C168.106 16.3236 168.142 14.8289 168.142 13.3362H168.139C168.139 11.7772 168.156 10.2192 168.135 8.66114C168.113 6.9315 167.409 6.03354 165.765 5.53824C164.814 5.2516 163.839 5.28475 162.868 5.314C158.521 5.4466 154.175 5.59187 149.829 5.73422C149.635 5.74007 149.434 5.73422 149.249 5.78004C148.603 5.94091 148.44 6.43523 148.873 6.93736C149.083 7.1811 149.335 7.39268 149.582 7.60132C150.322 8.22629 150.647 8.97996 150.638 9.9842C150.598 14.789 150.621 19.5927 150.621 24.3975C150.621 25.9555 150.596 27.5136 150.629 29.0716C150.645 29.8136 150.391 30.3957 149.863 30.8871C149.577 31.1523 149.299 31.4243 149.014 31.6895C148.767 31.9186 148.532 32.1799 148.659 32.5319C148.798 32.917 149.165 32.9979 149.538 33.0155C149.603 33.0184 149.668 33.0184 149.732 33.0203C152.393 33.0896 155.053 33.1588 157.714 33.227C157.908 33.2319 158.105 33.2387 158.297 33.2144C158.969 33.1286 159.176 32.6508 158.748 32.1233C158.463 31.7723 158.123 31.4642 157.797 31.1493C157.229 30.6033 156.922 29.9754 156.975 29.1564C157.024 28.3813 157.046 27.5935 156.969 26.8223C156.887 26.0033 157.256 25.5938 157.933 25.235C160.284 23.99 162.611 22.701 164.939 21.415C165.621 21.0396 166.299 20.6516 166.939 20.2119C167.767 19.6454 168.189 18.8664 168.155 17.8153ZM160.16 17.0987V12.6635C160.16 12.3788 160.201 12.1302 160.613 12.2062C160.648 12.2725 160.726 12.3515 160.726 12.4314C160.739 13.7906 160.74 15.1507 160.75 16.5098C160.752 16.8472 160.647 17.0753 160.16 17.0987Z" fill="#FBC52A"/>
<path d="M172.045 19.3607C172.045 15.9853 172.024 12.6108 172.059 9.23541C172.067 8.35304 171.806 7.6569 171.161 7.07775C170.871 6.8184 170.582 6.55223 170.328 6.25876C169.837 5.69424 170.036 5.1424 170.772 4.97957C170.866 4.9591 170.965 4.95715 171.062 4.95227C173.751 4.82162 176.44 4.69097 179.129 4.56423C179.355 4.5535 179.589 4.54082 179.808 4.58567C180.351 4.69682 180.558 5.13459 180.255 5.60454C180.03 5.95456 179.738 6.27143 179.434 6.56003C178.686 7.2747 178.38 8.10832 178.386 9.16521C178.42 15.9473 178.422 22.7303 178.384 29.5123C178.379 30.5809 178.739 31.3911 179.46 32.1087C179.712 32.3603 179.973 32.6118 180.181 32.8975C180.61 33.4864 180.399 33.9436 179.666 34.0577C179.54 34.0772 179.408 34.0792 179.279 34.0743C176.622 33.969 173.964 33.8608 171.306 33.7564C171.045 33.7457 170.788 33.7223 170.545 33.618C170.023 33.3928 169.894 32.9833 170.245 32.5348C170.464 32.2559 170.729 32.0093 170.996 31.7733C171.746 31.1113 172.082 30.3284 172.065 29.29C172.012 25.9819 172.046 22.6708 172.045 19.3607Z" fill="#FBC52A"/>
<path d="M215.167 30.2221C215.065 29.6459 215.03 29.3407 215.184 28.9595C215.383 29.3661 215.336 29.6956 215.167 30.2221Z" fill="#BFB4B4"/>
<path d="M49.0694 16.228C50.0805 18.0318 51.035 19.7634 52.0168 21.4784C53.6275 24.2942 55.2703 27.0924 56.8703 29.914C57.4143 30.8734 58.1027 31.6514 59.0699 32.1896C59.3643 32.3534 59.7709 32.4743 59.7134 32.9404C59.6685 33.2992 59.3068 33.5419 58.7277 33.5702C56.9776 33.6541 55.2265 33.7145 53.4764 33.7886C52.6008 33.8257 51.7272 33.8754 50.8517 33.9134C50.5611 33.9261 50.2696 33.9544 49.9839 33.853C49.4604 33.6677 49.3102 33.2582 49.6008 32.7776C49.6505 32.6947 49.709 32.6089 49.785 32.5523C50.4734 32.0395 50.4139 31.4711 50.0249 30.7759C48.4415 27.9445 46.8961 25.0917 45.3332 22.2486C45.2591 22.1131 45.1987 21.9512 44.9267 21.8703C44.3612 22.5596 43.8746 23.3504 43.3754 24.1304C43.2077 24.3926 43.2721 24.6988 43.2711 24.9874C43.2662 26.6107 43.2926 28.2341 43.2594 29.8565C43.2428 30.6969 43.5285 31.3726 44.1125 31.9478C44.3894 32.2218 44.6663 32.4958 44.9384 32.7746C45.1724 33.0155 45.3635 33.2884 45.2367 33.6424C45.0983 34.0304 44.7541 34.1494 44.3836 34.1777C43.704 34.2293 43.0244 34.2683 42.3439 34.3005C40.3023 34.397 38.2606 34.4935 36.218 34.5784C35.7734 34.5969 35.2508 34.7022 35.0042 34.1942C34.7585 33.6882 35.1475 33.3284 35.4527 33.0096C37.2847 31.0986 36.96 30.8646 36.9639 28.8191C36.9756 22.2291 36.9463 15.6401 36.9873 9.05017C36.9951 7.7934 36.6763 6.76479 35.7647 5.90582C35.5073 5.66305 35.2713 5.38322 35.0851 5.08293C34.7399 4.52621 34.9817 4.03579 35.6428 3.99289C36.2229 3.95486 36.8108 3.99873 37.3939 4.02993C39.4989 4.14401 41.6039 4.27076 43.7089 4.38873C44.0648 4.40823 44.4245 4.39361 44.7648 4.52816C45.2933 4.73583 45.458 5.14435 45.1334 5.60259C44.8925 5.94286 44.5776 6.23732 44.2676 6.52104C43.5548 7.17428 43.2253 7.9455 43.2526 8.93706C43.3043 10.7847 43.2672 12.6342 43.2672 14.4974C43.6319 14.515 43.6884 14.2069 43.82 14.0177C45.2084 12.019 46.5861 10.0125 47.9657 8.00693C48.6667 6.98708 48.6638 6.94516 47.9287 5.97114C47.8507 5.86779 47.761 5.77127 47.6986 5.65914C47.4392 5.19407 47.5933 4.84405 48.1276 4.72705C48.346 4.67928 48.579 4.67733 48.8042 4.6861C51.3333 4.78458 53.8625 4.89085 56.3916 4.99128C56.7202 5.00395 57.0438 5.05075 57.3393 5.1853C57.8463 5.4154 57.9457 5.8678 57.5694 6.28412C57.3539 6.52201 57.0926 6.72579 56.8284 6.91104C56.0221 7.47458 55.3493 8.16293 54.7487 8.94097C52.8855 11.358 50.9989 13.7555 49.0694 16.228Z" fill="#FBC52A"/>
<path d="M69.7071 14.9264C69.9382 14.6174 70.1712 14.3093 70.4004 13.9992C71.7117 12.2247 73.028 10.4532 74.3286 8.67187C74.8795 7.91723 74.8629 7.7583 74.2818 7.05923C74.0585 6.79014 73.6978 6.55809 73.8577 6.15054C74.0293 5.71374 74.4563 5.70887 74.8531 5.71765C77.5782 5.78297 80.3033 5.84927 83.0284 5.92337C83.2176 5.92825 83.4175 5.97309 83.591 6.04914C84.0541 6.25194 84.1594 6.68777 83.8153 7.06996C83.6017 7.30786 83.3326 7.50383 83.0655 7.68421C82.304 8.19608 81.6537 8.81812 81.0726 9.52694C79.3449 11.6358 77.6046 13.7331 75.8701 15.8361C75.7063 16.035 75.5493 16.2407 75.3377 16.5079C75.7921 17.2752 76.2435 18.0532 76.7095 18.8206C78.8155 22.2857 80.9351 25.743 83.0275 29.2159C83.6105 30.1831 84.3057 31.008 85.3255 31.5286C85.4679 31.6017 85.618 31.6846 85.7253 31.7996C85.9827 32.0756 85.8832 32.5241 85.5498 32.7015C85.3089 32.8292 85.0486 32.8185 84.7893 32.8244C82.2592 32.8848 79.7291 32.9453 77.198 33.0028C76.9065 33.0096 76.6091 33.0272 76.3234 32.9804C75.7443 32.8848 75.5454 32.3798 75.871 31.8874C75.9061 31.8338 75.9617 31.7948 76.0036 31.745C76.7046 30.9202 76.7222 30.9095 76.1957 30.0057C74.6455 27.343 73.0796 24.6881 71.5167 22.0322C71.4533 21.9249 71.3617 21.8343 71.2388 21.6802C70.608 22.3413 70.1556 23.0803 69.6447 23.7725C69.4751 24.0026 69.518 24.2688 69.518 24.5243C69.5141 26.1145 69.5336 27.7057 69.5092 29.2959C69.4985 30.0047 69.7822 30.5478 70.2668 31.0187C70.5924 31.3356 70.9454 31.6261 71.2486 31.9634C71.702 32.4675 71.5567 32.9511 70.9132 33.1286C70.7289 33.1793 70.5291 33.1822 70.335 33.188C67.7728 33.268 65.2105 33.345 62.6492 33.4201C62.3898 33.4279 62.1305 33.4211 61.8702 33.4211C61.5884 33.4211 61.3515 33.3128 61.2247 33.0623C61.0707 32.76 61.2033 32.4909 61.41 32.2637C61.6508 32.0005 61.8965 31.7392 62.1597 31.4993C62.8705 30.849 63.1796 30.0827 63.1747 29.0892C63.1415 22.5977 63.1425 16.1062 63.1747 9.61469C63.1796 8.6592 62.8871 7.91723 62.2192 7.27764C61.915 6.98611 61.603 6.69361 61.3505 6.36017C60.9741 5.86487 61.1779 5.40272 61.7902 5.31205C62.0125 5.2789 62.2436 5.2906 62.4707 5.29742C65.0974 5.3803 67.725 5.4661 70.3516 5.55092C70.4491 5.55385 70.5485 5.548 70.6431 5.56458C70.9629 5.6221 71.31 5.66207 71.4592 6.00429C71.6337 6.40404 71.387 6.68094 71.1179 6.93444C71.0711 6.97929 71.0273 7.02803 70.9795 7.07093C69.0851 8.76937 69.5541 8.81129 69.5229 10.5283C69.4965 11.981 69.517 13.4337 69.517 14.8865C69.5794 14.9001 69.6438 14.9128 69.7071 14.9264Z" fill="#FBC52A"/>
<path d="M104.298 25.2263C101.41 26.3992 98.6525 27.5185 95.8845 28.6426C95.6359 29.68 95.7714 30.54 96.6742 31.1679C96.8341 31.279 96.9843 31.4028 97.1325 31.5286C97.3401 31.7051 97.502 31.9118 97.3869 32.2023C97.2816 32.4714 97.0476 32.5826 96.7756 32.6157C96.6469 32.6313 96.5163 32.6342 96.3866 32.6362C93.6605 32.6849 90.9344 32.7347 88.2084 32.7766C87.9519 32.7805 87.6828 32.7746 87.4391 32.7054C86.897 32.5523 86.7781 32.176 87.1437 31.7616C87.3562 31.5208 87.6185 31.3199 87.8778 31.1269C88.6315 30.5682 89.1054 29.8584 89.4076 28.9468C91.3322 23.1271 93.3534 17.3395 95.1844 11.4896C95.398 10.8091 95.5725 10.1139 95.8133 9.44406C96.0746 8.71575 95.9625 8.1171 95.3648 7.60913C95.1932 7.46386 95.0353 7.29031 94.9105 7.10408C94.6618 6.73261 94.7671 6.42842 95.1737 6.23927C95.4204 6.12422 95.6797 6.13787 95.9391 6.14079C99.1526 6.17784 102.365 6.21684 105.579 6.25584C105.708 6.25779 105.84 6.26072 105.967 6.28412C106.598 6.40014 106.766 6.82621 106.374 7.32443C106.254 7.47653 106.114 7.61498 105.969 7.74465C105.453 8.20485 105.34 8.72452 105.543 9.40604C106.217 11.6758 106.905 13.9407 107.661 16.1842C108.905 19.8716 110.163 23.5551 111.354 27.2601C111.826 28.7274 112.563 29.9754 113.722 30.9816C113.894 31.1308 114.061 31.2868 114.21 31.4574C114.669 31.982 114.521 32.4022 113.82 32.5426C113.601 32.5865 113.368 32.5757 113.142 32.5757C110.772 32.5816 108.401 32.5855 106.032 32.5855C105.71 32.5855 105.384 32.6206 105.074 32.4773C104.616 32.2657 104.522 31.941 104.824 31.552C104.903 31.4506 104.995 31.3502 105.1 31.278C105.886 30.7418 105.903 30.0729 105.592 29.2335C105.12 27.964 104.752 26.6536 104.298 25.2263Z" fill="#FBC52A"/>
<path d="M7.99309 7.06996C6.58325 6.84474 5.37036 6.95881 4.3086 7.83825C3.85913 8.2107 3.38626 8.55389 2.92411 8.91171C2.66184 9.11549 2.37811 9.25491 2.03394 9.24809C1.55035 9.23834 1.23737 9.00044 1.14183 8.52464C1.1038 8.33647 1.10965 8.13757 1.10965 7.94355C1.1077 6.06181 1.10088 4.17911 1.1116 2.29738C1.11843 1.19466 1.4977 0.882658 2.56921 1.17808C4.58452 1.73285 6.64663 1.90445 8.71848 2.04972C10.7552 2.19207 12.79 2.37342 14.8249 2.55087C15.9276 2.64642 17.0293 2.60645 18.132 2.5733C18.716 2.55575 19.301 2.52357 19.8831 2.55087C20.8376 2.59572 21.2344 3.00327 21.2432 3.94901C21.2588 5.5714 21.2413 7.19378 21.25 8.81617C21.253 9.30561 21.1516 9.75606 20.669 9.94813C20.1376 10.1587 19.577 10.1636 19.1129 9.75313C18.7736 9.45283 18.4333 9.13986 18.1574 8.78399C17.391 7.7973 16.3575 7.45606 15.1642 7.45313C14.9409 7.45313 14.7137 7.39365 14.4953 7.5009C14.2867 7.71443 14.3608 7.9884 14.3598 8.23702C14.3559 15.8956 14.3637 23.5532 14.3461 31.2117C14.3442 32.0463 14.6006 32.7298 15.1486 33.3314C15.4761 33.6911 15.8281 34.0343 16.1148 34.4243C16.5506 35.0152 16.3624 35.5485 15.6604 35.7844C15.4488 35.8556 15.2178 35.8829 14.9935 35.8975C12.6964 36.0516 10.3994 36.1978 8.10131 36.3499C7.74544 36.3733 7.3925 36.4338 7.03662 36.4533C6.66905 36.4738 6.30148 36.4182 6.10063 36.0662C5.90368 35.7201 5.99826 35.3652 6.21763 35.06C6.50135 34.6651 6.80458 34.2839 7.10877 33.9046C7.72009 33.1442 8.00869 32.3086 8.00576 31.3063C7.98041 23.5512 7.99114 15.7952 7.99212 8.0391C7.99309 7.74953 7.99309 7.45996 7.99309 7.06996Z" fill="#FBC52A"/>
<path d="M24.2977 3.21484C26.8209 3.38741 29.3442 3.55999 31.8675 3.73256C31.9972 3.74133 32.1288 3.74329 32.2546 3.77059C33.0326 3.94023 33.251 4.50963 32.7557 5.1268C32.5129 5.42904 32.2234 5.69522 31.9465 5.96821C31.2903 6.61463 30.9793 7.36538 30.9822 8.31502C31.0046 15.6167 31.0056 22.9194 30.9822 30.2211C30.9793 31.1698 31.2864 31.9235 31.9367 32.5738C32.1892 32.8263 32.4418 33.0788 32.6865 33.3382C32.94 33.6092 33.1301 33.9047 32.9605 34.2985C32.7937 34.6846 32.4564 34.7656 32.0849 34.7958C31.6969 34.827 31.3108 34.8787 30.9227 34.9011C28.6237 35.0395 26.3256 35.176 24.0256 35.3028C23.5469 35.3291 22.998 35.4286 22.7425 34.8699C22.492 34.321 22.9375 33.9748 23.2281 33.5995C23.2876 33.5225 23.3509 33.4474 23.4202 33.3801C24.3893 32.4441 24.7315 31.3268 24.7218 29.9637C24.673 22.7917 24.6769 15.6197 24.7188 8.44762C24.7266 7.15868 24.3903 6.09984 23.4923 5.19602C23.2651 4.96787 23.0565 4.71048 22.8868 4.43651C22.4413 3.71989 22.6909 3.24116 23.5206 3.19534C23.779 3.18071 24.0393 3.19339 24.2986 3.19339C24.2977 3.20022 24.2977 3.20801 24.2977 3.21484Z" fill="#FBC52A"/>
<path d="M161.824 10.4044C161.823 10.1197 161.887 9.8165 161.679 9.56691C160.811 9.38653 158.243 9.45478 157.086 9.6878C156.96 10.4639 156.939 18.8654 157.059 19.8365C157.195 19.8969 157.311 19.8316 157.422 19.7702C158.615 19.1199 159.799 18.4549 161 17.8202C161.619 17.4936 161.851 17.0256 161.839 16.3265C161.805 14.3522 161.829 12.3778 161.824 10.4044ZM160.16 17.0987V12.6635C160.16 12.3788 160.201 12.1302 160.613 12.2062C160.647 12.2725 160.725 12.3515 160.726 12.4314C160.739 13.7906 160.74 15.1507 160.75 16.5098C160.752 16.8472 160.646 17.0753 160.16 17.0987Z" fill="#4D1E20"/>
<path d="M97.5215 23.1807C98.5764 19.855 99.5602 16.7526 100.617 13.4181C101.407 16.0935 102.128 18.5359 102.872 21.0543C101.122 21.7494 99.4276 22.4222 97.5215 23.1807Z" fill="#4E1E20"/>
</svg>
