<svg width="39" height="39" viewBox="0 0 39 39" fill="none" xmlns="http://www.w3.org/2000/svg">
<path d="M1.97803 20.89H19.3141V23.7437H1.97803V20.89Z" fill="#6D6D6D"/>
<path d="M1.97803 24.9624V27.6284C1.97803 29.2123 2.60721 30.7312 3.72715 31.8512C4.84709 32.9711 6.36606 33.6003 7.9499 33.6003H19.3135V24.9624H1.97803Z" fill="#6D6D6D"/>
<path d="M20.5322 14.0443H37.0219V19.586H20.5322V14.0443Z" fill="#6D6D6D"/>
<path d="M20.5322 29.9276H37.0219V35.4967H20.5322V29.9276Z" fill="#6D6D6D"/>
<path d="M20.5322 28.7089H37.0219V20.8047H20.5322V28.7089ZM23.4511 26.0727H34.103V27.2915H23.4511V26.0727Z" fill="#6D6D6D"/>
<path d="M35.6764 8.16626H28.777H21.8777L20.8113 12.8255H36.7434L35.6764 8.16626Z" fill="#6D6D6D"/>
<path d="M21.8777 4.09131H35.6764V6.94745H21.8777V4.09131Z" fill="#6D6D6D"/>
<path d="M11.5379 18.2812C11.5374 17.4484 11.706 16.6241 12.0333 15.8583C11.2185 15.5956 10.3528 15.531 9.50807 15.67C7.24486 16.018 2.89209 19.6712 2.89209 19.6712H11.7104C11.6006 19.2158 11.5427 18.7495 11.5379 18.2812Z" fill="#6D6D6D"/>
<path d="M19.3136 19.586V13.594C18.946 13.4714 18.5658 13.3909 18.1801 13.3539C18.3164 12.2375 18.1376 11.1053 17.664 10.0852L16.5671 10.6111C16.9371 11.4173 17.0785 12.3095 16.976 13.1906L16.9321 13.3874C16.2379 13.4991 15.5754 13.757 14.9884 14.1442C14.4015 14.5313 13.9035 15.0388 13.5276 15.633C13.1517 16.2272 12.9064 16.8946 12.8079 17.5908C12.7095 18.287 12.7601 18.9961 12.9566 19.6713H19.3136V19.586Z" fill="#6D6D6D"/>
</svg>
