<svg width="35" height="31" viewBox="0 0 35 31" fill="none" xmlns="http://www.w3.org/2000/svg">
<path d="M14.1579 8.8141C13.6196 8.59126 13.2733 8.07174 13.2733 7.48979V7.324C8.9238 7.87037 5.58652 11.5842 5.58652 16.0518C5.58652 20.9094 9.5232 24.8481 14.3828 24.8481C15.7259 24.8481 17.0025 24.5454 18.1443 24.003C17.7959 21.4001 18.6182 18.6662 20.6083 16.676C22.0333 15.2531 23.8355 14.4268 25.7002 14.1986C25.329 11.9003 24.2617 9.69473 22.4998 7.93279C21.4017 6.83469 20.1311 6.00708 18.7725 5.44997L15.7205 8.504C15.3091 8.91344 14.6942 9.03694 14.1579 8.8141ZM19.9666 15.4967C20.2727 15.4967 20.5204 15.7457 20.5204 16.0525C20.5204 16.3572 20.2727 16.6062 19.9666 16.6062H14.3821C14.0761 16.6062 13.8264 16.3572 13.8264 16.0525V10.466C13.8264 10.1599 14.0754 9.91221 14.3821 9.91221C14.6869 9.91221 14.9359 10.1599 14.9359 10.466V15.4967H19.9666ZM20.6076 28.9995C20.6137 29.0036 20.617 29.0069 20.6211 29.011C18.7336 29.9225 16.6179 30.4319 14.3821 30.4319C6.4383 30.4326 0 23.9936 0 16.0518C0 8.21538 6.26713 1.84085 14.0646 1.67371C14.2398 1.66969 14.3821 1.52538 14.3821 1.34817V0.326585C14.3821 0.191671 14.458 0.0775646 14.5821 0.0258811C14.7057 -0.0258025 14.8412 0.00104608 14.9359 0.0963586L18.5168 3.6793C18.6443 3.80482 18.6443 4.01021 18.5168 4.13774L14.9359 7.72069C14.8406 7.81399 14.7057 7.84084 14.5821 7.78915C14.4586 7.73948 14.3821 7.62336 14.3821 7.49046V6.47626C14.3821 6.38497 14.3479 6.30711 14.2835 6.24402C14.217 6.17958 14.1371 6.1487 14.0458 6.15273C8.73116 6.32926 4.477 10.6942 4.477 16.0518C4.477 21.5222 8.91239 25.9549 14.3821 25.9549C15.7997 25.9549 17.1469 25.6582 18.3665 25.1213C18.7491 26.5436 19.4968 27.8867 20.6076 28.9995ZM32.1472 17.46C29.1905 14.5013 24.3503 14.5013 21.3916 17.46C18.4349 20.4167 18.4349 25.2569 21.3916 28.2156C24.3503 31.1723 29.1905 31.1723 32.1472 28.2156C35.1059 25.2569 35.1059 20.4167 32.1472 17.46ZM30.0959 21.4215L26.4788 25.0387C26.262 25.2535 25.9116 25.2535 25.6948 25.0387L23.4442 22.7861C23.2274 22.5693 23.2274 22.2189 23.4442 22.0021C23.659 21.7853 24.0114 21.7853 24.2282 22.0021L26.0868 23.8627L29.312 20.6376C29.5288 20.4208 29.8791 20.4208 30.0959 20.6376C30.3127 20.8544 30.3134 21.2047 30.0959 21.4215Z" fill="#FBC52A"/>
</svg>
