<svg width="19" height="17" viewBox="0 0 19 17" fill="none" xmlns="http://www.w3.org/2000/svg">
<path d="M12.9762 2.61685H1.90318C0.85124 2.61685 0 3.46809 0 4.52003V12.8248C0 13.8767 0.85124 14.728 1.90318 14.728H7.28052L10.2287 16.6935C10.4294 16.8319 10.6647 16.8941 10.9 16.8941C11.0938 16.8941 11.2945 16.8457 11.4744 16.7488C11.8689 16.5412 12.1111 16.126 12.1111 15.683V14.728H12.9762C14.0282 14.728 14.8794 13.8767 14.8794 12.8248V4.52003C14.8794 3.46809 14.0282 2.61685 12.9762 2.61685ZM11.5921 11.9597H3.28731C3.00356 11.9597 2.76826 11.7244 2.76826 11.4407C2.76826 11.1569 3.00356 10.9216 3.28731 10.9216H11.5921C11.8758 10.9216 12.1111 11.1569 12.1111 11.4407C12.1111 11.7244 11.8758 11.9597 11.5921 11.9597ZM11.5921 9.19147H3.28731C3.00356 9.19147 2.76826 8.95617 2.76826 8.67242C2.76826 8.38867 3.00356 8.15337 3.28731 8.15337H11.5921C11.8758 8.15337 12.1111 8.38867 12.1111 8.67242C12.1111 8.95617 11.8758 9.19147 11.5921 9.19147ZM11.5921 6.42321H3.28731C3.00356 6.42321 2.76826 6.18791 2.76826 5.90416C2.76826 5.62041 3.00356 5.38511 3.28731 5.38511H11.5921C11.8758 5.38511 12.1111 5.62041 12.1111 5.90416C12.1111 6.18791 11.8758 6.42321 11.5921 6.42321Z" fill="#FDB90E"/>
<circle cx="15.074" cy="3.54565" r="3.04565" fill="#FF0000" stroke="white"/>
</svg>
