<svg width="31" height="25" viewBox="0 0 31 25" fill="none" xmlns="http://www.w3.org/2000/svg">
<path d="M19.6465 20.2137C19.6465 19.1793 19.3064 18.2043 18.6639 17.3952C17.9228 16.4525 16.8652 15.858 15.6994 15.7028C15.4994 15.6764 15.2973 15.6586 15.0919 15.6586C13.6889 15.6586 12.3877 16.2908 11.5216 17.3931C10.8775 18.2043 10.5374 19.1788 10.5374 20.2131C10.5374 22.7243 12.5807 24.7672 15.0919 24.7672C17.6031 24.7672 19.6465 22.7243 19.6465 20.2131V20.2137ZM18.0812 18.9055L14.7033 22.2834C14.5982 22.3886 14.4602 22.4414 14.3222 22.4414C14.1842 22.4414 14.0463 22.3886 13.9412 22.2834L12.1026 20.4449C11.8919 20.2342 11.8919 19.8935 12.1026 19.6828C12.3134 19.472 12.654 19.472 12.8648 19.6828L14.3222 21.1402L17.3191 18.1434C17.5298 17.9326 17.8705 17.9326 18.0812 18.1434C18.292 18.3541 18.292 18.6948 18.0812 18.9055Z" fill="#5DC54F"/>
<path d="M0 4.59931C1.82021 4.85695 3.20114 6.39958 3.20114 8.25859C3.20114 10.1306 1.80512 11.6829 0 11.9281V16.5215H10.8436C10.8878 16.4708 10.9369 16.4261 10.9822 16.3771C11.049 16.3054 11.1153 16.2337 11.1854 16.1658C11.2641 16.0892 11.3455 16.0181 11.4279 15.9464C11.5023 15.8822 11.5756 15.8181 11.6527 15.7577C11.7384 15.6909 11.8273 15.63 11.9163 15.5691C11.996 15.5141 12.0747 15.4586 12.1567 15.4079C12.2504 15.3503 12.3475 15.2996 12.4445 15.2478C12.5275 15.2036 12.6089 15.1573 12.694 15.1169C12.797 15.0684 12.9032 15.0279 13.0088 14.9853C13.0929 14.9519 13.1748 14.9153 13.2605 14.8862C13.3748 14.8468 13.4923 14.8166 13.6093 14.7848C13.6901 14.7627 13.7699 14.7363 13.8518 14.718C13.9839 14.6884 14.1192 14.6695 14.2545 14.649C14.3245 14.6388 14.3935 14.6226 14.4641 14.6151C14.6711 14.5924 14.8808 14.5795 15.0921 14.5795C15.3034 14.5795 15.513 14.5919 15.7205 14.6151C15.7901 14.6226 15.8574 14.6382 15.9264 14.6485C16.0628 14.6684 16.1992 14.6878 16.3328 14.718C16.4142 14.7363 16.4924 14.7622 16.5727 14.7838C16.6907 14.8156 16.8093 14.8463 16.9247 14.8856C17.0082 14.9142 17.0891 14.9503 17.171 14.9827C17.2788 15.0252 17.3871 15.0673 17.4917 15.1169C17.5742 15.1557 17.6534 15.2009 17.7337 15.2435C17.8334 15.2969 17.9331 15.3492 18.0296 15.4085C18.1089 15.457 18.1849 15.5109 18.2614 15.5637C18.3536 15.6273 18.4457 15.6904 18.5341 15.7594C18.6085 15.817 18.6791 15.879 18.7508 15.941C18.836 16.0143 18.9206 16.0887 19.0014 16.1679C19.0694 16.2342 19.134 16.3032 19.1987 16.3733C19.2451 16.4234 19.2952 16.4681 19.3399 16.5199H30.1836V11.9222C28.3634 11.664 26.9825 10.1187 26.9825 8.25698C26.9825 6.39526 28.3785 4.83862 30.1836 4.59338V0H0V4.59769V4.59931ZM23.9366 3.77463C23.9366 3.47657 24.1775 3.23563 24.4756 3.23563C24.7736 3.23563 25.0146 3.47657 25.0146 3.77463V12.7469C25.0146 13.0449 24.7736 13.2859 24.4756 13.2859C24.1775 13.2859 23.9366 13.0449 23.9366 12.7469V3.77463ZM17.6809 3.77463C17.6809 3.47657 17.9218 3.23563 18.2199 3.23563C18.518 3.23563 18.7589 3.47657 18.7589 3.77463V8.26075C18.7589 8.55882 18.518 8.79975 18.2199 8.79975C17.9218 8.79975 17.6809 8.55882 17.6809 8.26075V3.77463ZM17.6809 11.1261C17.6809 10.828 17.9218 10.5871 18.2199 10.5871C18.518 10.5871 18.7589 10.828 18.7589 11.1261V12.7469C18.7589 13.0449 18.518 13.2859 18.2199 13.2859C17.9218 13.2859 17.6809 13.0449 17.6809 12.7469V11.1261ZM11.4258 3.77463C11.4258 3.47657 11.6667 3.23563 11.9648 3.23563C12.2628 3.23563 12.5038 3.47657 12.5038 3.77463V8.26075C12.5038 8.55882 12.2628 8.79975 11.9648 8.79975C11.6667 8.79975 11.4258 8.55882 11.4258 8.26075V3.77463ZM11.4258 11.1261C11.4258 10.828 11.6667 10.5871 11.9648 10.5871C12.2628 10.5871 12.5038 10.828 12.5038 11.1261V12.7469C12.5038 13.0449 12.2628 13.2859 11.9648 13.2859C11.6667 13.2859 11.4258 13.0449 11.4258 12.7469V11.1261ZM5.17011 3.77463C5.17011 3.47657 5.41104 3.23563 5.70911 3.23563C6.00718 3.23563 6.24812 3.47657 6.24812 3.77463V12.7469C6.24812 13.0449 6.00718 13.2859 5.70911 13.2859C5.41104 13.2859 5.17011 13.0449 5.17011 12.7469V3.77463Z" fill="#5DC54F"/>
</svg>
