<svg width="31" height="31" viewBox="0 0 31 31" fill="none" xmlns="http://www.w3.org/2000/svg">
<g clip-path="url(#clip0_269_971)">
<path d="M7.26562 7.42153H5.44922V4.54102C5.44922 2.0371 7.48632 0 9.99023 0H21.0098C23.5137 0 25.5508 2.0371 25.5508 4.54102V7.40252H23.7344V4.54102C23.7344 3.03867 22.5121 1.81641 21.0098 1.81641H9.99023C8.48788 1.81641 7.26562 3.03867 7.26562 4.54102V7.42153Z" fill="#009BBE"/>
<path d="M2.04248 15.3464V27.8231C2.04248 29.5749 3.46757 31 5.21931 31H20.3184C18.6898 29.6085 17.6554 27.5409 17.6554 25.2359C17.6554 21.0561 21.056 17.6555 25.2359 17.6555C26.6811 17.6555 28.0331 18.0622 29.1836 18.7669V15.3465L2.04248 15.3464ZM12.283 28.7313H5.0321V26.9149H12.283V28.7313ZM12.283 24.6463H5.0321V22.8298H12.283V24.6463Z" fill="#009BBE"/>
<path d="M24.6123 9.21887H26.8979V13.53H24.6123V9.21887Z" fill="#009BBE"/>
<path d="M20.5103 9.21887H22.7959V13.53H20.5103V9.21887Z" fill="#009BBE"/>
<path d="M28.7144 9.21887H31V13.53H28.7144V9.21887Z" fill="#009BBE"/>
<path d="M0 9.21887H2.28564V13.53H0V9.21887Z" fill="#009BBE"/>
<path d="M4.10205 9.21887H6.3877V13.53H4.10205V9.21887Z" fill="#009BBE"/>
<path d="M16.4082 9.21887H18.6938V13.53H16.4082V9.21887Z" fill="#009BBE"/>
<path d="M8.2041 9.21887H10.4897V13.53H8.2041V9.21887Z" fill="#009BBE"/>
<path d="M12.3062 9.21887H14.5918V13.53H12.3062V9.21887Z" fill="#009BBE"/>
<path d="M25.236 19.4719C22.0579 19.4719 19.4719 22.0579 19.4719 25.236C19.4719 28.4147 22.0579 31 25.236 31C28.4141 31 31 28.4147 31 25.236C31 22.0579 28.4141 19.4719 25.236 19.4719ZM24.7546 27.7877L21.898 24.9311L23.1822 23.6469L24.7546 25.2193L27.2897 22.6842L28.5739 23.9684L24.7546 27.7877Z" fill="#009BBE"/>
</g>
<defs>
<clipPath id="clip0_269_971">
<rect width="31" height="31" fill="white"/>
</clipPath>
</defs>
</svg>
