<svg width="22" height="22" viewBox="0 0 22 22" fill="none" xmlns="http://www.w3.org/2000/svg">
<path fill-rule="evenodd" clip-rule="evenodd" d="M5 3C5 1.34315 6.34315 0 8 0H15.1716C15.9672 0 16.7303 0.31607 17.2929 0.87868L21.1213 4.70711C21.6839 5.26972 22 6.03278 22 6.82843V19C22 20.6569 20.6569 22 19 22H8C6.34315 22 5 20.6569 5 19V18C5 17.4477 5.44772 17 6 17C6.55228 17 7 17.4477 7 18V19C7 19.5523 7.44772 20 8 20H19C19.5523 20 20 19.5523 20 19V8H17C15.3431 8 14 6.65685 14 5V2H8C7.44772 2 7 2.44772 7 3V10C7 10.5523 6.55228 11 6 11C5.44772 11 5 10.5523 5 10V3ZM16 2.41421L19.5858 6H17C16.4477 6 16 5.55228 16 5V2.41421ZM13.7071 14.7071L10.7072 17.7071C10.3167 18.0976 9.6835 18.0976 9.293 17.7071C8.90243 17.3166 8.90243 16.6834 9.2929 16.2929L10.5858 15H1C0.44771 15 0 14.5523 0 14C0 13.4477 0.44771 13 1 13H10.5858L9.2929 11.7071C8.90243 11.3166 8.90243 10.6834 9.293 10.2929C9.6835 9.9024 10.3167 9.9024 10.7072 10.2929L13.7071 13.2929C14.0976 13.6834 14.0976 14.3166 13.7071 14.7071Z" fill="white"/>
</svg>
