<svg width="21" height="23" viewBox="0 0 21 23" fill="none" xmlns="http://www.w3.org/2000/svg">
<path d="M1.28467 0H12.0589C12.1274 0.0426897 12.2169 0.0922435 12.2737 0.146095C12.5458 0.403641 12.8084 0.674281 13.0725 0.940125L14.0631 1.92559L16.8643 4.7025C16.8914 4.72924 17.0047 4.85559 17.0093 4.88569C17.019 4.94929 17.0277 5.06851 17.0276 5.13425C17.0265 6.03535 17.0294 6.93749 17.0301 7.8386L17.0307 8.64693C17.0307 8.73566 17.0355 8.98294 17.0221 9.06269C16.9997 9.03225 17.0015 8.99956 16.9547 8.99894C16.9375 9.03041 16.9465 9.02108 16.9199 9.04299C16.8648 9.03101 16.8527 9.03247 16.796 9.03646C16.3231 8.92288 15.9123 8.92954 15.4304 8.93401C15.0551 8.93749 14.8118 8.90059 14.4794 9.11122C14.0958 9.34577 13.8193 9.71435 13.704 10.1484C13.6842 10.2232 13.6471 10.5562 13.6079 10.5687C13.2833 10.6715 12.9496 10.8069 12.6497 10.9717C11.4412 11.6503 10.56 12.7904 10.2079 14.131C9.99472 14.9751 10.0823 15.5437 10.0565 16.3926C9.91661 16.3936 9.75452 16.3988 9.61659 16.3948L9.61522 17.0489C9.61299 17.3798 9.59364 17.692 9.73411 18.0004C10.0185 18.6249 10.5508 18.8554 11.1998 18.8534L14.8284 18.8493C15.5334 18.8484 16.3262 18.8304 17.0237 18.8573L17.0238 20.5997C17.0242 20.9387 17.0494 21.5383 16.9757 21.8421C16.9148 22.1001 16.7822 22.3357 16.5932 22.5216C16.4077 22.7077 16.1509 22.865 15.8968 22.9386C15.8316 22.9575 15.7228 22.9642 15.6738 22.9944H1.304C1.21962 22.9514 1.03817 22.9157 0.933518 22.8692C0.559432 22.7029 0.244213 22.3813 0.0981623 21.9973C0.043225 21.8498 0.0119669 21.6946 0.00555584 21.5373C-0.00677223 21.2059 0.005264 20.7847 0.005264 20.4464L0.00512925 18.2327L0.00890176 11.4054L0.00512925 4.76342L0.00478121 2.65655C0.00426474 2.2799 0.000705501 1.8996 0.00500573 1.52301C0.00738601 1.31492 0.0595389 1.09673 0.145128 0.906804C0.307436 0.538741 0.604983 0.247127 0.976229 0.0922621C1.07166 0.0519488 1.18547 0.0401092 1.28467 0ZM12.4126 9.45387L12.8953 9.45506C13.203 9.45609 13.4182 9.4806 13.6582 9.25307C14.0741 8.85907 13.8141 8.12507 13.2494 8.07931C13.1045 8.06755 12.9676 8.0685 12.8225 8.06818L12.2075 8.06733L10.2343 8.06675L6.6403 8.06933C5.95803 8.06844 5.27042 8.05999 4.58851 8.06697C4.43737 8.06883 4.28623 8.06913 4.13508 8.06786C3.83847 8.06644 3.5198 8.05153 3.29775 8.28626C3.03599 8.56296 3.02697 8.99634 3.31445 9.2632C3.49465 9.43046 3.64507 9.45367 3.88616 9.45497C4.13467 9.45629 4.38438 9.45457 4.63319 9.45413L6.41062 9.45332L12.4126 9.45387ZM9.73839 12.2088C9.87863 12.2047 9.98462 12.1966 10.1109 12.1361C10.732 11.8381 10.5503 10.9034 9.86199 10.8656C9.59891 10.8511 9.34712 10.8558 9.08713 10.8558L7.68881 10.8543L5.6128 10.8555C5.05103 10.8537 4.40661 10.8452 3.84835 10.8624C3.61686 10.8706 3.39929 10.9044 3.24055 11.0874C2.99419 11.3714 3.02929 11.8192 3.3128 12.0647C3.43339 12.169 3.53995 12.1851 3.69185 12.2009C3.93129 12.214 4.19076 12.2085 4.43194 12.2086L5.82972 12.2083C7.12192 12.2087 8.44842 12.2304 9.73839 12.2088ZM5.48729 14.932L7.79108 14.934C7.97101 14.9336 8.15093 14.9346 8.33084 14.9372C8.43801 14.9382 8.59687 14.9445 8.69836 14.9277C8.83079 14.9062 8.95354 14.8449 9.05019 14.7518C9.17465 14.6311 9.24537 14.4654 9.24641 14.2919C9.24714 13.9863 9.04401 13.6741 8.73042 13.6043C8.54964 13.5641 8.26563 13.5799 8.07546 13.5791C7.72338 13.5751 7.37126 13.5751 7.01918 13.5787L6.87267 13.58L4.69936 13.5832L4.11483 13.5816C3.78278 13.5805 3.532 13.5468 3.28507 13.799C2.84395 14.2495 3.19103 14.9346 3.79595 14.9332C3.97423 14.9329 4.15504 14.9336 4.33175 14.9334L5.48729 14.932ZM7.34058 17.7412C7.75146 17.7339 8.09891 17.4488 8.08236 17.021C8.07515 16.8361 7.99335 16.662 7.85561 16.5384C7.59693 16.3045 7.27268 16.3472 6.94698 16.3468L6.24102 16.3465C5.45091 16.3464 4.62628 16.3366 3.83769 16.3528C3.60282 16.372 3.42406 16.4048 3.25863 16.5954C3.1386 16.7337 3.07181 16.9285 3.08517 17.1119C3.09991 17.2907 3.18632 17.4559 3.32476 17.5701C3.57553 17.78 3.83865 17.7421 4.1456 17.7419L4.8451 17.7412H7.34058ZM15.4925 4.67076L15.5038 4.65469C15.4712 4.59205 15.1936 4.33693 15.1285 4.27209L14.4502 3.593C13.9573 3.10548 13.4684 2.6141 12.9832 2.1189C12.7677 1.89709 12.557 1.67434 12.3313 1.46197C12.2829 1.41638 12.1702 1.28954 12.1301 1.2616C12.1133 1.44517 12.121 1.75044 12.1211 1.94451V3.13178L12.1181 3.91C12.1168 4.0557 12.1104 4.20415 12.1198 4.34904C12.1342 4.56941 12.3045 4.65698 12.5048 4.65984C12.758 4.66346 13.0095 4.65124 13.2617 4.65346L15.4925 4.67076Z" fill="#5B6B79"/>
<path d="M15.5432 10.0759C15.5981 10.0703 15.6531 10.0674 15.7082 10.0672C15.9884 10.0666 16.2251 10.1809 16.4246 10.3765C16.7464 10.692 16.6903 11.1331 16.6911 11.5526C17.6166 11.6188 18.4848 12.0256 19.1278 12.6946C19.7475 13.3198 20.1338 14.1387 20.2223 15.0146C20.247 15.2613 20.2426 15.5137 20.2426 15.7619C20.2434 16.04 20.2424 16.318 20.2396 16.596C20.0797 16.5753 19.8516 16.5791 19.6847 16.5784L18.8288 16.5752L15.9606 16.5735L11.2529 16.5744C11.27 16.4614 11.2613 15.8611 11.25 15.7197C11.0818 13.6302 12.5705 11.6957 14.7073 11.5546C14.6995 11.3981 14.7078 11.2436 14.7043 11.0889C14.6929 10.5764 15.0304 10.1499 15.5432 10.0759Z" fill="#5B6B79"/>
<path d="M19.8591 17.0269C20.1205 17.0255 20.3816 17.0306 20.6428 17.0281C20.6289 17.3176 20.4754 17.5733 20.1594 17.5951C19.8575 17.6161 19.5377 17.6048 19.2339 17.604L17.4118 17.5987L11.4723 17.5996C11.0027 17.605 10.7393 17.5731 10.6163 17.045C12.0425 17.0236 13.5007 17.0353 14.9291 17.0361L19.8591 17.0269Z" fill="#5B6B79"/>
<path d="M16.7961 9.03649C16.8528 9.03249 16.8648 9.03103 16.9199 9.04301C16.9465 9.0211 16.9375 9.03043 16.9547 8.99896C17.0015 8.99958 16.9997 9.03227 17.0221 9.06271L17.0239 9.08986L17.0084 9.10643C16.9654 9.09999 16.8496 9.05409 16.7961 9.03649Z" fill="#5B6B79"/>
</svg>
