<svg width="26" height="29" viewBox="0 0 26 29" fill="none" xmlns="http://www.w3.org/2000/svg">
<path d="M12.5 2C5.60999 2 0 7.60999 0 14.5C0 19.9426 3.50653 24.5739 8.37335 26.2848L7.08398 28.2227C6.93066 28.4531 6.99316 28.7637 7.22266 28.916C7.30859 28.9727 7.4043 29 7.5 29C7.66113 29 7.82031 28.9219 7.91602 28.7773L9.37286 26.5877C10.3745 26.8474 11.4186 27 12.5 27C13.5825 27 14.6264 26.8481 15.6282 26.5894L17.084 28.7773C17.1797 28.9219 17.3389 29 17.5 29C17.5957 29 17.6914 28.9727 17.7773 28.916C18.0068 28.7637 18.0693 28.4531 17.916 28.2227L16.6337 26.2955C17.0276 26.1577 17.4147 26.0048 17.79 25.83C17.19 25.41 16.67 24.9 16.24 24.31C15.08 24.76 13.82 25 12.5 25C6.71002 25 2 20.29 2 14.5C2 8.70996 6.71002 4 12.5 4C18.18 4 22.83 8.53998 22.99 14.18C23.71 14.34 24.38 14.63 24.98 15.02C25 14.85 25 14.67 25 14.5C25 7.60999 19.39 2 12.5 2Z" fill="currentColor"/>
<path d="M1.09998 7.28998C2.15997 5.59998 3.59998 4.15997 5.28998 3.09998C5.65997 2.85999 6.03998 2.64001 6.44 2.45001C6.43762 2.44879 6.43488 2.44855 6.4325 2.44733C10.1887 0.57373 14.8113 0.57373 18.5675 2.44733C18.5651 2.44855 18.5624 2.44879 18.56 2.45001C18.96 2.64001 19.34 2.85999 19.71 3.09998C21.4 4.15997 22.84 5.59998 23.9 7.28998C24.14 7.65997 24.36 8.03998 24.55 8.44C24.85 7.83997 25 7.17999 25 6.5C25 4.01996 22.98 2 20.5 2C20.3115 2 20.1301 2.03931 19.9455 2.06238C17.7038 0.715637 15.134 0 12.5 0C9.86603 0 7.2962 0.715637 5.0545 2.06238C4.86993 2.03931 4.68854 2 4.5 2C2.02002 2 0 4.01996 0 6.5C0 7.17999 0.150024 7.83997 0.450012 8.44C0.640015 8.03998 0.859985 7.65997 1.09998 7.28998Z" fill="currentColor"/>
<path d="M21.5 16.2432C19.1548 16.2432 17.2432 18.1548 17.2432 20.5C17.2432 22.8451 19.1548 24.7568 21.5 24.7568C23.8452 24.7568 25.7568 22.8451 25.7568 20.5C25.7568 18.1548 23.8452 16.2432 21.5 16.2432ZM21.5 23.2089C21.2833 23.2089 21.113 23.0386 21.113 22.8219C21.113 22.6052 21.2833 22.4349 21.5 22.4349C21.7167 22.4349 21.887 22.6052 21.887 22.8219C21.887 23.0386 21.7167 23.2089 21.5 23.2089ZM21.887 21.274C21.887 21.4907 21.7167 21.661 21.5 21.661C21.2833 21.661 21.113 21.4907 21.113 21.274V18.1781C21.113 17.9614 21.2833 17.7911 21.5 17.7911C21.7167 17.7911 21.887 17.9614 21.887 18.1781V21.274Z" fill="currentColor"/>
<path d="M12.5 5C7.26001 5 3 9.26001 3 14.5C3 19.74 7.26001 24 12.5 24C13.62 24 14.7 23.8 15.71 23.44C15.25 22.56 15 21.56 15 20.5C15 16.92 17.92 14 21.5 14C21.67 14 21.83 14.01 21.99 14.02C21.74 9 17.58 5 12.5 5ZM13 14.5C13 14.63 12.95 14.76 12.85 14.85L10.85 16.85C10.76 16.95 10.63 17 10.5 17C10.37 17 10.24 16.95 10.15 16.85C9.95001 16.66 9.95001 16.34 10.15 16.15L12 14.29V9.5C12 9.21997 12.22 9 12.5 9C12.78 9 13 9.21997 13 9.5V14.5Z" fill="currentColor"/>
</svg>
