<svg width="46" height="46" viewBox="0 0 46 46" fill="none" xmlns="http://www.w3.org/2000/svg">
<path d="M32.057 25.185C31.6754 24.804 31.6754 24.1859 32.0556 23.805C32.4365 23.4233 33.0547 23.4226 33.4356 23.8035L33.8122 24.1794L38.2699 19.7217C38.7917 19.1999 38.7917 18.3468 38.2699 17.825L35.7694 15.3244C34.007 17.0868 31.1493 17.0868 29.3869 15.3244C27.6245 13.5621 27.6245 10.7043 29.3869 8.94193L26.5392 6.09424C26.0174 5.57243 25.1635 5.57243 24.6424 6.09424L20.1847 10.5519C20.1847 10.5519 20.1854 10.5519 20.1854 10.5526L20.6454 11.0126C21.0264 11.3936 21.0264 12.0117 20.6447 12.3926C20.4543 12.5831 20.2048 12.678 19.9554 12.678C19.7053 12.678 19.4559 12.5824 19.2654 12.3919L18.8062 11.9319L4.45847 26.2775C3.93666 26.7993 3.93738 27.6531 4.45847 28.1742L7.30616 31.0219C9.06854 29.2596 11.9263 29.2596 13.6887 31.0219C15.451 32.7843 15.451 35.6421 13.6887 37.4044L16.1892 39.905C16.711 40.4268 17.5642 40.4268 18.086 39.905L32.4322 25.5587L32.057 25.185ZM24.0552 15.8031C23.8647 15.9936 23.6153 16.0892 23.3652 16.0892C23.1151 16.0892 22.8657 15.9936 22.6752 15.8031L21.822 14.95C21.4411 14.569 21.4411 13.9509 21.822 13.57C22.203 13.189 22.8211 13.189 23.202 13.57L24.0552 14.4231C24.4368 14.8048 24.4368 15.4222 24.0552 15.8031ZM27.4664 19.2143C27.2759 19.4048 27.0265 19.5004 26.7764 19.5004C26.5263 19.5004 26.2768 19.4048 26.0864 19.2143L25.2332 18.3611C24.8523 17.9802 24.8523 17.3621 25.2332 16.9811C25.6134 16.6002 26.233 16.6002 26.6132 16.9811L27.4664 17.8343C27.848 18.216 27.848 18.8334 27.4664 19.2143ZM30.8783 22.6262C30.6878 22.8167 30.4384 22.9123 30.1883 22.9123C29.9382 22.9123 29.6888 22.8167 29.4983 22.6262L28.6451 21.7731C28.2642 21.3921 28.2642 20.774 28.6451 20.3931C29.0254 20.0121 29.6449 20.0121 30.0251 20.3931L30.8783 21.2462C31.2592 21.6271 31.2592 22.2446 30.8783 22.6262Z" fill="#B866F9"/>
<path d="M35.7637 27.7976C32.3561 27.7976 29.594 30.5598 29.594 33.9666C29.594 37.3742 32.3561 40.1364 35.7637 40.1364C39.1706 40.1364 41.9328 37.3742 41.9328 33.9666C41.9328 30.559 39.1713 27.7976 35.7637 27.7976ZM38.4713 34.9456H33.0562C32.4611 34.9456 31.9781 34.4626 31.9781 33.8675C31.9781 33.2723 32.4611 32.7893 33.0562 32.7893H38.4713C39.0664 32.7893 39.5494 33.2723 39.5494 33.8675C39.5494 34.4626 39.0664 34.9456 38.4713 34.9456Z" fill="#B866F9"/>
</svg>
