<svg width="20" height="20" viewBox="0 0 20 20" fill="none" xmlns="http://www.w3.org/2000/svg">
<path d="M15.6322 5.77462C16.5266 4.8803 17.9766 4.8803 18.8709 5.77462C19.7652 6.66893 19.7653 8.11897 18.8709 9.01327L18.8709 9.01323L13.1461 14.738C12.0254 15.8587 10.5054 16.4883 8.92058 16.4883C8.49899 16.4883 8.15723 16.1465 8.15723 15.7249C8.15723 14.1401 8.78679 12.6201 9.90749 11.4994L15.6322 5.77462ZM17.7914 6.85416C17.4933 6.55606 17.0099 6.55605 16.7118 6.85416L10.9871 12.5789C10.3545 13.2115 9.93215 14.0149 9.76481 14.8807C10.6306 14.7134 11.434 14.291 12.0666 13.6585L17.7914 7.93369L17.8051 7.91957C18.0894 7.62056 18.0848 7.14762 17.7914 6.85416Z" fill="#5B6B79"/>
<path d="M13.7792 7.62849C14.0774 7.33038 14.5607 7.33038 14.8588 7.62849L17.0179 9.7876C17.316 10.0857 17.316 10.569 17.0179 10.8671C16.7198 11.1652 16.2365 11.1652 15.9384 10.8671L13.7792 8.70806C13.4811 8.40996 13.4811 7.92659 13.7792 7.62849Z" fill="#5B6B79"/>
<path d="M0 17.2517V2.29005C0 1.02531 1.02531 0 2.29005 0H10.8178C11.4252 0 12.0077 0.241246 12.4372 0.670765L14.5962 2.82977L14.6222 2.85612C14.8877 3.13032 15.0782 3.46415 15.1805 3.82548C15.2953 4.23113 15.0595 4.65305 14.6538 4.76785C14.2481 4.88264 13.8263 4.64687 13.7115 4.24122C13.6763 4.11682 13.6097 4.00234 13.5168 3.90941L11.3576 1.75026C11.2145 1.60713 11.0203 1.5267 10.8178 1.5267H2.29005C1.86848 1.5267 1.5267 1.86848 1.5267 2.29005V17.2517C1.5267 17.6733 1.86848 18.0151 2.29005 18.0151H12.977C13.3985 18.0151 13.7403 17.6733 13.7403 17.2517V16.608C13.7403 16.1864 14.0821 15.8446 14.5037 15.8446C14.9252 15.8446 15.267 16.1864 15.267 16.608V17.2517C15.267 18.5165 14.2417 19.5418 12.977 19.5418H2.29005C1.02531 19.5418 0 18.5165 0 17.2517Z" fill="#5B6B79"/>
<path d="M3.05371 15.725C3.05371 14.4602 4.07902 13.4349 5.34376 13.4349C6.34085 13.4349 7.18909 14.0722 7.50347 14.9616H8.92104C9.34262 14.9616 9.68439 15.3034 9.68439 15.725C9.68439 16.1466 9.34262 16.4883 8.92104 16.4883H6.87046C6.45547 16.4883 6.11783 16.1572 6.10737 15.7447L6.10685 15.7053C6.09639 15.2928 5.75874 14.9616 5.34376 14.9616C4.92878 14.9616 4.59113 15.2928 4.58067 15.7053L4.58015 15.7447C4.56969 16.1572 4.23206 16.4883 3.81706 16.4883C3.39547 16.4883 3.05371 16.1466 3.05371 15.725Z" fill="#5B6B79"/>
<path d="M8.39717 4.58008C8.81875 4.58008 9.16052 4.92184 9.16052 5.34343C9.16052 5.76502 8.81875 6.10678 8.39717 6.10678H3.81706C3.39547 6.10678 3.05371 5.76502 3.05371 5.34343C3.05371 4.92184 3.39547 4.58008 3.81706 4.58008H8.39717Z" fill="#5B6B79"/>
<path d="M8.39717 7.63354C8.81875 7.63354 9.16052 7.97531 9.16052 8.3969C9.16052 8.81848 8.81875 9.16025 8.39717 9.16025H3.81706C3.39547 9.16025 3.05371 8.81848 3.05371 8.3969C3.05371 7.97531 3.39547 7.63354 3.81706 7.63354H8.39717Z" fill="#5B6B79"/>
</svg>
