<svg width="37" height="37" viewBox="0 0 37 37" fill="none" xmlns="http://www.w3.org/2000/svg">
<path d="M32.7464 4.08641L34.8914 5.15891L36.355 0.768218L34.3201 0.0899658L33.6387 2.1343L31.4936 1.0618L30.03 5.45249L32.065 6.13075L32.7464 4.08641Z" fill="#FF1C28"/>
<path d="M4.29002 6.13075L6.325 5.45249L4.86138 1.0618L2.71637 2.1343L2.03497 0.0899658L0 0.768218L1.46361 5.15891L3.60862 4.08641L4.29002 6.13075Z" fill="#FF1C28"/>
<path d="M27.7777 19.371C26.1768 7.35769 8.89141 8.19947 8.5249 20.3778C8.5249 26.1153 13.5391 30.6363 19.3024 29.9643C18.7475 24.6345 22.6206 19.9723 27.7777 19.371ZM19.25 21.4501H13.8875V19.3051H17.105V13.9426H19.25V21.4501Z" fill="#FF1C28"/>
<path d="M19.7645 32.0681C12.6509 33.0287 6.38013 27.474 6.38013 20.3776C6.84739 5.36274 28.2111 4.51511 29.9308 19.3599C31.5179 19.5288 32.9912 20.0837 34.2549 20.9289C34.5276 12.7749 28.7448 5.95105 21.1029 4.55486C22.0738 2.43959 20.5246 0 18.1777 0C15.8326 0 14.2803 2.43702 15.2524 4.55486C-6.15953 9.3767 0.518387 40.6057 22.2516 35.9466C21.1355 34.8839 20.2727 33.5573 19.7645 32.0681ZM18.1777 2.14501C18.7691 2.14501 19.2502 2.62614 19.2502 3.21752C19.1963 4.63837 17.1589 4.63802 17.1052 3.21752C17.1052 2.62614 17.5862 2.14501 18.1777 2.14501Z" fill="#FF1C28"/>
<path d="M28.9026 21.4502C24.7563 21.4502 21.395 24.8115 21.395 28.9577C21.7631 38.9056 36.0435 38.9029 36.4101 28.9577C36.4101 24.8115 33.0489 21.4502 28.9026 21.4502ZM29.9751 33.2478H27.8301V31.1027H29.9751V33.2478ZM29.9751 28.9577H27.8301V24.6677H29.9751V28.9577Z" fill="#FF1C28"/>
</svg>
